<svg width="1440" height="544" fill="none" xmlns="http://www.w3.org/2000/svg"><mask id="a" style="mask-type:alpha" maskUnits="userSpaceOnUse" x="0" y="-74" width="1441" height="618"><path fill="#101828" d="M0-74h1441v618H0z"/></mask><g mask="url(#a)"><path fill-rule="evenodd" clip-rule="evenodd" d="M536.252 540.466h-2.224v-38.312a2.913 2.913 0 0 0-1.465-2.528l-16.224-9.29-16.187 9.29a2.912 2.912 0 0 0-1.463 2.526v17.365a3.276 3.276 0 0 0 3.303 3.276l12.032-.096a2.297 2.297 0 0 1 2.315 2.297v15.472h-33.042a2.296 2.296 0 0 1-2.297-2.297v-46.807c0-.823.441-1.584 1.155-1.993l34.184-19.586 34.189 19.586a2.297 2.297 0 0 1 1.156 1.993v46.673a2.298 2.298 0 0 1-2.274 2.297l-13.158.134Zm88.354 0h-2.224v-38.312a2.913 2.913 0 0 0-1.465-2.528l-16.224-9.29-16.187 9.29a2.912 2.912 0 0 0-1.463 2.526v17.365a3.276 3.276 0 0 0 3.303 3.276l12.032-.096a2.297 2.297 0 0 1 2.315 2.297v15.472h-33.042a2.296 2.296 0 0 1-2.297-2.297v-46.807c0-.823.441-1.584 1.155-1.993l34.184-19.586 34.189 19.586a2.296 2.296 0 0 1 1.155 1.993v46.673a2.297 2.297 0 0 1-2.273 2.297l-13.158.134Zm88.355 0h-2.224v-38.312a2.913 2.913 0 0 0-1.465-2.528l-16.224-9.29-16.187 9.29a2.912 2.912 0 0 0-1.463 2.526v17.365a3.276 3.276 0 0 0 3.303 3.276l12.031-.096a2.297 2.297 0 0 1 2.316 2.297v15.472h-33.042a2.296 2.296 0 0 1-2.297-2.297v-46.807c0-.823.44-1.584 1.155-1.993l34.184-19.586 34.189 19.586a2.296 2.296 0 0 1 1.155 1.993v46.673a2.297 2.297 0 0 1-2.273 2.297l-13.158.134Zm265.063 0h-2.223v-38.312a2.912 2.912 0 0 0-1.466-2.528l-16.224-9.29-16.187 9.29a2.911 2.911 0 0 0-1.462 2.526v17.365a3.275 3.275 0 0 0 3.302 3.276l12.032-.096a2.297 2.297 0 0 1 2.315 2.297v15.472h-33.042a2.297 2.297 0 0 1-2.297-2.297v-46.807c0-.823.441-1.584 1.155-1.993l34.184-19.586 34.19 19.586a2.298 2.298 0 0 1 1.155 1.993v46.673a2.297 2.297 0 0 1-2.274 2.297l-13.158.134Zm88.356 0h-2.23v-38.312a2.9 2.9 0 0 0-1.46-2.528l-16.22-9.29-16.19 9.29a2.899 2.899 0 0 0-1.46 2.526v17.365c0 1.82 1.48 3.291 3.3 3.276l12.03-.096a2.298 2.298 0 0 1 2.32 2.297v15.472h-33.05a2.29 2.29 0 0 1-2.29-2.297v-46.807c0-.823.44-1.584 1.15-1.993l34.19-19.586 34.18 19.586a2.29 2.29 0 0 1 1.16 1.993v46.673a2.294 2.294 0 0 1-2.27 2.297l-13.16.134Zm353.42 0h-2.23v-38.312a2.92 2.92 0 0 0-1.46-2.528l-16.23-9.29-16.18 9.29a2.908 2.908 0 0 0-1.47 2.526v17.365c0 1.82 1.49 3.291 3.31 3.276l12.03-.096a2.296 2.296 0 0 1 2.31 2.297v15.472h-33.04c-1.27 0-2.3-1.028-2.3-2.297v-46.807c0-.823.45-1.584 1.16-1.993l34.18-19.586 34.19 19.586a2.29 2.29 0 0 1 1.16 1.993v46.673a2.303 2.303 0 0 1-2.28 2.297l-13.15.134ZM542.832 402.633h-2.224l-13.157.135a2.297 2.297 0 0 0-2.274 2.297v46.672c0 .824.441 1.584 1.155 1.993l34.19 19.587 34.184-19.586a2.299 2.299 0 0 0 1.155-1.993V404.93a2.298 2.298 0 0 0-2.297-2.297h-33.042v15.473a2.296 2.296 0 0 0 2.315 2.296l12.032-.096a3.277 3.277 0 0 1 3.302 3.276v17.366a2.915 2.915 0 0 1-1.462 2.526l-16.187 9.29-16.225-9.291a2.912 2.912 0 0 1-1.465-2.527v-38.313ZM807.896 91.626h-2.224l-13.158.134a2.297 2.297 0 0 0-2.273 2.297v46.673c0 .823.44 1.583 1.155 1.993l34.189 19.586 34.184-19.586a2.297 2.297 0 0 0 1.155-1.993V93.922a2.297 2.297 0 0 0-2.297-2.296h-33.042v15.472a2.297 2.297 0 0 0 2.316 2.297l12.031-.097a3.277 3.277 0 0 1 3.303 3.277v17.365a2.912 2.912 0 0 1-1.463 2.526l-16.187 9.29-16.224-9.29a2.914 2.914 0 0 1-1.465-2.528V91.626ZM673.14 247.128h2.224v38.313c0 1.044.559 2.008 1.465 2.527l16.224 9.291 16.187-9.29a2.913 2.913 0 0 0 1.463-2.526v-17.366a3.277 3.277 0 0 0-3.303-3.276l-12.032.096a2.297 2.297 0 0 1-2.315-2.297v-15.472h33.042a2.297 2.297 0 0 1 2.297 2.297v46.807c0 .824-.441 1.584-1.155 1.993l-34.184 19.587-34.189-19.587a2.295 2.295 0 0 1-1.156-1.993V249.56a2.297 2.297 0 0 1 2.274-2.297l13.158-.135ZM940.427-63.879h-2.224l-13.158.135a2.297 2.297 0 0 0-2.273 2.297v46.673c0 .823.441 1.583 1.155 1.993l34.19 19.586 34.184-19.586a2.298 2.298 0 0 0 1.155-1.993v-46.808a2.297 2.297 0 0 0-2.297-2.297h-33.042v15.473a2.296 2.296 0 0 0 2.315 2.297l12.032-.097a3.276 3.276 0 0 1 3.302 3.277v17.365a2.913 2.913 0 0 1-1.462 2.526l-16.187 9.29-16.225-9.29a2.912 2.912 0 0 1-1.465-2.528v-38.313ZM1682.64 229.46h2.22l13.16-.135a2.294 2.294 0 0 0 2.27-2.297v-46.673c0-.823-.44-1.583-1.15-1.993l-34.19-19.586-34.19 19.586c-.71.41-1.15 1.17-1.15 1.993v46.808a2.299 2.299 0 0 0 2.3 2.297h33.04v-15.473a2.299 2.299 0 0 0-2.32-2.297l-12.03.097a3.275 3.275 0 0 1-3.3-3.277v-17.365a2.92 2.92 0 0 1 1.46-2.526l16.19-9.29 16.22 9.291a2.908 2.908 0 0 1 1.47 2.527v38.313Zm-130.31 155.503h-2.23V346.65a2.9 2.9 0 0 0-1.46-2.527l-16.23-9.291-16.18 9.291a2.898 2.898 0 0 0-1.46 2.526v17.365c0 1.82 1.48 3.291 3.3 3.276l12.03-.096a2.29 2.29 0 0 1 2.31 2.297v15.472h-33.04a2.29 2.29 0 0 1-2.29-2.297v-46.807c0-.823.44-1.584 1.15-1.993l34.18-19.586 34.19 19.586a2.29 2.29 0 0 1 1.16 1.993v46.673a2.293 2.293 0 0 1-2.27 2.296l-13.16.135Zm262.84-311.008h2.22l13.16-.134a2.294 2.294 0 0 0 2.27-2.297V24.85c0-.823-.44-1.584-1.15-1.993l-34.19-19.586-34.19 19.586c-.71.41-1.15 1.17-1.15 1.993v46.807a2.299 2.299 0 0 0 2.3 2.297h33.04V58.482a2.298 2.298 0 0 0-2.32-2.297l-12.03.096a3.274 3.274 0 0 1-3.3-3.276V35.64a2.92 2.92 0 0 1 1.46-2.526l16.19-9.29 16.22 9.29a2.909 2.909 0 0 1 1.47 2.528v38.312ZM894.026 402.633h2.224v38.313c0 1.044.559 2.008 1.465 2.527l16.224 9.291 16.187-9.29a2.913 2.913 0 0 0 1.463-2.526v-17.366a3.277 3.277 0 0 0-3.303-3.276l-12.032.096a2.296 2.296 0 0 1-2.315-2.296v-15.473h33.042a2.297 2.297 0 0 1 2.297 2.297v46.808c0 .823-.441 1.583-1.155 1.993l-34.184 19.586-34.189-19.587a2.294 2.294 0 0 1-1.155-1.993v-46.672a2.297 2.297 0 0 1 2.273-2.297l13.158-.135ZM1161.31 91.626h-2.22l-13.16.134a2.293 2.293 0 0 0-2.27 2.297v46.673c0 .823.44 1.583 1.15 1.993l34.19 19.586 34.19-19.586c.71-.41 1.15-1.17 1.15-1.993V93.922a2.299 2.299 0 0 0-2.3-2.296H1179v15.472a2.298 2.298 0 0 0 2.32 2.297l12.03-.097a3.275 3.275 0 0 1 3.3 3.277v17.365a2.92 2.92 0 0 1-1.46 2.526l-16.19 9.29-16.22-9.29a2.91 2.91 0 0 1-1.47-2.528V91.626Zm-134.75 155.503h2.22v38.313c0 1.044.56 2.008 1.47 2.527l16.22 9.291 16.19-9.29c.9-.52 1.46-1.483 1.46-2.526v-17.366c0-1.819-1.48-3.29-3.3-3.276l-12.03.096a2.298 2.298 0 0 1-2.32-2.297v-15.472h33.04c1.27 0 2.3 1.029 2.3 2.297v46.807a2.3 2.3 0 0 1-1.15 1.993l-34.19 19.587-34.19-19.587a2.3 2.3 0 0 1-1.15-1.993v-46.672c0-1.26 1.01-2.284 2.27-2.297l13.16-.135Zm267.29-311.008h-2.23l-13.16.135a2.294 2.294 0 0 0-2.27 2.297v46.673c0 .823.44 1.583 1.16 1.993l34.18 19.586 34.19-19.586c.71-.41 1.15-1.17 1.15-1.993v-46.808a2.29 2.29 0 0 0-2.29-2.297h-33.05v15.473a2.298 2.298 0 0 0 2.32 2.297l12.03-.097a3.274 3.274 0 0 1 3.3 3.277v17.365c0 1.043-.55 2.007-1.46 2.526l-16.19 9.29-16.22-9.29a2.9 2.9 0 0 1-1.46-2.528v-38.313Zm35.37 293.338h2.22l13.16-.135a2.294 2.294 0 0 0 2.27-2.297v-46.673c0-.823-.44-1.583-1.15-1.993l-34.19-19.586-34.19 19.586c-.71.41-1.15 1.17-1.15 1.993v46.808a2.299 2.299 0 0 0 2.3 2.297h33.04v-15.473a2.299 2.299 0 0 0-2.32-2.297l-12.03.097a3.275 3.275 0 0 1-3.3-3.277v-17.365a2.92 2.92 0 0 1 1.46-2.526l16.19-9.29 16.22 9.291a2.908 2.908 0 0 1 1.47 2.527v38.313Zm-130.31 155.503h-2.22v-38.313c0-1.044-.56-2.008-1.47-2.527l-16.22-9.291-16.19 9.291a2.919 2.919 0 0 0-1.46 2.526v17.365c0 1.82 1.48 3.291 3.3 3.276l12.03-.096a2.298 2.298 0 0 1 2.32 2.297v15.472h-33.04c-1.27 0-2.3-1.028-2.3-2.297v-46.807c0-.823.44-1.584 1.15-1.993l34.19-19.586 34.19 19.586c.71.409 1.15 1.17 1.15 1.993v46.673a2.293 2.293 0 0 1-2.27 2.296l-13.16.135Zm262.84-311.007h2.22l13.16-.135a2.302 2.302 0 0 0 2.28-2.297V24.85a2.31 2.31 0 0 0-1.16-1.993l-34.19-19.586-34.18 19.586a2.29 2.29 0 0 0-1.16 1.993v46.808a2.299 2.299 0 0 0 2.3 2.296h33.04V58.482a2.296 2.296 0 0 0-2.31-2.297l-12.04.096a3.274 3.274 0 0 1-3.3-3.276V35.64a2.92 2.92 0 0 1 1.46-2.526l16.19-9.29 16.23 9.29a2.92 2.92 0 0 1 1.46 2.528v38.312ZM628.962 402.632h2.224v38.313c0 1.044.559 2.008 1.465 2.527l16.225 9.291 16.187-9.29a2.915 2.915 0 0 0 1.462-2.526v-17.366a3.277 3.277 0 0 0-3.302-3.276l-12.032.096a2.296 2.296 0 0 1-2.315-2.296v-15.473h33.042a2.298 2.298 0 0 1 2.297 2.297v46.808c0 .823-.441 1.583-1.155 1.993l-34.184 19.586-34.19-19.587a2.297 2.297 0 0 1-1.155-1.993v-46.672a2.297 2.297 0 0 1 2.273-2.297l13.158-.135ZM896.25 91.626h-2.224l-13.158.134a2.297 2.297 0 0 0-2.273 2.297v46.673c0 .823.44 1.583 1.155 1.993l34.189 19.586 34.184-19.586a2.299 2.299 0 0 0 1.155-1.993V93.922a2.297 2.297 0 0 0-2.297-2.296h-33.042v15.472a2.297 2.297 0 0 0 2.315 2.297l12.032-.097a3.277 3.277 0 0 1 3.303 3.277v17.365a2.912 2.912 0 0 1-1.463 2.526l-16.187 9.29-16.224-9.29a2.914 2.914 0 0 1-1.465-2.528V91.626ZM761.495 247.128h2.223v38.313c0 1.044.559 2.008 1.466 2.527l16.224 9.291 16.187-9.29a2.912 2.912 0 0 0 1.462-2.526v-17.366a3.276 3.276 0 0 0-3.302-3.276l-12.032.096a2.296 2.296 0 0 1-2.315-2.297v-15.472h33.042a2.298 2.298 0 0 1 2.297 2.297v46.807c0 .824-.441 1.584-1.155 1.993l-34.184 19.587-34.19-19.587a2.297 2.297 0 0 1-1.155-1.993V249.56a2.297 2.297 0 0 1 2.274-2.297l13.158-.135ZM1028.78-63.879h-2.22l-13.16.135a2.293 2.293 0 0 0-2.27 2.297v46.673c0 .823.44 1.583 1.15 1.993l34.19 19.586 34.19-19.586c.71-.41 1.15-1.17 1.15-1.993v-46.808a2.299 2.299 0 0 0-2.3-2.297h-33.04v15.473a2.298 2.298 0 0 0 2.32 2.297l12.03-.097a3.274 3.274 0 0 1 3.3 3.277v17.365a2.92 2.92 0 0 1-1.46 2.526l-16.19 9.29-16.22-9.29a2.909 2.909 0 0 1-1.47-2.528v-38.313Zm302.66 604.345h-2.22v-38.312a2.91 2.91 0 0 0-1.47-2.528l-16.22-9.29-16.19 9.29a2.92 2.92 0 0 0-1.46 2.526v17.365c0 1.82 1.48 3.291 3.3 3.276l12.03-.096a2.298 2.298 0 0 1 2.32 2.297v15.472h-33.04c-1.27 0-2.3-1.028-2.3-2.297v-46.807c0-.823.44-1.584 1.15-1.993l34.19-19.586 34.19 19.586c.71.409 1.15 1.17 1.15 1.993v46.673a2.294 2.294 0 0 1-2.27 2.297l-13.16.134Zm262.84-311.007h2.23l13.15-.135a2.303 2.303 0 0 0 2.28-2.297v-46.673c0-.823-.44-1.583-1.16-1.993l-34.19-19.586-34.18 19.586c-.72.41-1.16 1.17-1.16 1.993v46.808a2.299 2.299 0 0 0 2.3 2.297h33.04v-15.473a2.297 2.297 0 0 0-2.31-2.297l-12.03.097a3.283 3.283 0 0 1-3.31-3.277v-17.365c0-1.043.56-2.007 1.47-2.526l16.18-9.29 16.23 9.291c.9.518 1.46 1.483 1.46 2.527v38.313Zm-130.31 155.503h-2.22v-38.313a2.92 2.92 0 0 0-1.46-2.527l-16.23-9.291-16.19 9.291a2.919 2.919 0 0 0-1.46 2.526v17.365c0 1.82 1.48 3.291 3.3 3.276l12.04-.096a2.296 2.296 0 0 1 2.31 2.297v15.472h-33.04c-1.27 0-2.3-1.028-2.3-2.297v-46.807c0-.823.44-1.584 1.16-1.993l34.18-19.586 34.19 19.586a2.31 2.31 0 0 1 1.16 1.993v46.673a2.301 2.301 0 0 1-2.28 2.296l-13.16.135Zm262.84-311.008h2.23l13.16-.134a2.3 2.3 0 0 0 2.27-2.297V24.85a2.29 2.29 0 0 0-1.16-1.993l-34.19-19.586-34.18 19.586c-.71.41-1.15 1.17-1.15 1.993v46.808a2.29 2.29 0 0 0 2.29 2.296h33.04V58.482a2.296 2.296 0 0 0-2.31-2.297l-12.03.096a3.283 3.283 0 0 1-3.31-3.276V35.64c0-1.043.56-2.007 1.47-2.526l16.18-9.29 16.23 9.29a2.92 2.92 0 0 1 1.46 2.528v38.312ZM982.381 402.633h2.224v38.313c0 1.044.559 2.008 1.465 2.527l16.22 9.291 16.19-9.29a2.9 2.9 0 0 0 1.46-2.526v-17.366c0-1.819-1.48-3.29-3.3-3.276l-12.03.096a2.297 2.297 0 0 1-2.32-2.296v-15.473h33.05c1.26 0 2.29 1.029 2.29 2.297v46.808c0 .823-.44 1.583-1.15 1.993l-34.19 19.586-34.185-19.587a2.295 2.295 0 0 1-1.156-1.993v-46.672a2.297 2.297 0 0 1 2.274-2.297l13.158-.135ZM1249.67 91.626h-2.23l-13.15.134a2.302 2.302 0 0 0-2.28 2.297v46.673c0 .823.44 1.583 1.16 1.993l34.19 19.586 34.18-19.586c.72-.41 1.16-1.17 1.16-1.993V93.922a2.299 2.299 0 0 0-2.3-2.296h-33.04v15.472a2.296 2.296 0 0 0 2.31 2.297l12.03-.097a3.283 3.283 0 0 1 3.31 3.277v17.365c0 1.043-.56 2.007-1.47 2.526l-16.18 9.29-16.23-9.29a2.922 2.922 0 0 1-1.46-2.528V91.626Zm-134.76 155.503h2.23v38.313a2.9 2.9 0 0 0 1.46 2.527l16.23 9.291 16.18-9.29a2.9 2.9 0 0 0 1.46-2.526v-17.366c0-1.819-1.48-3.29-3.3-3.276l-12.03.096a2.29 2.29 0 0 1-2.31-2.297v-15.472h33.04a2.29 2.29 0 0 1 2.29 2.297v46.807a2.3 2.3 0 0 1-1.15 1.993l-34.18 19.587-34.19-19.587a2.289 2.289 0 0 1-1.16-1.993v-46.672c0-1.26 1.01-2.284 2.27-2.297l13.16-.135ZM1382.2-63.879h-2.22l-13.16.135a2.302 2.302 0 0 0-2.28 2.297v46.673c0 .823.44 1.583 1.16 1.993l34.19 19.586 34.18-19.586a2.29 2.29 0 0 0 1.16-1.993v-46.808a2.299 2.299 0 0 0-2.3-2.297h-33.04v15.473a2.296 2.296 0 0 0 2.31 2.297l12.04-.097a3.274 3.274 0 0 1 3.3 3.277v17.365a2.92 2.92 0 0 1-1.46 2.526l-16.19 9.29-16.23-9.29a2.92 2.92 0 0 1-1.46-2.528v-38.313ZM1240.86 229.46h2.23l13.16-.135a2.294 2.294 0 0 0 2.27-2.297v-46.673c0-.823-.44-1.583-1.16-1.993l-34.19-19.586-34.18 19.586c-.71.41-1.15 1.17-1.15 1.993v46.808a2.29 2.29 0 0 0 2.29 2.297h33.04v-15.473a2.29 2.29 0 0 0-2.31-2.297l-12.03.097a3.275 3.275 0 0 1-3.3-3.277v-17.365c0-1.043.55-2.007 1.46-2.526l16.18-9.29 16.23 9.291a2.898 2.898 0 0 1 1.46 2.527v38.313Zm-130.3 155.503h-2.23V346.65a2.92 2.92 0 0 0-1.46-2.527l-16.23-9.291-16.18 9.291a2.907 2.907 0 0 0-1.47 2.526v17.365c0 1.82 1.49 3.291 3.31 3.276l12.03-.096a2.296 2.296 0 0 1 2.31 2.297v15.472h-33.04c-1.27 0-2.3-1.028-2.3-2.297v-46.807c0-.823.44-1.584 1.16-1.993l34.18-19.586 34.19 19.586a2.29 2.29 0 0 1 1.16 1.993v46.673a2.301 2.301 0 0 1-2.28 2.296l-13.15.135ZM1373.4 73.955h2.22l13.16-.135a2.294 2.294 0 0 0 2.27-2.297V24.85c0-.823-.44-1.583-1.15-1.993l-34.19-19.586-34.19 19.586c-.71.41-1.15 1.17-1.15 1.993v46.807a2.297 2.297 0 0 0 2.29 2.297h33.05V58.482a2.298 2.298 0 0 0-2.32-2.297l-12.03.096a3.274 3.274 0 0 1-3.3-3.276V35.64c0-1.043.55-2.007 1.46-2.526l16.19-9.29 16.22 9.29a2.909 2.909 0 0 1 1.47 2.528v38.312Zm-125.96 328.678h2.23v38.313a2.92 2.92 0 0 0 1.46 2.527l16.23 9.291 16.18-9.29a2.91 2.91 0 0 0 1.47-2.526v-17.366c0-1.819-1.49-3.29-3.31-3.276l-12.03.096a2.295 2.295 0 0 1-2.31-2.296v-15.473h33.04c1.27 0 2.3 1.029 2.3 2.297v46.808c0 .823-.44 1.583-1.16 1.993l-34.18 19.586-34.19-19.587a2.289 2.289 0 0 1-1.16-1.993v-46.672c0-1.26 1.02-2.284 2.28-2.297l13.15-.135Zm267.29-311.007h-2.22l-13.16.134a2.293 2.293 0 0 0-2.27 2.297v46.673c0 .823.44 1.583 1.15 1.993l34.19 19.586 34.18-19.586c.72-.41 1.16-1.17 1.16-1.993V93.922a2.299 2.299 0 0 0-2.3-2.296h-33.04v15.472a2.298 2.298 0 0 0 2.32 2.297l12.03-.097a3.275 3.275 0 0 1 3.3 3.277v17.365a2.92 2.92 0 0 1-1.46 2.526l-16.19 9.29-16.22-9.29a2.91 2.91 0 0 1-1.47-2.528V91.626Zm-134.75 155.503h2.22v38.313a2.92 2.92 0 0 0 1.46 2.527l16.23 9.291 16.19-9.29c.9-.52 1.46-1.483 1.46-2.526v-17.366c0-1.819-1.48-3.29-3.3-3.276l-12.04.096a2.296 2.296 0 0 1-2.31-2.297v-15.472h33.04c1.27 0 2.3 1.029 2.3 2.297v46.807c0 .824-.44 1.584-1.16 1.993l-34.18 19.587-34.19-19.587a2.289 2.289 0 0 1-1.16-1.993v-46.672c0-1.26 1.02-2.284 2.28-2.297l13.16-.135Zm267.28-311.008h-2.22l-13.16.135a2.294 2.294 0 0 0-2.27 2.297v46.673c0 .823.44 1.583 1.15 1.993l34.19 19.586 34.19-19.586c.71-.41 1.15-1.17 1.15-1.993v-46.808a2.299 2.299 0 0 0-2.3-2.297h-33.04v15.473a2.298 2.298 0 0 0 2.32 2.297l12.03-.097a3.274 3.274 0 0 1 3.3 3.277v17.365a2.92 2.92 0 0 1-1.46 2.526l-16.19 9.29-16.22-9.29a2.909 2.909 0 0 1-1.47-2.528v-38.313ZM975.801 229.46h2.223l13.158-.135a2.297 2.297 0 0 0 2.274-2.297v-46.673c0-.823-.441-1.583-1.155-1.993l-34.19-19.586-34.184 19.586a2.299 2.299 0 0 0-1.155 1.993v46.808a2.298 2.298 0 0 0 2.297 2.297h33.042v-15.473a2.297 2.297 0 0 0-2.315-2.297l-12.032.097a3.276 3.276 0 0 1-3.302-3.277v-17.365c0-1.043.557-2.007 1.462-2.526l16.187-9.29 16.224 9.291a2.91 2.91 0 0 1 1.466 2.527v38.313ZM845.492 384.962h-2.224v-38.313a2.912 2.912 0 0 0-1.465-2.527l-16.224-9.291-16.187 9.291a2.91 2.91 0 0 0-1.463 2.526v17.365a3.276 3.276 0 0 0 3.303 3.276l12.032-.096a2.297 2.297 0 0 1 2.315 2.297v15.472h-33.042a2.296 2.296 0 0 1-2.297-2.297v-46.807c0-.823.441-1.584 1.155-1.993l34.184-19.586 34.189 19.586a2.297 2.297 0 0 1 1.156 1.993v46.673a2.297 2.297 0 0 1-2.274 2.296l-13.158.135ZM1108.33 73.954h2.23l13.15-.134a2.302 2.302 0 0 0 2.28-2.297V24.85a2.29 2.29 0 0 0-1.16-1.993l-34.19-19.586-34.18 19.586a2.29 2.29 0 0 0-1.16 1.993v46.808a2.299 2.299 0 0 0 2.3 2.296h33.04V58.482a2.296 2.296 0 0 0-2.31-2.297l-12.03.096a3.283 3.283 0 0 1-3.31-3.276V35.64c0-1.043.56-2.007 1.47-2.526l16.18-9.29 16.23 9.29a2.92 2.92 0 0 1 1.46 2.528v38.312ZM717.317 402.633h2.224v38.313c0 1.044.559 2.008 1.465 2.527l16.224 9.291 16.187-9.29a2.913 2.913 0 0 0 1.463-2.526v-17.366a3.277 3.277 0 0 0-3.303-3.276l-12.031.096a2.297 2.297 0 0 1-2.316-2.296v-15.473h33.042a2.297 2.297 0 0 1 2.297 2.297v46.808c0 .823-.44 1.583-1.155 1.993l-34.184 19.586-34.189-19.587a2.297 2.297 0 0 1-1.155-1.993v-46.672a2.297 2.297 0 0 1 2.273-2.297l13.158-.135ZM984.605 91.626h-2.224l-13.158.134a2.297 2.297 0 0 0-2.274 2.297v46.673c0 .823.441 1.583 1.156 1.993l34.185 19.586 34.19-19.586c.71-.41 1.15-1.17 1.15-1.993V93.922a2.297 2.297 0 0 0-2.29-2.296h-33.05v15.472a2.298 2.298 0 0 0 2.32 2.297l12.03-.097a3.275 3.275 0 0 1 3.3 3.277v17.365c0 1.043-.55 2.007-1.46 2.526l-16.19 9.29-16.22-9.29a2.914 2.914 0 0 1-1.465-2.528V91.626ZM849.848 247.128h2.224v38.313c0 1.044.559 2.008 1.465 2.527l16.225 9.291 16.187-9.29a2.915 2.915 0 0 0 1.462-2.526v-17.366a3.277 3.277 0 0 0-3.302-3.276l-12.032.096a2.296 2.296 0 0 1-2.315-2.297v-15.472h33.042a2.298 2.298 0 0 1 2.297 2.297v46.807c0 .824-.441 1.584-1.155 1.993l-34.184 19.587-34.19-19.587a2.297 2.297 0 0 1-1.155-1.993V249.56a2.297 2.297 0 0 1 2.274-2.297l13.157-.135ZM1117.14-63.879h-2.23l-13.16.135a2.293 2.293 0 0 0-2.27 2.297v46.673c0 .823.44 1.583 1.16 1.993l34.19 19.586 34.18-19.586c.71-.41 1.15-1.17 1.15-1.993v-46.808a2.29 2.29 0 0 0-2.29-2.297h-33.04v15.473a2.29 2.29 0 0 0 2.31 2.297l12.03-.097a3.274 3.274 0 0 1 3.3 3.277v17.365c0 1.043-.55 2.007-1.46 2.526l-16.18 9.29-16.23-9.29a2.9 2.9 0 0 1-1.46-2.528v-38.313Zm125.95 604.345h-2.23v-38.312a2.9 2.9 0 0 0-1.46-2.528l-16.23-9.29-16.18 9.29a2.899 2.899 0 0 0-1.46 2.526v17.365c0 1.82 1.48 3.291 3.3 3.276l12.03-.096a2.29 2.29 0 0 1 2.31 2.297v15.472h-33.04a2.29 2.29 0 0 1-2.29-2.297v-46.807c0-.823.44-1.584 1.15-1.993l34.18-19.586 34.19 19.586a2.29 2.29 0 0 1 1.16 1.993v46.673a2.294 2.294 0 0 1-2.27 2.297l-13.16.134Zm262.84-311.007h2.22l13.16-.135a2.294 2.294 0 0 0 2.27-2.297v-46.673c0-.823-.44-1.583-1.15-1.993l-34.19-19.586-34.19 19.586c-.71.41-1.15 1.17-1.15 1.993v46.808a2.299 2.299 0 0 0 2.3 2.297h33.04v-15.473a2.299 2.299 0 0 0-2.32-2.297l-12.03.097a3.275 3.275 0 0 1-3.3-3.277v-17.365a2.92 2.92 0 0 1 1.46-2.526l16.19-9.29 16.22 9.291a2.908 2.908 0 0 1 1.47 2.527v38.313Zm-130.31 155.503h-2.22v-38.313c0-1.044-.56-2.008-1.47-2.527l-16.22-9.291-16.19 9.291a2.898 2.898 0 0 0-1.46 2.526v17.365c0 1.82 1.48 3.291 3.3 3.276l12.03-.096a2.298 2.298 0 0 1 2.32 2.297v15.472h-33.05a2.296 2.296 0 0 1-2.29-2.297v-46.807c0-.823.44-1.584 1.15-1.993l34.19-19.586 34.19 19.586c.71.409 1.15 1.17 1.15 1.993v46.673a2.293 2.293 0 0 1-2.27 2.296l-13.16.135Zm262.84-311.008h2.22l13.16-.134a2.294 2.294 0 0 0 2.27-2.297V24.85c0-.823-.44-1.584-1.15-1.993l-34.19-19.586-34.18 19.586a2.29 2.29 0 0 0-1.16 1.993v46.808a2.299 2.299 0 0 0 2.3 2.296h33.04V58.482a2.298 2.298 0 0 0-2.32-2.297l-12.03.096a3.274 3.274 0 0 1-3.3-3.276V35.64a2.92 2.92 0 0 1 1.46-2.526l16.19-9.29 16.22 9.29a2.909 2.909 0 0 1 1.47 2.528v38.312Zm-567.72 328.679h2.22v38.313a2.92 2.92 0 0 0 1.46 2.527l16.23 9.291 16.19-9.29c.9-.52 1.46-1.483 1.46-2.526v-17.366c0-1.819-1.48-3.29-3.3-3.276l-12.04.096a2.295 2.295 0 0 1-2.31-2.296v-15.473h33.04c1.27 0 2.3 1.029 2.3 2.297v46.808c0 .823-.44 1.583-1.16 1.993l-34.18 19.586-34.19-19.587a2.289 2.289 0 0 1-1.16-1.993v-46.672c0-1.26 1.02-2.284 2.28-2.297l13.16-.135Zm267.28-311.007h-2.22l-13.16.134a2.293 2.293 0 0 0-2.27 2.297v46.673c0 .823.44 1.583 1.15 1.993l34.19 19.586 34.19-19.586c.71-.41 1.15-1.17 1.15-1.993V93.922a2.299 2.299 0 0 0-2.3-2.296h-33.04v15.472a2.298 2.298 0 0 0 2.32 2.297l12.03-.097a3.275 3.275 0 0 1 3.3 3.277v17.365a2.92 2.92 0 0 1-1.46 2.526l-16.19 9.29-16.22-9.29a2.91 2.91 0 0 1-1.47-2.528V91.626Zm-134.75 155.503h2.22v38.313c0 1.044.56 2.008 1.47 2.527l16.22 9.291 16.19-9.29c.9-.52 1.46-1.483 1.46-2.526v-17.366c0-1.819-1.48-3.29-3.3-3.276l-12.03.096a2.298 2.298 0 0 1-2.32-2.297v-15.472h33.04c1.27 0 2.3 1.029 2.3 2.297v46.807c0 .824-.44 1.584-1.16 1.993l-34.18 19.587-34.19-19.587a2.3 2.3 0 0 1-1.15-1.993v-46.672c0-1.26 1.01-2.284 2.27-2.297l13.16-.135Zm267.28-311.008h-2.22l-13.16.135a2.294 2.294 0 0 0-2.27 2.297v46.673c0 .823.44 1.583 1.15 1.993l34.19 19.586 34.19-19.586c.71-.41 1.15-1.17 1.15-1.993v-46.808a2.297 2.297 0 0 0-2.29-2.297h-33.05v15.473a2.298 2.298 0 0 0 2.32 2.297l12.03-.097a3.274 3.274 0 0 1 3.3 3.277v17.365c0 1.043-.55 2.007-1.46 2.526l-16.19 9.29-16.22-9.29a2.909 2.909 0 0 1-1.47-2.528v-38.313ZM889.67 540.466h-2.224v-38.312a2.913 2.913 0 0 0-1.465-2.528l-16.225-9.29-16.187 9.29a2.913 2.913 0 0 0-1.462 2.526v17.365a3.276 3.276 0 0 0 3.302 3.276l12.032-.096a2.297 2.297 0 0 1 2.315 2.297v15.472h-33.042a2.297 2.297 0 0 1-2.297-2.297v-46.807c0-.823.441-1.584 1.155-1.993l34.184-19.586 34.19 19.586a2.298 2.298 0 0 1 1.155 1.993v46.673a2.297 2.297 0 0 1-2.273 2.297l-13.158.134Zm262.84-311.007h2.22l13.16-.135a2.294 2.294 0 0 0 2.27-2.297v-46.673c0-.823-.44-1.583-1.15-1.993l-34.19-19.586-34.18 19.586c-.72.41-1.16 1.17-1.16 1.993v46.808a2.299 2.299 0 0 0 2.3 2.297h33.04v-15.473a2.299 2.299 0 0 0-2.32-2.297l-12.03.097a3.275 3.275 0 0 1-3.3-3.277v-17.365a2.92 2.92 0 0 1 1.46-2.526l16.19-9.29 16.22 9.291a2.908 2.908 0 0 1 1.47 2.527v38.313ZM1022.2 384.962h-2.22v-38.313c0-1.044-.56-2.008-1.47-2.527l-16.22-9.291-16.188 9.291a2.91 2.91 0 0 0-1.463 2.526v17.365a3.276 3.276 0 0 0 3.303 3.276l12.031-.096a2.298 2.298 0 0 1 2.317 2.297v15.472h-33.043a2.296 2.296 0 0 1-2.297-2.297v-46.807c0-.823.44-1.584 1.155-1.993l34.185-19.586 34.19 19.586c.71.409 1.15 1.17 1.15 1.993v46.673a2.293 2.293 0 0 1-2.27 2.296l-13.16.135Zm262.84-311.008h2.22l13.16-.134a2.302 2.302 0 0 0 2.28-2.297V24.85a2.29 2.29 0 0 0-1.16-1.993l-34.19-19.586-34.18 19.586a2.29 2.29 0 0 0-1.16 1.993v46.807a2.299 2.299 0 0 0 2.3 2.297h33.04V58.482a2.296 2.296 0 0 0-2.31-2.297l-12.04.096a3.274 3.274 0 0 1-3.3-3.276V35.64a2.92 2.92 0 0 1 1.46-2.526l16.19-9.29 16.23 9.29a2.92 2.92 0 0 1 1.46 2.528v38.312Zm50.76 328.679h2.22v38.313c0 1.044.56 2.008 1.47 2.527l16.22 9.291 16.19-9.29c.9-.52 1.46-1.483 1.46-2.526v-17.366c0-1.819-1.48-3.29-3.3-3.276l-12.03.096a2.297 2.297 0 0 1-2.32-2.296v-15.473h33.04c1.27 0 2.3 1.029 2.3 2.297v46.808c0 .823-.44 1.583-1.15 1.993l-34.19 19.586-34.19-19.587a2.3 2.3 0 0 1-1.15-1.993v-46.672c0-1.26 1.01-2.284 2.27-2.297l13.16-.135Zm267.29-311.007h-2.23l-13.16.134a2.293 2.293 0 0 0-2.27 2.297v46.673c0 .823.44 1.583 1.16 1.993l34.18 19.586 34.19-19.586c.71-.41 1.15-1.17 1.15-1.993V93.922a2.29 2.29 0 0 0-2.29-2.296h-33.05v15.472a2.298 2.298 0 0 0 2.32 2.297l12.03-.097a3.275 3.275 0 0 1 3.3 3.277v17.365c0 1.043-.55 2.007-1.46 2.526l-16.19 9.29-16.22-9.29a2.901 2.901 0 0 1-1.46-2.528V91.626Zm-134.76 155.503h2.22v38.313c0 1.044.56 2.008 1.47 2.527l16.22 9.291 16.19-9.29a2.9 2.9 0 0 0 1.46-2.526v-17.366c0-1.819-1.48-3.29-3.3-3.276l-12.03.096a2.298 2.298 0 0 1-2.32-2.297v-15.472h33.05c1.26 0 2.29 1.029 2.29 2.297v46.807a2.3 2.3 0 0 1-1.15 1.993l-34.19 19.587-34.19-19.587a2.3 2.3 0 0 1-1.15-1.993v-46.672c0-1.26 1.01-2.284 2.27-2.297l13.16-.135Zm267.29-311.008h-2.23l-13.15.135a2.302 2.302 0 0 0-2.28 2.297v46.673c0 .823.44 1.583 1.16 1.993l34.19 19.586 34.18-19.586a2.29 2.29 0 0 0 1.16-1.993v-46.808a2.299 2.299 0 0 0-2.3-2.297h-33.04v15.473a2.296 2.296 0 0 0 2.31 2.297l12.03-.097a3.282 3.282 0 0 1 3.31 3.277v17.365c0 1.043-.56 2.007-1.47 2.526l-16.18 9.29-16.23-9.29a2.92 2.92 0 0 1-1.46-2.528v-38.313ZM887.446 229.46h2.224l13.158-.135a2.297 2.297 0 0 0 2.273-2.297v-46.673c0-.823-.441-1.583-1.155-1.993l-34.19-19.586-34.184 19.586a2.299 2.299 0 0 0-1.155 1.993v46.808a2.298 2.298 0 0 0 2.297 2.297h33.042v-15.473a2.297 2.297 0 0 0-2.315-2.297l-12.032.097a3.277 3.277 0 0 1-3.302-3.277v-17.365c0-1.043.558-2.007 1.462-2.526l16.187-9.29 16.225 9.291a2.911 2.911 0 0 1 1.465 2.527v38.313ZM757.138 384.962h-2.224v-38.313a2.912 2.912 0 0 0-1.465-2.527l-16.224-9.291-16.187 9.291a2.91 2.91 0 0 0-1.463 2.526v17.365a3.276 3.276 0 0 0 3.303 3.276l12.032-.096a2.297 2.297 0 0 1 2.315 2.297v15.472h-33.042a2.296 2.296 0 0 1-2.297-2.297v-46.807c0-.823.441-1.584 1.155-1.993l34.184-19.586 34.19 19.586a2.298 2.298 0 0 1 1.155 1.993v46.673a2.296 2.296 0 0 1-2.274 2.296l-13.158.135ZM1019.98 73.954h2.22l13.16-.134a2.294 2.294 0 0 0 2.27-2.297V24.85c0-.823-.44-1.584-1.15-1.993l-34.19-19.586-34.185 19.586a2.295 2.295 0 0 0-1.155 1.993v46.808a2.297 2.297 0 0 0 2.297 2.296h33.043V58.482a2.298 2.298 0 0 0-2.317-2.297l-12.031.096a3.277 3.277 0 0 1-3.303-3.276V35.64c0-1.043.558-2.007 1.463-2.526l16.188-9.29 16.22 9.29a2.909 2.909 0 0 1 1.47 2.528v38.312ZM805.672 402.633h2.224v38.313c0 1.044.559 2.008 1.465 2.527l16.224 9.291 16.187-9.29a2.913 2.913 0 0 0 1.463-2.526v-17.366a3.277 3.277 0 0 0-3.303-3.276l-12.031.096a2.297 2.297 0 0 1-2.316-2.296v-15.473h33.042a2.297 2.297 0 0 1 2.297 2.297v46.808c0 .823-.44 1.583-1.155 1.993l-34.184 19.586-34.189-19.587a2.294 2.294 0 0 1-1.155-1.993v-46.672a2.297 2.297 0 0 1 2.273-2.297l13.158-.135ZM1072.96 91.626h-2.22l-13.16.134a2.302 2.302 0 0 0-2.28 2.297v46.673c0 .823.44 1.583 1.16 1.993l34.19 19.586 34.18-19.586c.72-.41 1.16-1.17 1.16-1.993V93.923a2.299 2.299 0 0 0-2.3-2.297h-33.04v15.472a2.296 2.296 0 0 0 2.31 2.297l12.04-.097a3.275 3.275 0 0 1 3.3 3.277v17.365a2.92 2.92 0 0 1-1.46 2.526l-16.19 9.29-16.23-9.29a2.922 2.922 0 0 1-1.46-2.528V91.626ZM938.203 247.128h2.224v38.313c0 1.044.559 2.008 1.465 2.527l16.225 9.291 16.187-9.29a2.915 2.915 0 0 0 1.462-2.526v-17.366a3.277 3.277 0 0 0-3.302-3.276l-12.032.096a2.297 2.297 0 0 1-2.315-2.297v-15.472h33.042a2.298 2.298 0 0 1 2.297 2.297v46.807c0 .824-.441 1.584-1.155 1.993l-34.184 19.587-34.19-19.587a2.297 2.297 0 0 1-1.155-1.993V249.56a2.297 2.297 0 0 1 2.273-2.297l13.158-.135ZM1205.49-63.879h-2.22l-13.16.135a2.293 2.293 0 0 0-2.27 2.297v46.673c0 .823.44 1.583 1.15 1.993l34.19 19.586 34.18-19.586a2.29 2.29 0 0 0 1.16-1.993v-46.808a2.299 2.299 0 0 0-2.3-2.297h-33.04v15.473a2.298 2.298 0 0 0 2.32 2.297l12.03-.097a3.274 3.274 0 0 1 3.3 3.277v17.365a2.92 2.92 0 0 1-1.46 2.526l-16.19 9.29-16.22-9.29a2.909 2.909 0 0 1-1.47-2.528v-38.313Zm-50.76 604.345h-2.22v-38.312a2.91 2.91 0 0 0-1.47-2.528l-16.22-9.29-16.19 9.29a2.92 2.92 0 0 0-1.46 2.526v17.365c0 1.82 1.48 3.291 3.3 3.276l12.03-.096a2.298 2.298 0 0 1 2.32 2.297v15.472h-33.04c-1.27 0-2.3-1.028-2.3-2.297v-46.807c0-.823.44-1.584 1.16-1.993l34.18-19.586 34.19 19.586c.71.409 1.15 1.17 1.15 1.993v46.673a2.294 2.294 0 0 1-2.27 2.297l-13.16.134Zm262.84-311.007h2.23l13.15-.135a2.303 2.303 0 0 0 2.28-2.297v-46.673c0-.823-.44-1.583-1.16-1.993l-34.19-19.586-34.18 19.586c-.71.41-1.16 1.17-1.16 1.993v46.808a2.299 2.299 0 0 0 2.3 2.297h33.04v-15.473a2.297 2.297 0 0 0-2.31-2.297l-12.03.097a3.283 3.283 0 0 1-3.31-3.277v-17.365c0-1.043.56-2.007 1.47-2.526l16.18-9.29 16.23 9.291c.9.518 1.46 1.483 1.46 2.527v38.313Zm-130.31 155.503h-2.22v-38.313a2.92 2.92 0 0 0-1.46-2.527l-16.23-9.291-16.19 9.291a2.919 2.919 0 0 0-1.46 2.526v17.365c0 1.82 1.48 3.291 3.3 3.276l12.04-.096a2.296 2.296 0 0 1 2.31 2.297v15.472h-33.04c-1.27 0-2.3-1.028-2.3-2.297v-46.807c0-.823.44-1.584 1.16-1.993l34.18-19.586 34.19 19.586a2.29 2.29 0 0 1 1.16 1.993v46.673a2.301 2.301 0 0 1-2.28 2.296l-13.16.135ZM1550.1 73.954h2.23l13.16-.134a2.294 2.294 0 0 0 2.27-2.297V24.85a2.29 2.29 0 0 0-1.16-1.993l-34.19-19.586-34.18 19.586c-.71.41-1.15 1.17-1.15 1.993v46.808a2.29 2.29 0 0 0 2.29 2.296h33.04V58.482a2.29 2.29 0 0 0-2.31-2.297l-12.03.096a3.274 3.274 0 0 1-3.3-3.276V35.64a2.9 2.9 0 0 1 1.46-2.526l16.18-9.29 16.23 9.29a2.9 2.9 0 0 1 1.46 2.528v38.312Zm-391.01 328.679h2.22v38.313c0 1.044.56 2.008 1.47 2.527l16.22 9.291 16.19-9.29c.9-.52 1.46-1.483 1.46-2.526v-17.366c0-1.819-1.48-3.29-3.3-3.276l-12.03.096a2.297 2.297 0 0 1-2.32-2.296v-15.473h33.04c1.27 0 2.3 1.029 2.3 2.297v46.808c0 .823-.44 1.583-1.15 1.993L1179 473.317l-34.19-19.587a2.3 2.3 0 0 1-1.15-1.993v-46.672c0-1.26 1.01-2.284 2.27-2.297l13.16-.135Zm267.29-311.007h-2.23l-13.16.134a2.3 2.3 0 0 0-2.27 2.297v46.673c0 .823.44 1.583 1.16 1.993l34.19 19.586 34.18-19.586c.71-.41 1.16-1.17 1.16-1.993V93.923a2.299 2.299 0 0 0-2.3-2.297h-33.04v15.472a2.296 2.296 0 0 0 2.31 2.297l12.03-.097a3.283 3.283 0 0 1 3.31 3.277v17.365c0 1.043-.56 2.007-1.47 2.526l-16.18 9.29-16.23-9.29a2.922 2.922 0 0 1-1.46-2.528V91.626Zm-134.76 155.503h2.23v38.313a2.9 2.9 0 0 0 1.46 2.527l16.22 9.291 16.19-9.29a2.9 2.9 0 0 0 1.46-2.526v-17.366c0-1.819-1.48-3.29-3.3-3.276l-12.03.096a2.298 2.298 0 0 1-2.32-2.297v-15.472h33.05a2.29 2.29 0 0 1 2.29 2.297v46.807a2.3 2.3 0 0 1-1.15 1.993l-34.19 19.587-34.18-19.587a2.289 2.289 0 0 1-1.16-1.993v-46.672c0-1.26 1.01-2.284 2.27-2.297l13.16-.135Zm267.29-311.008h-2.23l-13.15.135a2.302 2.302 0 0 0-2.28 2.297v46.673c0 .823.44 1.583 1.16 1.993l34.19 19.586 34.18-19.586a2.29 2.29 0 0 0 1.16-1.993v-46.808a2.299 2.299 0 0 0-2.3-2.297h-33.04v15.473a2.296 2.296 0 0 0 2.31 2.297l12.03-.097a3.283 3.283 0 0 1 3.31 3.277v17.365c0 1.043-.56 2.007-1.47 2.526l-16.18 9.29-16.23-9.29a2.92 2.92 0 0 1-1.46-2.528v-38.313ZM801.316 540.466h-2.224v-38.312a2.913 2.913 0 0 0-1.465-2.528l-16.225-9.29-16.186 9.29a2.912 2.912 0 0 0-1.463 2.526v17.365a3.276 3.276 0 0 0 3.302 3.276l12.032-.096a2.297 2.297 0 0 1 2.315 2.297v15.472H748.36a2.296 2.296 0 0 1-2.296-2.297v-46.807c0-.823.44-1.584 1.155-1.993l34.183-19.586 34.19 19.586a2.298 2.298 0 0 1 1.155 1.993v46.673a2.297 2.297 0 0 1-2.273 2.297l-13.158.134Zm262.834-311.007h2.23l13.16-.135a2.294 2.294 0 0 0 2.27-2.297v-46.673c0-.823-.44-1.583-1.16-1.993l-34.18-19.586-34.19 19.586c-.71.41-1.15 1.17-1.15 1.993v46.808a2.29 2.29 0 0 0 2.29 2.297h33.05v-15.473a2.299 2.299 0 0 0-2.32-2.297l-12.03.097a3.275 3.275 0 0 1-3.3-3.277v-17.365c0-1.043.55-2.007 1.46-2.526l16.19-9.29 16.22 9.291a2.898 2.898 0 0 1 1.46 2.527v38.313ZM933.847 384.962h-2.224v-38.313a2.912 2.912 0 0 0-1.465-2.527l-16.224-9.291-16.187 9.291a2.91 2.91 0 0 0-1.463 2.526v17.365a3.276 3.276 0 0 0 3.303 3.276l12.032-.096a2.297 2.297 0 0 1 2.315 2.297v15.472h-33.042a2.296 2.296 0 0 1-2.297-2.297v-46.807c0-.823.44-1.584 1.155-1.993l34.184-19.586 34.189 19.586a2.296 2.296 0 0 1 1.155 1.993v46.673a2.296 2.296 0 0 1-2.273 2.296l-13.158.135ZM1196.69 73.954h2.22l13.16-.134a2.294 2.294 0 0 0 2.27-2.297V24.85c0-.823-.44-1.584-1.15-1.993L1179 3.271l-34.19 19.586c-.71.41-1.15 1.17-1.15 1.993v46.807a2.299 2.299 0 0 0 2.3 2.297H1179V58.482a2.298 2.298 0 0 0-2.32-2.297l-12.03.096a3.274 3.274 0 0 1-3.3-3.276V35.64a2.92 2.92 0 0 1 1.46-2.526l16.19-9.29 16.22 9.29a2.909 2.909 0 0 1 1.47 2.528v38.312Zm227.46 328.679h2.23v38.313a2.92 2.92 0 0 0 1.46 2.527l16.23 9.291 16.18-9.29a2.91 2.91 0 0 0 1.47-2.526v-17.366c0-1.819-1.49-3.29-3.31-3.276l-12.03.096a2.295 2.295 0 0 1-2.31-2.296v-15.473h33.04c1.27 0 2.3 1.029 2.3 2.297v46.808c0 .823-.45 1.583-1.16 1.993l-34.18 19.586-34.19-19.587a2.289 2.289 0 0 1-1.16-1.993v-46.672a2.3 2.3 0 0 1 2.27-2.297l13.16-.135Zm267.29-311.007h-2.22l-13.16.134a2.293 2.293 0 0 0-2.27 2.297v46.673c0 .823.44 1.583 1.15 1.993l34.19 19.586 34.18-19.586c.72-.41 1.16-1.17 1.16-1.993V93.922a2.299 2.299 0 0 0-2.3-2.296h-33.04v15.472a2.298 2.298 0 0 0 2.32 2.297l12.03-.097a3.275 3.275 0 0 1 3.3 3.277v17.365a2.92 2.92 0 0 1-1.46 2.526l-16.19 9.29-16.22-9.29a2.91 2.91 0 0 1-1.47-2.528V91.626Zm-134.76 155.503h2.23v38.313a2.92 2.92 0 0 0 1.46 2.527l16.23 9.291 16.18-9.29a2.91 2.91 0 0 0 1.47-2.526v-17.366c0-1.819-1.49-3.29-3.31-3.276l-12.03.096a2.295 2.295 0 0 1-2.31-2.297v-15.472h33.04c1.27 0 2.3 1.029 2.3 2.297v46.807c0 .824-.44 1.584-1.16 1.993l-34.18 19.587-34.19-19.587a2.289 2.289 0 0 1-1.16-1.993v-46.672c0-1.26 1.02-2.284 2.28-2.297l13.15-.135Zm267.29-311.008h-2.22l-13.16.135a2.293 2.293 0 0 0-2.27 2.297v46.673c0 .823.44 1.583 1.15 1.993l34.19 19.586 34.19-19.586c.71-.41 1.15-1.17 1.15-1.993v-46.808a2.299 2.299 0 0 0-2.3-2.297h-33.04v15.473a2.298 2.298 0 0 0 2.32 2.297l12.03-.097a3.274 3.274 0 0 1 3.3 3.277v17.365a2.92 2.92 0 0 1-1.46 2.526l-16.19 9.29-16.22-9.29a2.909 2.909 0 0 1-1.47-2.528v-38.313ZM799.092 229.46h2.224l13.158-.135a2.297 2.297 0 0 0 2.273-2.297v-46.673c0-.823-.441-1.583-1.155-1.993l-34.19-19.586-34.183 19.586a2.297 2.297 0 0 0-1.155 1.993v46.808a2.297 2.297 0 0 0 2.296 2.297h33.042v-15.473a2.297 2.297 0 0 0-2.315-2.297l-12.032.097a3.277 3.277 0 0 1-3.302-3.277v-17.365c0-1.043.558-2.007 1.463-2.526l16.186-9.29 16.225 9.291a2.911 2.911 0 0 1 1.465 2.527v38.313ZM668.784 384.962h-2.224v-38.313a2.912 2.912 0 0 0-1.465-2.527l-16.225-9.291-16.187 9.291a2.912 2.912 0 0 0-1.462 2.526v17.365a3.276 3.276 0 0 0 3.302 3.276l12.032-.096a2.297 2.297 0 0 1 2.315 2.297v15.472h-33.042a2.297 2.297 0 0 1-2.297-2.297v-46.807c0-.823.441-1.584 1.155-1.993l34.184-19.586 34.19 19.586a2.298 2.298 0 0 1 1.155 1.993v46.673a2.296 2.296 0 0 1-2.274 2.296l-13.157.135ZM931.623 73.954h2.224l13.158-.134a2.297 2.297 0 0 0 2.273-2.297V24.85c0-.823-.44-1.584-1.155-1.993L913.934 3.271 879.75 22.857a2.295 2.295 0 0 0-1.155 1.993v46.808a2.297 2.297 0 0 0 2.297 2.296h33.042V58.482a2.297 2.297 0 0 0-2.315-2.297l-12.032.096a3.277 3.277 0 0 1-3.303-3.276V35.64c0-1.043.558-2.007 1.463-2.526l16.187-9.29 16.224 9.29a2.912 2.912 0 0 1 1.465 2.528v38.312Z" fill="url(#b)"/></g><defs><linearGradient id="b" x1="723" y1="514" x2="1633" y2="153" gradientUnits="userSpaceOnUse"><stop stop-color="#101828"/><stop offset=".551" stop-color="#313D55"/><stop offset="1" stop-color="#616D83"/></linearGradient></defs></svg>