<svg width="463" height="465" viewBox="0 0 463 465" fill="none" xmlns="http://www.w3.org/2000/svg">
<g clip-path="url(#clip0_2713_116)">
<path d="M186 324.815C239.572 324.815 283 281.387 283 227.815C283 174.243 239.572 130.815 186 130.815C132.428 130.815 89 174.243 89 227.815C89 281.387 132.428 324.815 186 324.815Z" fill="#F4F8FF"/>
<g filter="url(#filter0_d_2713_116)">
<path d="M374 45.815H161C158.791 45.815 157 47.6059 157 49.815V337.815C157 340.024 158.791 341.815 161 341.815H374C376.209 341.815 378 340.024 378 337.815V49.815C378 47.6059 376.209 45.815 374 45.815Z" fill="white"/>
<path fill-rule="evenodd" clip-rule="evenodd" d="M325.793 59.6843L325.828 63.5821C325.832 64.2433 325.892 64.6387 326.008 64.7681C326.123 64.9022 326.475 64.9831 327.062 65.0109L327.381 65.0178V65.4756L323.039 65.5102L323.032 65.0525L323.171 65.0456C323.761 65.0039 324.114 64.9138 324.225 64.782C324.329 64.6502 324.385 64.2618 324.378 63.596L324.343 59.4277C324.336 58.7618 324.281 58.3665 324.17 58.2416C324.059 58.1168 323.705 58.0359 323.109 57.9989L322.97 57.985V57.5342L325.772 57.5134L325.786 59.0115C326.438 57.8833 327.298 57.3146 328.366 57.3053C328.514 57.3053 328.678 57.3308 328.858 57.3816L328.879 59.5594L328.061 59.5733L328.054 59.4346C327.994 58.9815 327.943 58.7133 327.901 58.63C327.86 58.5422 327.749 58.4983 327.568 58.4983C326.842 58.5075 326.251 58.9029 325.793 59.6843ZM336.127 65.0386C335.207 65.4085 334.368 65.5958 333.609 65.6004C332.44 65.6143 331.485 65.2282 330.745 64.4422C330.005 63.6607 329.631 62.6412 329.621 61.3835C329.614 60.1836 329.933 59.2057 330.579 58.4358C331.23 57.6637 332.07 57.273 333.096 57.2637C334.049 57.2545 334.784 57.5689 335.302 58.207C335.815 58.8404 336.079 59.7513 336.092 60.9396V61.0783L331.224 61.12C331.233 62.3638 331.457 63.3024 331.896 63.9358C332.333 64.5601 332.978 64.8722 333.831 64.8652C334.726 64.8583 335.489 64.671 336.12 64.2965L336.127 65.0386ZM331.251 60.6761L334.553 60.6483L334.56 60.3224C334.55 59.3976 334.423 58.7295 334.178 58.3179C333.935 57.9087 333.547 57.7076 332.999 57.7145C332.453 57.7192 332.023 57.9897 331.709 58.526C331.395 59.0624 331.242 59.7791 331.251 60.6761ZM343.645 64.9762C342.723 65.3438 341.891 65.5311 341.128 65.538C339.958 65.5472 339.003 65.1612 338.263 64.3797C337.528 63.5983 337.154 62.5765 337.14 61.3142C337.13 60.1212 337.452 59.1387 338.104 58.3665C338.749 57.5966 339.588 57.2082 340.614 57.2013C341.567 57.192 342.302 57.5065 342.82 58.1445C343.333 58.7757 343.597 59.6912 343.611 60.8772V61.0159L338.742 61.0575C338.751 62.3013 338.975 63.2377 339.415 63.8665C339.852 64.4976 340.497 64.8097 341.35 64.8028C342.247 64.7982 343.01 64.6086 343.638 64.2341L343.645 64.9762ZM338.763 60.6067L342.071 60.579L342.078 60.253C342.064 59.3306 341.939 58.6647 341.696 58.2555C341.454 57.8463 341.058 57.6452 340.517 57.6452C339.972 57.6544 339.542 57.9272 339.227 58.4636C338.908 58.9976 338.756 59.712 338.763 60.6067ZM346.988 58.8173C347.349 58.2578 347.767 57.8371 348.244 57.555C348.725 57.2683 349.261 57.125 349.853 57.125C350.542 57.1158 351.083 57.3354 351.476 57.7839C351.864 58.2324 352.063 58.852 352.072 59.6427L352.1 63.3602C352.142 64.0884 352.204 64.4976 352.28 64.5947C352.363 64.6849 352.71 64.7473 353.341 64.7889L353.473 64.7959L353.48 65.2467L349.312 65.2883V64.8305L349.444 64.8236C350.068 64.7728 350.419 64.7011 350.498 64.6086C350.574 64.5115 350.63 64.1023 350.657 63.3741L350.63 59.8785C350.62 59.1895 350.526 58.7133 350.345 58.4497C350.165 58.1862 349.844 58.0544 349.381 58.0544C349.062 58.0613 348.695 58.1654 348.299 58.3734C347.897 58.5746 347.467 58.8936 346.988 59.3028L347.03 63.4018C347.037 64.0676 347.092 64.463 347.196 64.5878C347.303 64.7173 347.656 64.7982 348.258 64.8305L348.396 64.8375L348.403 65.2952L344.235 65.3299V64.8722L344.374 64.8652C344.965 64.819 345.317 64.7311 345.428 64.6017C345.534 64.4722 345.585 64.0769 345.58 63.4157L345.546 59.2404C345.539 58.5815 345.483 58.1862 345.365 58.0613C345.254 57.9365 344.903 57.8533 344.311 57.8116L344.172 57.8047V57.3539L346.974 57.3331L346.988 58.8173ZM322.103 59.2543C322.505 59.8993 322.665 60.6137 322.651 61.3696C322.644 62.0701 322.519 62.7568 322.193 63.3741C321.687 64.3451 320.938 65.0664 319.904 65.4617C319.787 65.5033 319.676 65.5657 319.551 65.5727C319.502 65.5796 319.44 65.5935 319.447 65.649C319.447 65.7044 319.509 65.7114 319.558 65.7183C320.251 65.8432 320.855 66.1691 321.458 66.5159C321.486 66.5367 321.527 66.5437 321.514 66.6061C321.403 66.613 321.306 66.5367 321.201 66.509C320.688 66.3633 320.161 66.287 319.634 66.2316C318.94 66.1553 318.24 66.1553 317.539 66.0928C316.575 66.0166 315.653 65.7738 314.821 65.2606C314.127 64.8375 313.558 64.2826 313.191 63.5544C312.899 62.9787 312.802 62.3476 312.837 61.6956C312.886 60.7246 313.205 59.8577 313.794 59.0947C314.724 57.9018 315.951 57.229 317.47 57.1042C318.039 57.0556 318.601 57.0626 319.155 57.1736C319.835 57.3053 320.459 57.5828 321.021 58.0058C321.208 58.1445 321.389 58.2971 321.534 58.4775L322.103 59.2543ZM320.418 61.6609C320.425 60.5928 320.286 59.6704 319.78 58.8381C319.481 58.3387 319.1 57.9087 318.545 57.7145C317.699 57.4232 316.908 57.5689 316.229 58.1515C315.57 58.7133 315.258 59.4831 315.133 60.3154C314.994 61.3142 315.001 62.3129 315.299 63.2908C315.424 63.6931 315.604 64.0607 315.896 64.3728C316.312 64.8167 316.825 65.108 317.408 65.2814C317.942 65.434 318.462 65.4201 318.933 65.1149C319.696 64.6225 320.147 63.8942 320.321 62.9995C320.411 62.521 320.445 62.0355 320.418 61.6609Z" fill="#92CD55"/>
<path fill-rule="evenodd" clip-rule="evenodd" d="M322.637 70.5872C322.505 70.3583 322.345 70.2265 322.179 70.1086C321.818 69.8659 321.423 69.7063 321.007 69.5815C320.32 69.3804 319.613 69.2971 318.905 69.2625C318.219 69.2278 317.539 69.2625 316.866 69.3665C316.131 69.4775 315.417 69.6647 314.772 70.0601C314.189 70.4138 313.759 70.8854 313.724 71.6067C313.69 72.2656 313.919 72.8343 314.39 73.306C314.82 73.729 315.354 73.9718 315.923 74.1591C317.04 74.5128 318.184 74.4712 319.322 74.3116C320.14 74.2007 320.931 73.9649 321.645 73.5279C322.179 73.195 322.588 72.7442 322.859 72.1685C323.067 71.7385 323.178 71.2877 323.164 70.8022C323.143 69.9352 322.748 69.3041 321.999 68.8879C321.52 68.6244 320.993 68.4787 320.459 68.3608C319.315 68.1111 318.149 68.0626 316.991 67.9239C315.972 67.806 315.014 67.5008 314.238 66.7864C313.815 66.398 313.502 65.9333 313.308 65.3854C313.204 65.0802 313.121 64.7751 313.052 64.463C313.038 64.3867 313.017 64.3104 313.038 64.2341C313.093 64.2133 313.107 64.2549 313.121 64.2826C313.586 65.2744 314.342 65.9403 315.368 66.294C316.013 66.5159 316.686 66.5922 317.366 66.62C318.448 66.6685 319.53 66.6893 320.598 66.8835C321.596 67.0639 322.56 67.3413 323.434 67.8823C324.059 68.2707 324.558 68.7839 324.815 69.4705C325.175 70.4346 325.043 71.357 324.447 72.1893C323.726 73.195 322.748 73.8539 321.603 74.2839C320.57 74.6792 319.502 74.8873 318.406 74.9705C317.588 75.0399 316.769 74.9775 315.958 74.8804C315.202 74.7902 314.453 74.6237 313.759 74.2839C313.156 73.9926 312.629 73.6042 312.31 73.0008C311.817 72.0437 311.866 70.7467 312.795 69.9005C313.385 69.3665 314.085 69.0405 314.841 68.7908C316.131 68.3678 317.449 68.4371 318.767 68.5481C319.453 68.6036 320.14 68.7145 320.806 68.9157C321.354 69.0891 321.888 69.3041 322.304 69.7202C322.526 69.9422 322.678 70.2889 322.637 70.5872ZM359.569 64.9277C358.806 65.2375 358.062 65.3947 357.336 65.3993C356.171 65.4085 355.221 65.0271 354.485 64.2549C353.755 63.4827 353.385 62.4724 353.376 61.224C353.366 59.9756 353.706 58.9722 354.395 58.2139C355.089 57.451 356.016 57.0649 357.176 57.0557C357.768 57.051 358.545 57.1666 359.507 57.4024L359.521 59.3028L358.619 59.3098L358.612 59.178C358.603 58.0821 358.115 57.5365 357.149 57.5412C356.446 57.5504 355.891 57.8741 355.484 58.5122C355.075 59.1572 354.881 60.0172 354.888 61.1061C354.895 62.2227 355.144 63.0966 355.644 63.7347C356.136 64.3728 356.809 64.6849 357.648 64.678C358.374 64.6734 359.012 64.5462 359.562 64.2965L359.569 64.9277ZM364.417 65.3369C363.243 65.3461 362.311 64.9808 361.622 64.241C360.936 63.4989 360.589 62.4863 360.575 61.1963C360.566 59.9062 360.899 58.8867 361.574 58.1376C362.244 57.3886 363.169 57.0094 364.348 57.0002C365.527 56.9909 366.459 57.3539 367.143 58.0891C367.827 58.8289 368.174 59.8438 368.183 61.1338C368.197 62.4239 367.867 63.4434 367.192 64.1925C366.517 64.9462 365.592 65.3276 364.417 65.3369ZM364.41 64.893C365.062 64.8837 365.601 64.5277 366.026 63.8249C366.449 63.1174 366.658 62.2227 366.651 61.1477C366.644 60.0866 366.415 59.1988 365.985 58.4983C365.546 57.7908 365 57.4394 364.348 57.4441C363.701 57.4487 363.164 57.807 362.739 58.5191C362.309 59.2358 362.101 60.1259 362.115 61.1893C362.122 62.2644 362.344 63.1521 362.781 63.8526C363.215 64.5508 363.758 64.8976 364.41 64.893Z" fill="#1C1E26"/>
<path fill-rule="evenodd" clip-rule="evenodd" d="M327.506 70.2404L327.513 70.823C327.513 70.9849 327.527 71.082 327.554 71.1143C327.582 71.149 327.665 71.1698 327.811 71.1768H327.846V71.3501L326.701 71.3571V71.1906L326.736 71.1837C326.854 71.1768 326.93 71.1559 326.951 71.1213C326.979 71.0866 326.986 70.9895 326.986 70.823L326.972 69.1793C326.965 69.0128 326.958 68.9157 326.937 68.888C326.909 68.851 326.835 68.8302 326.715 68.8256L326.68 68.8186V68.6522L327.492 68.6452L327.832 68.6314L327.984 68.6244C328.505 68.6244 328.761 68.8602 328.768 69.3388C328.768 69.637 328.685 69.859 328.498 70.0116C328.317 70.1595 328.042 70.2358 327.672 70.2404H327.506ZM327.499 70.0601H327.61C327.811 70.0601 327.964 69.9977 328.061 69.8867C328.158 69.7757 328.213 69.6024 328.206 69.3804C328.206 69.0059 328.033 68.8186 327.686 68.8186H327.492L327.499 70.0601ZM330.287 70.1433L330.294 70.8022C330.299 70.9594 330.31 71.0565 330.329 71.0935C330.352 71.1305 330.412 71.1513 330.509 71.1559H330.544V71.3293L329.489 71.3363V71.1629H329.517C329.642 71.1559 329.711 71.1351 329.732 71.1005C329.76 71.0658 329.767 70.9687 329.767 70.8022L329.753 69.1515C329.753 68.992 329.739 68.8949 329.718 68.8602C329.691 68.8256 329.621 68.8117 329.503 68.7978H329.469L329.462 68.6314L330.231 68.6175L330.557 68.6106L330.717 68.6036C331.263 68.599 331.538 68.8256 331.542 69.2833C331.542 69.4729 331.501 69.6301 331.417 69.7549C331.334 69.8867 331.209 69.9838 331.043 70.0601L331.563 70.7953C331.693 70.9664 331.774 71.0658 331.806 71.0935C331.843 71.1213 331.91 71.1375 332.007 71.1421H332.042V71.3155H331.258L330.516 70.1364L330.287 70.1433ZM330.287 69.9699H330.384C330.571 69.963 330.717 69.9075 330.828 69.7896C330.934 69.6786 330.987 69.5237 330.987 69.3249C330.981 68.9781 330.814 68.8047 330.474 68.8047H330.273L330.287 69.9699ZM334.067 71.371C333.651 71.3756 333.322 71.253 333.082 71.0034C332.842 70.7491 332.719 70.4023 332.714 69.963C332.708 69.5261 332.825 69.1793 333.061 68.9227C333.297 68.6637 333.623 68.5343 334.039 68.5343C334.455 68.5273 334.781 68.6522 335.024 68.9019C335.26 69.1515 335.385 69.4983 335.392 69.9422C335.392 70.3792 335.281 70.7259 335.038 70.9826C334.802 71.2392 334.476 71.371 334.067 71.371ZM334.067 71.1976C334.317 71.1929 334.504 71.0866 334.629 70.8785C334.754 70.6704 334.814 70.3583 334.809 69.9422C334.802 69.5261 334.74 69.2209 334.615 69.0128C334.485 68.8094 334.296 68.7077 334.046 68.7077C333.789 68.7146 333.602 68.8186 333.477 69.0267C333.353 69.2301 333.292 69.5399 333.297 69.9561C333.302 70.3676 333.369 70.6774 333.498 70.8855C333.623 71.0935 333.81 71.1976 334.067 71.1976ZM336.966 70.1711L336.973 70.7537C336.973 70.9155 336.987 71.0126 337.015 71.045C337.042 71.0797 337.126 71.1005 337.271 71.1074H337.306V71.2808L336.168 71.2877L336.162 71.1213L336.196 71.1143C336.321 71.1074 336.39 71.0866 336.411 71.0519C336.439 71.0172 336.446 70.9201 336.446 70.7537L336.432 69.1099C336.432 68.9435 336.42 68.8441 336.397 68.8117C336.37 68.7839 336.3 68.7631 336.175 68.7562L336.141 68.7493V68.5828L336.952 68.5759L337.299 68.562L337.445 68.5551C337.965 68.5551 338.228 68.7909 338.228 69.2694C338.233 69.5654 338.143 69.7873 337.958 69.9353C337.773 70.0879 337.498 70.1665 337.132 70.1711H336.966ZM336.966 69.9908H337.07C337.274 69.9861 337.424 69.9283 337.521 69.8174C337.625 69.7064 337.673 69.5399 337.673 69.3111C337.669 68.9319 337.493 68.7446 337.146 68.7493H336.952L336.966 69.9908ZM340.968 71.2461L338.957 71.2669V71.0935H338.991C339.109 71.0866 339.179 71.0588 339.206 71.0311C339.229 70.9941 339.241 70.8947 339.241 70.7329L339.227 69.0822C339.22 68.9227 339.213 68.8256 339.185 68.7978C339.165 68.7631 339.088 68.7354 338.97 68.7285H338.936V68.5551L340.871 68.5412V69.0267H340.607V68.992C340.603 68.9319 340.6 68.8972 340.6 68.888C340.6 68.8186 340.584 68.7747 340.552 68.7562C340.519 68.7331 340.448 68.7238 340.337 68.7285H339.775L339.782 69.7619L340.15 69.7549C340.288 69.7549 340.369 69.7503 340.392 69.7411C340.413 69.7341 340.427 69.6786 340.427 69.5746V69.5399H340.614L340.621 70.1225H340.434L340.427 70.0948C340.427 69.9977 340.411 69.9422 340.378 69.9283C340.346 69.9191 340.27 69.9145 340.15 69.9145H339.775V70.7329C339.78 70.9317 339.805 71.038 339.851 71.0519C339.886 71.0588 339.983 71.0658 340.136 71.0658L340.358 71.0588C340.538 71.0588 340.635 71.0519 340.656 71.0311C340.677 71.0172 340.691 70.9271 340.704 70.7745V70.7398H340.968V71.2461ZM342.501 70.0462V70.7051C342.505 70.867 342.517 70.9664 342.535 71.0034C342.559 71.0357 342.619 71.0542 342.716 71.0588H342.75V71.2322L341.696 71.2392V71.0727L341.724 71.0658C341.849 71.0588 341.918 71.038 341.946 71.0103C341.969 70.9733 341.978 70.8739 341.974 70.7121L341.96 69.0614C341.96 68.9019 341.946 68.8047 341.925 68.7701C341.902 68.7377 341.83 68.7169 341.71 68.7077H341.675V68.5343L342.438 68.5273L342.764 68.5204L342.931 68.5135C343.472 68.5088 343.745 68.7354 343.749 69.1931C343.754 69.3781 343.714 69.5353 343.631 69.6648C343.548 69.7942 343.421 69.896 343.25 69.9699L343.77 70.6982C343.902 70.8716 343.978 70.9756 344.02 71.0034C344.052 71.0311 344.117 71.045 344.214 71.045L344.249 71.0519V71.2184L343.465 71.2253L342.723 70.0462H342.501ZM342.501 69.8659H342.598C342.785 69.8659 342.931 69.8035 343.042 69.6925C343.148 69.5769 343.201 69.422 343.201 69.2278C343.197 68.8764 343.026 68.7007 342.688 68.7007L342.487 68.7077L342.501 69.8659ZM345.809 68.673L345.379 68.6799C345.268 68.6799 345.196 68.6961 345.164 68.7285C345.132 68.7608 345.115 68.8556 345.115 69.0128V69.0683H344.852V68.5065L347.314 68.4857V69.0475H347.057L347.051 68.9989C347.051 68.8371 347.034 68.7423 347.002 68.7146C346.97 68.6822 346.898 68.666 346.787 68.666L346.357 68.673L346.371 70.6704C346.385 70.8508 346.401 70.9525 346.419 70.9756C346.433 70.9964 346.523 71.0172 346.676 71.0242H346.704L346.711 71.1976L345.497 71.2045V71.0311H345.532C345.675 71.0219 345.76 71.0011 345.788 70.9687C345.816 70.934 345.83 70.8369 345.823 70.6704L345.809 68.673ZM348.972 70.0046L348.361 69.0198C348.292 68.9018 348.243 68.8256 348.237 68.8117C348.195 68.7354 348.167 68.6868 348.146 68.6799C348.123 68.666 348.063 68.6568 347.966 68.6522L347.931 68.6452L347.924 68.4788L349.069 68.4718V68.6383H349.041C348.909 68.6383 348.833 68.6591 348.833 68.7007C348.833 68.7354 348.882 68.8464 348.986 69.0128L349.443 69.7688L349.894 69.0059C349.996 68.8394 350.047 68.7377 350.047 68.7007C350.047 68.6522 349.984 68.6314 349.873 68.6314H349.832V68.4649L350.553 68.458V68.6244L350.525 68.6314C350.421 68.6383 350.359 68.6522 350.345 68.666C350.331 68.6799 350.262 68.7909 350.13 69.0059L349.52 69.9977L349.527 70.6427C349.531 70.8045 349.543 70.9016 349.561 70.934C349.589 70.9687 349.658 70.9895 349.783 70.9964H349.818V71.1698L348.694 71.1768V71.0034H348.729C348.849 70.9941 348.921 70.9733 348.944 70.9409C348.965 70.9063 348.979 70.8092 348.979 70.6427L348.972 70.0046ZM355.207 71.0658C354.846 71.149 354.548 71.1929 354.312 71.1976C353.896 71.1976 353.556 71.0797 353.313 70.823C353.064 70.5687 352.937 70.2243 352.932 69.7896C352.927 69.3365 353.048 68.9851 353.293 68.7354C353.533 68.4857 353.875 68.3609 354.319 68.3609C354.597 68.3539 354.888 68.3955 355.186 68.4649V68.9989L354.923 69.0059V68.9712C354.923 68.8232 354.902 68.7308 354.86 68.6938C354.749 68.5897 354.569 68.5343 354.319 68.5343C354.049 68.5412 353.847 68.6452 353.716 68.8533C353.584 69.0614 353.515 69.3735 353.522 69.7827C353.522 70.1942 353.596 70.504 353.743 70.7121C353.891 70.9155 354.109 71.0172 354.395 71.0172C354.479 71.0172 354.566 71.0011 354.659 70.9687L354.652 70.4624C354.652 70.3005 354.64 70.2034 354.617 70.1711C354.59 70.1364 354.52 70.1156 354.395 70.1156L354.368 70.1087L354.361 69.9353L355.484 69.9283V70.1017H355.457C355.332 70.1087 355.262 70.1295 355.235 70.1641C355.212 70.1965 355.2 70.2959 355.2 70.4624L355.207 71.0658ZM356.982 69.9145V70.5733C356.987 70.7352 357.001 70.8346 357.024 70.8716C357.038 70.9063 357.1 70.9201 357.197 70.9271H357.232V71.1005L356.178 71.1074V70.9409L356.213 70.934C356.333 70.9248 356.404 70.904 356.428 70.8716C356.448 70.8369 356.462 70.7398 356.462 70.5803L356.448 68.9296C356.441 68.7701 356.428 68.666 356.407 68.6314C356.386 68.6036 356.31 68.5828 356.192 68.5759H356.157V68.4025L356.927 68.3955L357.253 68.3817H357.412C357.958 68.3724 358.231 68.5967 358.231 69.0544C358.235 69.244 358.196 69.4035 358.113 69.533C358.03 69.6625 357.903 69.7619 357.731 69.8312L358.252 70.5664C358.381 70.7421 358.462 70.8415 358.494 70.8646C358.529 70.8924 358.598 70.9132 358.702 70.9132H358.73L358.737 71.0866L357.946 71.0935L357.204 69.9145H356.982ZM356.982 69.7341H357.08C357.274 69.7272 357.419 69.6717 357.523 69.5538C357.634 69.4428 357.688 69.2879 357.683 69.0891C357.683 68.7423 357.514 68.5689 357.177 68.5689H356.975L356.982 69.7341ZM360.762 71.1351C360.346 71.1398 360.018 71.0172 359.778 70.7675C359.537 70.5132 359.415 70.1665 359.41 69.7272C359.403 69.2902 359.521 68.9435 359.757 68.6868C359.993 68.4302 360.318 68.2984 360.735 68.2984C361.146 68.2938 361.474 68.4164 361.719 68.666C361.955 68.9227 362.08 69.2694 362.08 69.7064C362.085 70.1456 361.969 70.4924 361.733 70.7467C361.498 71.0057 361.174 71.1351 360.762 71.1351ZM360.755 70.9617C361.01 70.9571 361.199 70.8508 361.324 70.6427C361.442 70.4346 361.504 70.1225 361.504 69.7064C361.5 69.2902 361.433 68.9805 361.303 68.777C361.179 68.5759 360.991 68.4718 360.735 68.4788C360.485 68.4788 360.298 68.5828 360.173 68.7909C360.048 68.9943 359.988 69.3041 359.993 69.7203C359.993 70.1364 360.062 70.4416 360.187 70.6496C360.316 70.8577 360.506 70.9617 360.755 70.9617ZM362.795 68.347L363.918 68.3401V68.5065H363.883C363.759 68.5204 363.689 68.5412 363.668 68.5759C363.645 68.6082 363.634 68.7053 363.634 68.8672L363.648 70.0393C363.648 70.3653 363.696 70.5942 363.786 70.7259C363.874 70.8646 364.024 70.9317 364.237 70.9271C364.466 70.9271 364.632 70.8508 364.73 70.7051C364.836 70.5618 364.887 70.3306 364.882 70.0116L364.868 68.8602C364.868 68.6984 364.857 68.6013 364.834 68.5689C364.811 68.5319 364.739 68.5111 364.619 68.5065L364.584 68.4996V68.3331L365.409 68.3262L365.416 68.4926L365.382 68.4996C365.261 68.5088 365.19 68.5296 365.167 68.562C365.143 68.5944 365.134 68.6915 365.139 68.8533L365.146 69.9699C365.15 70.3583 365.072 70.645 364.91 70.83C364.757 71.0103 364.508 71.1074 364.168 71.1074C363.46 71.112 363.102 70.7491 363.093 70.0185L363.086 68.888C363.086 68.7215 363.072 68.6244 363.044 68.5897C363.021 68.5574 362.949 68.5366 362.829 68.5273H362.795V68.347ZM366.942 69.9075V70.4901C366.942 70.652 366.956 70.7491 366.984 70.7814C367.011 70.8138 367.097 70.8323 367.24 70.8369L367.275 70.8438V71.0103L366.138 71.0242L366.131 70.8508H366.165C366.29 70.8369 366.359 70.8161 366.38 70.7884C366.408 70.7514 366.42 70.652 366.415 70.4901L366.401 68.8464C366.401 68.6799 366.39 68.5805 366.366 68.5481C366.343 68.5158 366.272 68.4973 366.151 68.4926L366.117 68.4857L366.11 68.3123H366.928L367.268 68.2984L367.414 68.2915C367.932 68.2869 368.193 68.5227 368.197 68.9989C368.202 69.2949 368.112 69.5191 367.927 69.6717C367.747 69.8243 367.471 69.9029 367.102 69.9075H366.942ZM366.942 69.7272L367.046 69.7203C367.25 69.7203 367.4 69.6648 367.497 69.5538C367.599 69.4382 367.65 69.2694 367.65 69.0475C367.645 68.6683 367.469 68.4811 367.122 68.4857H366.928L366.942 69.7272Z" fill="#1C1E26"/>
</g>
<path d="M260 74.815H182C180.895 74.815 180 75.7104 180 76.815V79.815C180 80.9196 180.895 81.815 182 81.815H260C261.105 81.815 262 80.9196 262 79.815V76.815C262 75.7104 261.105 74.815 260 74.815Z" fill="#B9BDC4"/>
<path d="M203.5 110.815H181.5C180.672 110.815 180 111.487 180 112.315C180 113.143 180.672 113.815 181.5 113.815H203.5C204.328 113.815 205 113.143 205 112.315C205 111.487 204.328 110.815 203.5 110.815Z" fill="#B9BDC4"/>
<path d="M227.5 110.815H212.5C211.672 110.815 211 111.487 211 112.315C211 113.143 211.672 113.815 212.5 113.815H227.5C228.328 113.815 229 113.143 229 112.315C229 111.487 228.328 110.815 227.5 110.815Z" fill="#B9BDC4"/>
<path d="M242.5 110.815H236.5C235.672 110.815 235 111.487 235 112.315C235 113.143 235.672 113.815 236.5 113.815H242.5C243.328 113.815 244 113.143 244 112.315C244 111.487 243.328 110.815 242.5 110.815Z" fill="#B9BDC4"/>
<path d="M306.5 110.815H251.5C250.672 110.815 250 111.487 250 112.315C250 113.143 250.672 113.815 251.5 113.815H306.5C307.328 113.815 308 113.143 308 112.315C308 111.487 307.328 110.815 306.5 110.815Z" fill="#B9BDC4"/>
<path d="M329.5 110.815H315.5C314.672 110.815 314 111.487 314 112.315C314 113.143 314.672 113.815 315.5 113.815H329.5C330.328 113.815 331 113.143 331 112.315C331 111.487 330.328 110.815 329.5 110.815Z" fill="#B9BDC4"/>
<path d="M348.5 110.815H338.5C337.672 110.815 337 111.487 337 112.315C337 113.143 337.672 113.815 338.5 113.815H348.5C349.328 113.815 350 113.143 350 112.315C350 111.487 349.328 110.815 348.5 110.815Z" fill="#B9BDC4"/>
<path d="M219.5 121.815H181.5C180.672 121.815 180 122.487 180 123.315C180 124.143 180.672 124.815 181.5 124.815H219.5C220.328 124.815 221 124.143 221 123.315C221 122.487 220.328 121.815 219.5 121.815Z" fill="#B9BDC4"/>
<path d="M233.5 121.815H228.5C227.672 121.815 227 122.487 227 123.315C227 124.143 227.672 124.815 228.5 124.815H233.5C234.328 124.815 235 124.143 235 123.315C235 122.487 234.328 121.815 233.5 121.815Z" fill="#B9BDC4"/>
<path d="M258.5 121.815H242.5C241.672 121.815 241 122.487 241 123.315C241 124.143 241.672 124.815 242.5 124.815H258.5C259.328 124.815 260 124.143 260 123.315C260 122.487 259.328 121.815 258.5 121.815Z" fill="#B9BDC4"/>
<path d="M289.5 121.815H267.5C266.672 121.815 266 122.487 266 123.315C266 124.143 266.672 124.815 267.5 124.815H289.5C290.328 124.815 291 124.143 291 123.315C291 122.487 290.328 121.815 289.5 121.815Z" fill="#B9BDC4"/>
<path d="M312.5 121.815H298.5C297.672 121.815 297 122.487 297 123.315C297 124.143 297.672 124.815 298.5 124.815H312.5C313.328 124.815 314 124.143 314 123.315C314 122.487 313.328 121.815 312.5 121.815Z" fill="#B9BDC4"/>
<path d="M340.5 121.815H321.5C320.672 121.815 320 122.487 320 123.315C320 124.143 320.672 124.815 321.5 124.815H340.5C341.328 124.815 342 124.143 342 123.315C342 122.487 341.328 121.815 340.5 121.815Z" fill="#B9BDC4"/>
<path d="M186.5 132.815H181.5C180.672 132.815 180 133.487 180 134.315C180 135.143 180.672 135.815 181.5 135.815H186.5C187.328 135.815 188 135.143 188 134.315C188 133.487 187.328 132.815 186.5 132.815Z" fill="#B9BDC4"/>
<path d="M247.5 132.815H195.5C194.672 132.815 194 133.487 194 134.315C194 135.143 194.672 135.815 195.5 135.815H247.5C248.328 135.815 249 135.143 249 134.315C249 133.487 248.328 132.815 247.5 132.815Z" fill="#B9BDC4"/>
<path d="M261.5 132.815H256.5C255.672 132.815 255 133.487 255 134.315C255 135.143 255.672 135.815 256.5 135.815H261.5C262.328 135.815 263 135.143 263 134.315C263 133.487 262.328 132.815 261.5 132.815Z" fill="#B9BDC4"/>
<path d="M286.5 132.815H270.5C269.672 132.815 269 133.487 269 134.315C269 135.143 269.672 135.815 270.5 135.815H286.5C287.328 135.815 288 135.143 288 134.315C288 133.487 287.328 132.815 286.5 132.815Z" fill="#B9BDC4"/>
<path d="M328.5 132.815H295.5C294.672 132.815 294 133.487 294 134.315C294 135.143 294.672 135.815 295.5 135.815H328.5C329.328 135.815 330 135.143 330 134.315C330 133.487 329.328 132.815 328.5 132.815Z" fill="#B9BDC4"/>
<path d="M203.5 143.815H181.5C180.672 143.815 180 144.487 180 145.315C180 146.143 180.672 146.815 181.5 146.815H203.5C204.328 146.815 205 146.143 205 145.315C205 144.487 204.328 143.815 203.5 143.815Z" fill="#B9BDC4"/>
<path d="M227.5 143.815H212.5C211.672 143.815 211 144.487 211 145.315C211 146.143 211.672 146.815 212.5 146.815H227.5C228.328 146.815 229 146.143 229 145.315C229 144.487 228.328 143.815 227.5 143.815Z" fill="#B9BDC4"/>
<path d="M242.5 143.815H236.5C235.672 143.815 235 144.487 235 145.315C235 146.143 235.672 146.815 236.5 146.815H242.5C243.328 146.815 244 146.143 244 145.315C244 144.487 243.328 143.815 242.5 143.815Z" fill="#B9BDC4"/>
<path d="M274.5 143.815H251.5C250.672 143.815 250 144.487 250 145.315C250 146.143 250.672 146.815 251.5 146.815H274.5C275.328 146.815 276 146.143 276 145.315C276 144.487 275.328 143.815 274.5 143.815Z" fill="#B9BDC4"/>
<path d="M293.5 143.815H283.5C282.672 143.815 282 144.487 282 145.315C282 146.143 282.672 146.815 283.5 146.815H293.5C294.328 146.815 295 146.143 295 145.315C295 144.487 294.328 143.815 293.5 143.815Z" fill="#B9BDC4"/>
<path d="M347.5 143.815H302.5C301.672 143.815 301 144.487 301 145.315C301 146.143 301.672 146.815 302.5 146.815H347.5C348.328 146.815 349 146.143 349 145.315C349 144.487 348.328 143.815 347.5 143.815Z" fill="#B9BDC4"/>
<path d="M219.5 154.815H181.5C180.672 154.815 180 155.487 180 156.315C180 157.143 180.672 157.815 181.5 157.815H219.5C220.328 157.815 221 157.143 221 156.315C221 155.487 220.328 154.815 219.5 154.815Z" fill="#B9BDC4"/>
<path d="M233.5 154.815H228.5C227.672 154.815 227 155.487 227 156.315C227 157.143 227.672 157.815 228.5 157.815H233.5C234.328 157.815 235 157.143 235 156.315C235 155.487 234.328 154.815 233.5 154.815Z" fill="#B9BDC4"/>
<path d="M281.5 154.815H242.5C241.672 154.815 241 155.487 241 156.315C241 157.143 241.672 157.815 242.5 157.815H281.5C282.328 157.815 283 157.143 283 156.315C283 155.487 282.328 154.815 281.5 154.815Z" fill="#B9BDC4"/>
<path d="M293.5 154.815H290.5C289.672 154.815 289 155.487 289 156.315C289 157.143 289.672 157.815 290.5 157.815H293.5C294.328 157.815 295 157.143 295 156.315C295 155.487 294.328 154.815 293.5 154.815Z" fill="#B9BDC4"/>
<path d="M344.5 154.815H302.5C301.672 154.815 301 155.487 301 156.315C301 157.143 301.672 157.815 302.5 157.815H344.5C345.328 157.815 346 157.143 346 156.315C346 155.487 345.328 154.815 344.5 154.815Z" fill="#B9BDC4"/>
<path d="M190.5 165.815H181.5C180.672 165.815 180 166.487 180 167.315C180 168.143 180.672 168.815 181.5 168.815H190.5C191.328 168.815 192 168.143 192 167.315C192 166.487 191.328 165.815 190.5 165.815Z" fill="#B9BDC4"/>
<path d="M229.5 165.815H199.5C198.672 165.815 198 166.487 198 167.315C198 168.143 198.672 168.815 199.5 168.815H229.5C230.328 168.815 231 168.143 231 167.315C231 166.487 230.328 165.815 229.5 165.815Z" fill="#B9BDC4"/>
<path d="M242.5 165.815H238.5C237.672 165.815 237 166.487 237 167.315C237 168.143 237.672 168.815 238.5 168.815H242.5C243.328 168.815 244 168.143 244 167.315C244 166.487 243.328 165.815 242.5 165.815Z" fill="#B9BDC4"/>
<path d="M289.5 165.815H251.5C250.672 165.815 250 166.487 250 167.315C250 168.143 250.672 168.815 251.5 168.815H289.5C290.328 168.815 291 168.143 291 167.315C291 166.487 290.328 165.815 289.5 165.815Z" fill="#B9BDC4"/>
<path d="M312.5 165.815H298.5C297.672 165.815 297 166.487 297 167.315C297 168.143 297.672 168.815 298.5 168.815H312.5C313.328 168.815 314 168.143 314 167.315C314 166.487 313.328 165.815 312.5 165.815Z" fill="#B9BDC4"/>
<path d="M340.5 165.815H321.5C320.672 165.815 320 166.487 320 167.315C320 168.143 320.672 168.815 321.5 168.815H340.5C341.328 168.815 342 168.143 342 167.315C342 166.487 341.328 165.815 340.5 165.815Z" fill="#B9BDC4"/>
<path d="M219.5 176.815H181.5C180.672 176.815 180 177.487 180 178.315C180 179.143 180.672 179.815 181.5 179.815H219.5C220.328 179.815 221 179.143 221 178.315C221 177.487 220.328 176.815 219.5 176.815Z" fill="#B9BDC4"/>
<path d="M233.5 176.815H228.5C227.672 176.815 227 177.487 227 178.315C227 179.143 227.672 179.815 228.5 179.815H233.5C234.328 179.815 235 179.143 235 178.315C235 177.487 234.328 176.815 233.5 176.815Z" fill="#B9BDC4"/>
<path d="M258.5 176.815H242.5C241.672 176.815 241 177.487 241 178.315C241 179.143 241.672 179.815 242.5 179.815H258.5C259.328 179.815 260 179.143 260 178.315C260 177.487 259.328 176.815 258.5 176.815Z" fill="#B9BDC4"/>
<path d="M289.5 176.815H267.5C266.672 176.815 266 177.487 266 178.315C266 179.143 266.672 179.815 267.5 179.815H289.5C290.328 179.815 291 179.143 291 178.315C291 177.487 290.328 176.815 289.5 176.815Z" fill="#B9BDC4"/>
<path d="M312.5 176.815H298.5C297.672 176.815 297 177.487 297 178.315C297 179.143 297.672 179.815 298.5 179.815H312.5C313.328 179.815 314 179.143 314 178.315C314 177.487 313.328 176.815 312.5 176.815Z" fill="#B9BDC4"/>
<path d="M329.5 176.815H321.5C320.672 176.815 320 177.487 320 178.315C320 179.143 320.672 179.815 321.5 179.815H329.5C330.328 179.815 331 179.143 331 178.315C331 177.487 330.328 176.815 329.5 176.815Z" fill="#B9BDC4"/>
<path d="M203.5 196.815H181.5C180.672 196.815 180 197.487 180 198.315C180 199.143 180.672 199.815 181.5 199.815H203.5C204.328 199.815 205 199.143 205 198.315C205 197.487 204.328 196.815 203.5 196.815Z" fill="#B9BDC4"/>
<path d="M227.5 196.815H212.5C211.672 196.815 211 197.487 211 198.315C211 199.143 211.672 199.815 212.5 199.815H227.5C228.328 199.815 229 199.143 229 198.315C229 197.487 228.328 196.815 227.5 196.815Z" fill="#B9BDC4"/>
<path d="M242.5 196.815H236.5C235.672 196.815 235 197.487 235 198.315C235 199.143 235.672 199.815 236.5 199.815H242.5C243.328 199.815 244 199.143 244 198.315C244 197.487 243.328 196.815 242.5 196.815Z" fill="#B9BDC4"/>
<path d="M306.5 196.815H251.5C250.672 196.815 250 197.487 250 198.315C250 199.143 250.672 199.815 251.5 199.815H306.5C307.328 199.815 308 199.143 308 198.315C308 197.487 307.328 196.815 306.5 196.815Z" fill="#B9BDC4"/>
<path d="M329.5 196.815H315.5C314.672 196.815 314 197.487 314 198.315C314 199.143 314.672 199.815 315.5 199.815H329.5C330.328 199.815 331 199.143 331 198.315C331 197.487 330.328 196.815 329.5 196.815Z" fill="#B9BDC4"/>
<path d="M348.5 196.815H338.5C337.672 196.815 337 197.487 337 198.315C337 199.143 337.672 199.815 338.5 199.815H348.5C349.328 199.815 350 199.143 350 198.315C350 197.487 349.328 196.815 348.5 196.815Z" fill="#B9BDC4"/>
<path d="M219.5 207.815H181.5C180.672 207.815 180 208.487 180 209.315C180 210.143 180.672 210.815 181.5 210.815H219.5C220.328 210.815 221 210.143 221 209.315C221 208.487 220.328 207.815 219.5 207.815Z" fill="#B9BDC4"/>
<path d="M233.5 207.815H228.5C227.672 207.815 227 208.487 227 209.315C227 210.143 227.672 210.815 228.5 210.815H233.5C234.328 210.815 235 210.143 235 209.315C235 208.487 234.328 207.815 233.5 207.815Z" fill="#B9BDC4"/>
<path d="M258.5 207.815H242.5C241.672 207.815 241 208.487 241 209.315C241 210.143 241.672 210.815 242.5 210.815H258.5C259.328 210.815 260 210.143 260 209.315C260 208.487 259.328 207.815 258.5 207.815Z" fill="#B9BDC4"/>
<path d="M289.5 207.815H267.5C266.672 207.815 266 208.487 266 209.315C266 210.143 266.672 210.815 267.5 210.815H289.5C290.328 210.815 291 210.143 291 209.315C291 208.487 290.328 207.815 289.5 207.815Z" fill="#B9BDC4"/>
<path d="M312.5 207.815H298.5C297.672 207.815 297 208.487 297 209.315C297 210.143 297.672 210.815 298.5 210.815H312.5C313.328 210.815 314 210.143 314 209.315C314 208.487 313.328 207.815 312.5 207.815Z" fill="#B9BDC4"/>
<path d="M340.5 207.815H321.5C320.672 207.815 320 208.487 320 209.315C320 210.143 320.672 210.815 321.5 210.815H340.5C341.328 210.815 342 210.143 342 209.315C342 208.487 341.328 207.815 340.5 207.815Z" fill="#B9BDC4"/>
<path d="M186.5 218.815H181.5C180.672 218.815 180 219.487 180 220.315C180 221.143 180.672 221.815 181.5 221.815H186.5C187.328 221.815 188 221.143 188 220.315C188 219.487 187.328 218.815 186.5 218.815Z" fill="#B9BDC4"/>
<path d="M247.5 218.815H195.5C194.672 218.815 194 219.487 194 220.315C194 221.143 194.672 221.815 195.5 221.815H247.5C248.328 221.815 249 221.143 249 220.315C249 219.487 248.328 218.815 247.5 218.815Z" fill="#B9BDC4"/>
<path d="M261.5 218.815H256.5C255.672 218.815 255 219.487 255 220.315C255 221.143 255.672 221.815 256.5 221.815H261.5C262.328 221.815 263 221.143 263 220.315C263 219.487 262.328 218.815 261.5 218.815Z" fill="#B9BDC4"/>
<path d="M286.5 218.815H270.5C269.672 218.815 269 219.487 269 220.315C269 221.143 269.672 221.815 270.5 221.815H286.5C287.328 221.815 288 221.143 288 220.315C288 219.487 287.328 218.815 286.5 218.815Z" fill="#B9BDC4"/>
<path d="M328.5 218.815H295.5C294.672 218.815 294 219.487 294 220.315C294 221.143 294.672 221.815 295.5 221.815H328.5C329.328 221.815 330 221.143 330 220.315C330 219.487 329.328 218.815 328.5 218.815Z" fill="#B9BDC4"/>
<path d="M203.5 229.815H181.5C180.672 229.815 180 230.487 180 231.315C180 232.143 180.672 232.815 181.5 232.815H203.5C204.328 232.815 205 232.143 205 231.315C205 230.487 204.328 229.815 203.5 229.815Z" fill="#B9BDC4"/>
<path d="M227.5 229.815H212.5C211.672 229.815 211 230.487 211 231.315C211 232.143 211.672 232.815 212.5 232.815H227.5C228.328 232.815 229 232.143 229 231.315C229 230.487 228.328 229.815 227.5 229.815Z" fill="#B9BDC4"/>
<path d="M242.5 229.815H236.5C235.672 229.815 235 230.487 235 231.315C235 232.143 235.672 232.815 236.5 232.815H242.5C243.328 232.815 244 232.143 244 231.315C244 230.487 243.328 229.815 242.5 229.815Z" fill="#B9BDC4"/>
<path d="M274.5 229.815H251.5C250.672 229.815 250 230.487 250 231.315C250 232.143 250.672 232.815 251.5 232.815H274.5C275.328 232.815 276 232.143 276 231.315C276 230.487 275.328 229.815 274.5 229.815Z" fill="#B9BDC4"/>
<path d="M293.5 229.815H283.5C282.672 229.815 282 230.487 282 231.315C282 232.143 282.672 232.815 283.5 232.815H293.5C294.328 232.815 295 232.143 295 231.315C295 230.487 294.328 229.815 293.5 229.815Z" fill="#B9BDC4"/>
<path d="M347.5 229.815H302.5C301.672 229.815 301 230.487 301 231.315C301 232.143 301.672 232.815 302.5 232.815H347.5C348.328 232.815 349 232.143 349 231.315C349 230.487 348.328 229.815 347.5 229.815Z" fill="#B9BDC4"/>
<path d="M184.159 314.288C181.457 308.99 180.931 303.901 184.32 298.636C187.029 294.425 191.294 291.479 195.527 288.974C199.618 286.554 204.014 284.428 208.635 283.241C210.234 282.831 212.792 282.096 214.303 283.241C215.954 284.492 216.8 287.08 217.363 288.942C218.447 292.527 219.009 296.329 219.327 300.053C219.559 302.759 220.059 306.361 219.005 308.974C218.39 310.499 216.274 313.226 214.706 313.934C212.776 314.805 210.235 312.725 209.15 311.325C206.91 308.434 207.637 305.579 207.637 302.291C207.637 302.278 208.247 302.724 208.361 302.839C209.302 303.779 209.989 304.884 211.051 305.737C217.046 310.557 225.592 304.958 230.632 301.148C231.128 300.773 231.86 299.758 232.274 300.633C233.005 302.175 233.692 305.231 235.769 305.528C239.095 306.003 244.448 299.712 244.448 296.607" stroke="#A2C533" stroke-width="3" stroke-linecap="round"/>
<g filter="url(#filter1_d_2713_116)">
<path d="M88 102.815C88 100.693 88.8429 98.6584 90.3431 97.1581C91.8434 95.6579 93.8783 94.815 96 94.815H205C207.122 94.815 209.157 95.6579 210.657 97.1581C212.157 98.6584 213 100.693 213 102.815V195.815C213 197.937 212.157 199.972 210.657 201.472C209.157 202.972 207.122 203.815 205 203.815H88V102.815Z" fill="white" fill-opacity="0.97"/>
</g>
<path d="M150 134.315C157.456 134.315 163.5 128.271 163.5 120.815C163.5 113.359 157.456 107.315 150 107.315C142.544 107.315 136.5 113.359 136.5 120.815C136.5 128.271 142.544 134.315 150 134.315Z" stroke="#A2C533"/>
<path d="M156.875 116.44L148.125 125.19L143.75 120.815" stroke="#A2C533" stroke-width="1.264" stroke-linecap="round" stroke-linejoin="round"/>
<path opacity="0.4" d="M119.962 153.815H118.682V147.895H119.962L122.458 151.663V147.895H123.738V153.815H122.458L119.962 150.055V153.815ZM130.943 150.847C130.943 152.655 129.751 153.911 128.031 153.911C126.319 153.911 125.143 152.663 125.143 150.855C125.143 149.047 126.327 147.791 128.039 147.791C129.759 147.791 130.943 149.039 130.943 150.847ZM129.575 150.847C129.575 149.719 128.999 149.039 128.047 149.039C127.087 149.039 126.511 149.719 126.511 150.847C126.511 151.983 127.087 152.663 128.047 152.663C128.999 152.663 129.575 151.967 129.575 150.847ZM131.687 149.095V147.895H136.343V149.095H134.663V153.815H133.367V149.095H131.687ZM138.916 147.895V153.815H137.62V147.895H138.916ZM144.027 151.503H141.947V153.815H140.651V147.895H144.419V149.095H141.947V150.335H144.027V151.503ZM147.103 147.895V153.815H145.807V147.895H147.103ZM151.399 153.911C149.623 153.911 148.511 152.735 148.511 150.863C148.511 149.015 149.687 147.799 151.455 147.799C152.935 147.799 153.999 148.647 154.183 149.975H152.815C152.639 149.383 152.135 149.047 151.423 149.047C150.463 149.047 149.879 149.727 149.879 150.855C149.879 151.967 150.471 152.663 151.423 152.663C152.151 152.663 152.687 152.303 152.847 151.719H154.191C153.983 153.039 152.879 153.911 151.399 153.911ZM156.084 153.815H154.732L156.844 147.895H158.108L160.212 153.815H158.836L158.42 152.567H156.508L156.084 153.815ZM157.308 150.215L156.884 151.479H158.052L157.628 150.215C157.563 150.026 157.51 149.834 157.468 149.639C157.427 149.834 157.373 150.027 157.308 150.215ZM160.422 149.095V147.895H165.078V149.095H163.398V153.815H162.102V149.095H160.422ZM167.65 147.895V153.815H166.354V147.895H167.65ZM174.858 150.847C174.858 152.655 173.666 153.911 171.946 153.911C170.234 153.911 169.058 152.663 169.058 150.855C169.058 149.047 170.242 147.791 171.954 147.791C173.674 147.791 174.858 149.039 174.858 150.847ZM173.49 150.847C173.49 149.719 172.914 149.039 171.962 149.039C171.002 149.039 170.426 149.719 170.426 150.847C170.426 151.983 171.002 152.663 171.962 152.663C172.914 152.663 173.49 151.967 173.49 150.847ZM177.541 153.815H176.261V147.895H177.541L180.037 151.663V147.895H181.317V153.815H180.037L177.541 150.055V153.815Z" fill="#101828"/>
<path d="M119.651 171.969C116.767 171.969 114.849 169.897 114.849 166.761C114.849 163.639 116.823 161.525 119.721 161.525C122.003 161.525 123.753 162.883 124.131 164.955H122.661C122.283 163.639 121.149 162.841 119.679 162.841C117.635 162.841 116.291 164.381 116.291 166.747C116.291 169.113 117.635 170.653 119.679 170.653C121.163 170.653 122.339 169.855 122.717 168.609H124.173C123.739 170.625 121.933 171.969 119.651 171.969ZM125.184 168.385C125.184 166.271 126.696 164.787 128.754 164.787C130.798 164.787 132.31 166.271 132.31 168.385C132.31 170.499 130.798 171.983 128.754 171.983C126.696 171.983 125.184 170.499 125.184 168.385ZM126.514 168.385C126.514 169.813 127.424 170.807 128.754 170.807C130.07 170.807 130.994 169.813 130.994 168.385C130.994 166.957 130.07 165.963 128.754 165.963C127.424 165.963 126.514 166.957 126.514 168.385ZM135.082 171.815H133.766V164.969H134.956L135.096 166.019C135.53 165.235 136.398 164.773 137.364 164.773C139.17 164.773 139.996 165.879 139.996 167.629V171.815H138.68V167.923C138.68 166.537 138.036 165.977 137.028 165.977C135.796 165.977 135.082 166.859 135.082 168.189V171.815ZM146.453 171.815V166.075H143.415V171.815H142.099V166.075H141.091V164.969H142.099V163.877C142.099 162.197 143.009 161.511 144.199 161.511C144.451 161.511 144.759 161.525 145.011 161.567V162.701H144.423C143.625 162.701 143.415 163.135 143.415 163.877V164.969H147.769V171.815H146.453ZM147.111 163.289C147 163.291 146.89 163.271 146.787 163.229C146.684 163.188 146.591 163.126 146.512 163.047C146.434 162.969 146.372 162.876 146.331 162.773C146.289 162.67 146.269 162.56 146.271 162.449C146.271 161.973 146.635 161.609 147.111 161.609C147.573 161.609 147.937 161.973 147.937 162.449C147.937 162.925 147.573 163.289 147.111 163.289ZM153.56 164.913V166.117H152.972C151.726 166.117 150.956 166.873 150.956 168.189V171.815H149.64V164.983H150.872L150.956 166.019C151.236 165.305 151.922 164.829 152.86 164.829C153.098 164.829 153.294 164.857 153.56 164.913ZM156.11 171.815H154.794V164.969H155.97L156.096 165.865C156.446 165.221 157.174 164.773 158.14 164.773C159.204 164.773 159.96 165.305 160.31 166.159C160.632 165.305 161.458 164.773 162.522 164.773C164.09 164.773 165.042 165.753 165.042 167.335V171.815H163.754V167.657C163.754 166.579 163.152 165.963 162.228 165.963C161.234 165.963 160.576 166.663 160.576 167.755V171.815H159.274V167.643C159.274 166.565 158.686 165.977 157.762 165.977C156.768 165.977 156.11 166.663 156.11 167.755V171.815ZM169.82 171.983C167.804 171.983 166.418 170.527 166.418 168.399C166.418 166.257 167.776 164.773 169.764 164.773C171.71 164.773 172.984 166.117 172.984 168.147V168.637L167.692 168.651C167.79 170.093 168.546 170.891 169.848 170.891C170.87 170.891 171.542 170.471 171.766 169.687H172.998C172.662 171.157 171.514 171.983 169.82 171.983ZM169.764 165.879C168.616 165.879 167.888 166.565 167.72 167.769H171.668C171.668 166.635 170.926 165.879 169.764 165.879ZM177.198 171.983C175.21 171.983 174.006 170.499 174.006 168.413C174.006 166.313 175.224 164.773 177.254 164.773C178.304 164.773 179.186 165.235 179.648 166.075V161.511H180.95V171.815H179.774L179.662 170.569C179.214 171.507 178.29 171.983 177.198 171.983ZM177.464 170.793C178.808 170.793 179.634 169.799 179.634 168.371C179.634 166.971 178.808 165.963 177.464 165.963C176.12 165.963 175.336 166.971 175.336 168.371C175.336 169.785 176.12 170.793 177.464 170.793ZM111.84 180.913V182.117H111.252C110.006 182.117 109.236 182.873 109.236 184.189V187.815H107.92V180.983H109.152L109.236 182.019C109.516 181.305 110.202 180.829 111.14 180.829C111.378 180.829 111.574 180.857 111.84 180.913ZM115.782 187.983C113.766 187.983 112.38 186.527 112.38 184.399C112.38 182.257 113.738 180.773 115.726 180.773C117.672 180.773 118.946 182.117 118.946 184.147V184.637L113.654 184.651C113.752 186.093 114.508 186.891 115.81 186.891C116.832 186.891 117.504 186.471 117.728 185.687H118.96C118.624 187.157 117.476 187.983 115.782 187.983ZM115.726 181.879C114.578 181.879 113.85 182.565 113.682 183.769H117.63C117.63 182.635 116.888 181.879 115.726 181.879ZM121.732 187.815H120.416V180.969H121.606L121.746 182.019C122.18 181.235 123.048 180.773 124.014 180.773C125.82 180.773 126.646 181.879 126.646 183.629V187.815H125.33V183.923C125.33 182.537 124.686 181.977 123.678 181.977C122.446 181.977 121.732 182.859 121.732 184.189V187.815ZM130.401 187.815H129.085V182.075H127.741V180.969H129.085V178.827H130.401V180.969H131.745V182.075H130.401V187.815ZM134.846 187.983C133.376 187.983 132.508 187.157 132.508 185.911C132.508 184.651 133.446 183.867 135.056 183.741L137.212 183.573V183.377C137.212 182.229 136.526 181.823 135.602 181.823C134.496 181.823 133.866 182.313 133.866 183.139H132.718C132.718 181.711 133.894 180.773 135.658 180.773C137.352 180.773 138.5 181.669 138.5 183.517V187.815H137.38L137.24 186.709C136.89 187.493 135.952 187.983 134.846 187.983ZM135.224 186.961C136.47 186.961 137.226 186.149 137.226 184.861V184.497L135.476 184.637C134.314 184.749 133.838 185.197 133.838 185.869C133.838 186.597 134.37 186.961 135.224 186.961ZM141.666 187.815H140.35V177.511H141.666V187.815ZM148.075 179.345C147.845 179.344 147.625 179.252 147.462 179.09C147.3 178.927 147.208 178.707 147.207 178.477C147.207 177.987 147.599 177.609 148.075 177.609C148.551 177.609 148.943 177.987 148.943 178.477C148.942 178.707 148.85 178.927 148.688 179.09C148.525 179.252 148.305 179.344 148.075 179.345ZM147.431 187.815V180.969H148.747V187.815H147.431ZM151.974 187.815H150.658V180.969H151.848L151.988 182.019C152.422 181.235 153.29 180.773 154.256 180.773C156.062 180.773 156.888 181.879 156.888 183.629V187.815H155.572V183.923C155.572 182.537 154.928 181.977 153.92 181.977C152.688 181.977 151.974 182.859 151.974 184.189V187.815ZM158.263 184.399C158.263 182.257 159.621 180.773 161.623 180.773C163.345 180.773 164.549 181.753 164.787 183.279H163.471C163.247 182.411 162.547 181.949 161.665 181.949C160.419 181.949 159.565 182.901 159.565 184.385C159.565 185.855 160.363 186.807 161.609 186.807C162.547 186.807 163.247 186.317 163.485 185.505H164.801C164.535 186.989 163.261 187.983 161.609 187.983C159.593 187.983 158.263 186.555 158.263 184.399ZM165.741 184.385C165.741 182.271 167.253 180.787 169.311 180.787C171.355 180.787 172.867 182.271 172.867 184.385C172.867 186.499 171.355 187.983 169.311 187.983C167.253 187.983 165.741 186.499 165.741 184.385ZM167.071 184.385C167.071 185.813 167.981 186.807 169.311 186.807C170.627 186.807 171.551 185.813 171.551 184.385C171.551 182.957 170.627 181.963 169.311 181.963C167.981 181.963 167.071 182.957 167.071 184.385ZM175.64 187.815H174.324V180.969H175.5L175.626 181.865C175.976 181.221 176.704 180.773 177.67 180.773C178.734 180.773 179.49 181.305 179.84 182.159C180.162 181.305 180.988 180.773 182.052 180.773C183.62 180.773 184.572 181.753 184.572 183.335V187.815H183.284V183.657C183.284 182.579 182.682 181.963 181.758 181.963C180.764 181.963 180.106 182.663 180.106 183.755V187.815H178.804V183.643C178.804 182.565 178.216 181.977 177.292 181.977C176.298 181.977 175.64 182.663 175.64 183.755V187.815ZM189.35 187.983C187.334 187.983 185.948 186.527 185.948 184.399C185.948 182.257 187.306 180.773 189.294 180.773C191.24 180.773 192.514 182.117 192.514 184.147V184.637L187.222 184.651C187.32 186.093 188.076 186.891 189.378 186.891C190.4 186.891 191.072 186.471 191.296 185.687H192.528C192.192 187.157 191.044 187.983 189.35 187.983ZM189.294 181.879C188.146 181.879 187.418 182.565 187.25 183.769H191.198C191.198 182.635 190.456 181.879 189.294 181.879Z" fill="#75767A"/>
<mask id="mask0_2713_116" style="mask-type:luminance" maskUnits="userSpaceOnUse" x="41" y="130" width="33" height="60">
<path d="M56.0699 165.49C55.5699 164.969 54.7639 157.261 54.2129 148.685C53.6139 139.331 53.0409 129.102 46.5229 130.089L41.8789 154.683C41.8789 154.683 43.9389 167.297 45.4259 172.703C46.7259 177.423 67.7799 189.244 67.7799 189.244C70.4039 190.871 74.3439 184.614 72.7729 182.657C72.7729 182.657 59.6779 169.237 56.0699 165.49Z" fill="white"/>
</mask>
<g mask="url(#mask0_2713_116)">
<path d="M56.0699 165.49C55.5699 164.969 54.7639 157.261 54.2129 148.685C53.6139 139.331 53.0409 129.102 46.5229 130.089L41.8789 154.683C41.8789 154.683 43.9389 167.297 45.4259 172.703C46.7259 177.423 67.7799 189.244 67.7799 189.244C70.4039 190.871 74.3439 184.614 72.7729 182.657C72.7729 182.657 59.6779 169.237 56.0699 165.49Z" fill="url(#paint0_linear_2713_116)"/>
</g>
<path d="M86.4059 191.619C86.3379 190.694 81.8459 185.969 80.9639 185.692C79.0179 185.081 77.3539 185.061 75.5799 184.685C74.8189 184.523 73.7019 183.916 72.7779 183.348C71.5219 182.576 66.9879 188.207 68.2819 189.069C68.9169 189.744 69.7059 191.094 69.9819 191.525C70.6519 192.558 71.3369 193.593 72.2019 194.469C73.8899 196.184 76.5789 196.626 77.2089 196.778C78.1249 196.998 86.5889 194.062 86.4059 191.619Z" fill="#986148"/>
<path d="M88.6139 197.288C88.3549 197.384 88.1339 197.43 87.9189 197.43L72.1649 197.527L71.7889 197.481L71.3319 197.141L70.9519 196.455L92.3889 187.867L92.7699 188.552C92.8769 188.747 92.8819 188.999 92.7619 189.275L89.7119 196.306C89.5269 196.73 89.0979 197.098 88.6139 197.288Z" fill="#3D3D3D"/>
<path d="M87.538 196.744L71.784 196.839L71.408 196.796C70.936 196.658 70.744 196.232 70.957 195.74L74.004 188.709C74.275 188.09 75.074 187.587 75.808 187.572L91.565 187.476L91.925 187.522C92.402 187.659 92.603 188.083 92.382 188.587L89.332 195.621C89.063 196.24 88.264 196.742 87.538 196.744Z" fill="#232323"/>
<path d="M33.542 315.91C33.417 317.739 33.97 319.853 34.552 320.323C36.569 321.949 48.08 328.956 53.13 329.657C58.869 330.454 62.622 327.577 62.812 325.599C62.914 324.57 62.936 323.488 62.515 322.291C61.972 320.751 56.263 317.646 49.587 314.227C44.574 311.66 42.014 309.569 38.477 310.409C35.391 311.143 33.755 312.794 33.542 315.91Z" fill="#1E1A1D"/>
<path d="M53.465 327.561C48.413 326.858 36.901 319.85 34.886 318.223C34.396 317.833 33.871 317.018 33.542 316.31C33.417 318.137 33.97 319.987 34.552 320.456C36.569 322.081 48.08 329.091 53.13 329.791C58.869 330.586 62.647 327.708 62.84 325.734C62.89 325.204 62.919 324.924 62.88 324.359C61.894 326.201 58.41 328.245 53.465 327.561Z" fill="#C07A2D"/>
<path d="M45.5279 312.025C43.6579 310.416 43.4579 307.729 44.1379 303.715C44.1929 303.386 44.2689 303.094 44.3279 302.769C41.2331 302.94 38.1351 303.047 35.0359 303.092C35.2389 305.522 35.3359 307.919 35.2089 310.262C35.1729 310.927 35.1299 311.639 35.1089 312.457C35.095 312.928 35.2105 313.394 35.4429 313.803C35.6753 314.213 36.0156 314.551 36.4269 314.781C38.8399 316.118 40.4329 316.351 41.8259 316.501C44.6629 316.811 49.5219 315.463 45.5279 312.025Z" fill="#986148"/>
<path d="M34.0139 269.443C31.0549 277.081 32.2779 285.883 33.4659 294.396C34.0869 298.871 34.6069 304.801 34.7259 308.216C34.8179 311.249 44.3609 311.188 44.1979 308.137C44.2583 306.684 44.4102 305.235 44.6529 303.801C45.3579 299.64 46.3229 295.834 47.2559 292.158C48.0859 288.889 48.9429 285.51 49.6359 281.828C50.0869 279.438 50.5489 277.117 51.0009 274.853C51.6989 271.352 52.3709 267.992 52.9189 264.744C55.6669 248.516 56.9049 223.658 52.5329 200.472C51.8559 196.884 50.0419 193.589 47.2629 191.224C45.1349 189.412 43.2129 188.549 41.4579 188.602C35.2849 188.785 31.9329 200.173 30.9209 224.562C33.0169 234.114 37.1009 259.678 37.1349 259.817C36.9619 262.568 36.0949 264.567 35.0849 266.881C34.7349 267.691 34.3709 268.53 34.0139 269.443Z" fill="#B49F8E"/>
<path d="M6.9129 334.769C9.6349 337.72 16.8659 339.636 19.2999 335.721C20.4309 333.899 19.2509 320.624 19.5199 316.876L19.7389 313.921C19.4979 313.522 18.4269 313.132 18.0309 312.888C16.3439 311.847 13.0249 312.264 11.0659 311.949C10.0689 311.789 8.5089 318.409 8.3559 319.066C7.4259 323.085 4.7939 332.473 6.9129 334.769Z" fill="#C07A2D"/>
<path d="M7.09507 332.549C9.81807 335.5 17.0491 337.415 19.4831 333.5C20.6141 331.679 20.0971 317.51 20.2311 313.755C20.3781 309.671 17.1311 308.417 14.3931 308.645C12.5401 308.8 10.9801 310.097 10.3331 311.84C9.65807 313.649 8.63807 316.409 8.53907 316.845C7.60507 320.864 4.97707 330.253 7.09507 332.549Z" fill="#1E1A1D"/>
<path d="M20.7489 304.165C20.6849 303.652 13.5859 302.323 13.5859 302.323C13.3699 304.152 10.9719 312.104 10.8839 312.73C10.6039 314.661 11.3429 317.643 14.7019 318.023C17.8259 318.376 19.3679 316.361 19.4389 314.245C19.4749 313.212 20.8699 305.19 20.7489 304.165Z" fill="#986148"/>
<path d="M36.4009 210.984C35.6779 209.411 34.4069 207.967 32.5139 206.574C29.1692 204.108 25.2044 202.621 21.0629 202.279C20.592 202.238 20.1196 202.217 19.6469 202.215C17.1479 202.204 13.6589 202.72 11.2259 205.237C8.85595 207.685 8.26695 211.233 8.00295 214.376C6.90695 227.459 10.5029 240.755 13.9809 253.611C14.8259 256.732 15.1509 260.639 15.9099 263.687C8.29995 277.987 14.4279 281.803 12.2429 306.385C11.4929 309.594 19.9849 311.335 20.4409 308.721C21.1209 305.382 31.8949 270.562 32.7009 263.885C33.8989 253.983 34.265 242.807 35.511 233.036C36.109 228.322 36.7309 223.447 37.1389 218.654C37.3699 215.959 37.4869 213.346 36.4009 210.984Z" fill="#B49F8E"/>
<mask id="mask1_2713_116" style="mask-type:luminance" maskUnits="userSpaceOnUse" x="8" y="129" width="48" height="87">
<path d="M54.3481 166.612C58.3821 160.038 51.5471 152.699 51.1681 146.102C51.0211 143.514 51.6511 139.155 51.1331 135.647C50.6711 132.528 48.0381 129.567 44.1781 129.813C35.2581 130.384 9.16106 139.191 8.32606 147.065C8.01906 149.977 11.1831 155.054 12.1091 157.624C15.7301 167.664 16.5391 172.153 19.2421 180.859C20.2951 184.243 20.5411 186.25 18.2161 191.035C16.8031 193.946 13.1111 198.303 10.4061 204.798C9.78806 210.068 26.0241 218.175 39.5381 215.115L41.3061 206.734L44.1531 213.552C51.3921 212.225 54.5531 203.585 53.4881 200.752C53.0971 199.708 49.6511 192.434 48.2301 187.42C46.5051 181.32 47.7911 177.047 50.8801 171.988C52.0971 169.992 52.7771 169.169 54.3481 166.612Z" fill="white"/>
</mask>
<g mask="url(#mask1_2713_116)">
<path d="M54.3481 166.612C58.3821 160.038 51.5471 152.699 51.1681 146.102C51.0211 143.514 51.6511 139.155 51.1331 135.647C50.6711 132.528 48.0381 129.567 44.1781 129.813C35.2581 130.384 9.16106 139.191 8.32606 147.065C8.01906 149.977 11.1831 155.054 12.1091 157.624C15.7301 167.664 16.5391 172.153 19.2421 180.859C20.2951 184.243 20.5411 186.25 18.2161 191.035C16.8031 193.946 13.1111 198.303 10.4061 204.798C9.78806 210.068 26.0241 218.175 39.5381 215.115L41.3061 206.734L44.1531 213.552C51.3921 212.225 54.5531 203.585 53.4881 200.752C53.0971 199.708 49.6511 192.434 48.2301 187.42C46.5051 181.32 47.7911 177.047 50.8801 171.988C52.0971 169.992 52.7771 169.169 54.3481 166.612Z" fill="url(#paint1_radial_2713_116)"/>
</g>
<path d="M27.7419 132.98L26.3159 135.509L27.7059 137.105L30.8039 134.349L31.6819 131.312L27.7419 132.98Z" fill="#EEEEEE"/>
<path d="M39.6259 144.861C38.3249 146.696 36.9089 146.853 35.7719 147.112C32.2299 147.914 25.6429 143.189 26.4319 136.184C26.4849 135.722 26.7059 135.286 27.0389 134.959C28.5909 133.438 29.6139 130.409 30.7559 125.147C31.1109 123.513 33.8439 123.266 35.1429 124.317C39.5579 127.885 42.9499 134.768 42.8709 137.719C42.8279 139.386 40.6179 143.466 39.6259 144.861Z" fill="#88543F"/>
<path d="M37.2971 146.488L45.3151 146.891C45.3151 146.891 44.5331 140.246 39.3191 133.533C43.7891 143.745 37.2971 146.488 37.2971 146.488Z" fill="#E1EEF4"/>
<path d="M38.35 146.201L30.522 152.552C30.522 152.552 25.092 149.175 23.938 142.69C23.461 140.011 23.69 137.478 24.509 136.166C25.633 134.365 27.742 132.979 27.742 132.979C27.742 132.979 25.311 137.176 29.272 142.484C30.779 144.506 34.278 146.899 38.35 146.201Z" fill="#E1EEF4"/>
<path d="M14.991 216.779C12.525 213.988 12.137 215.442 9.05397 213.162C8.55397 211.672 4.21297 211.984 4.21297 214.26C4.13397 214.691 3.98397 215.125 3.85497 215.543C2.88797 218.663 4.55797 224.84 4.89497 226.122C5.00497 226.543 7.74197 229.928 9.21897 231.496C9.64497 231.948 10.67 232.252 10.67 232.252C12.738 235.987 14.636 235.373 14.08 233.407C13.068 229.809 12.055 226.465 12.055 226.465C12.015 225.609 12.847 221.385 13.02 221.148C13.438 220.585 14.166 220.946 14.732 221.359C16.952 222.986 19.482 223.313 20.393 222.471C21.453 221.488 19.579 220.928 19.076 220.571C17.049 219.131 16.636 218.64 14.991 216.779Z" fill="#986148"/>
<path d="M0.307925 177.074C-1.12308 189.191 2.89792 212.188 2.89792 214.894C2.89792 218.307 12.5579 217.559 12.1419 213.727C11.1699 204.796 10.8319 184.824 11.3959 183.313C12.8349 179.448 23.2199 152.974 16.1639 144.788C7.25992 134.466 1.90992 163.494 0.307925 177.074Z" fill="#D5E3EA"/>
<path d="M49.8771 139.637C46.4821 132.736 46.3221 123.637 46.9491 116.087C46.9491 116.087 46.3371 114.424 45.3071 113.011C44.8869 112.447 44.3312 111.997 43.6912 111.704C43.0513 111.412 42.3479 111.285 41.6461 111.336C37.2591 111.699 38.7061 124.845 41.1281 135.989C41.2781 136.671 41.4451 137.351 41.6381 138.026C42.3771 140.632 44.0231 145.793 47.3581 146.199C50.4181 146.572 51.1051 142.132 49.8771 139.637Z" fill="#2B2119"/>
<path d="M45.431 120.592C45.414 122.066 45.058 123.515 45.011 124.987C44.97 126.21 45.145 127.433 45.114 128.658C45.048 131.223 44.087 133.664 43.696 136.2C43.003 140.705 41.943 143.177 34.021 138.249C30.573 136.106 22.408 127.981 22.456 125.426C22.502 122.876 23.207 120.382 24.116 118.014C25.024 115.649 26.173 113.325 27.934 111.593C29.692 109.859 32.156 108.789 34.498 109.281C35.267 109.443 35.998 109.763 36.723 110.083C38.672 110.94 41.841 111.608 43.328 113.28C44.794 114.929 45.457 118.413 45.431 120.592Z" fill="#986148"/>
<path d="M19.218 148.485C20.822 151.67 23.626 155.721 27.401 154.912C30.284 154.296 29.566 152.019 30.233 147.387C30.558 145.128 30.801 142.799 30.241 140.556C29.769 138.663 28.751 136.922 28.461 134.995C28.371 134.395 28.361 133.751 28.639 133.211C29.203 132.117 29.964 131.558 30.936 130.797C32.938 129.232 32.511 127.037 32.511 124.373C32.511 122.024 33.341 118.535 39.994 116.83C45.307 113.011 45.764 117.337 45.419 121.23C46.589 119.384 47.235 116.134 46.977 113.963C46.149 106.972 40.937 99.253 33.486 100.058C32.613 100.152 31.096 100.982 31.096 100.982C31.096 100.982 28.112 100.453 24.232 103.021C19.695 106.024 18.47 109.555 17.584 113.32C16.77 116.796 17.181 124.221 17.153 127.791C17.067 139.463 11.7 140.923 11.645 142.197C13.758 141.626 17.1 144.281 19.218 148.485Z" fill="#2B2119"/>
<path d="M84.815 188.826C86.059 189.404 84.775 190.442 83.465 190.193C79.905 189.513 80.839 187.849 78.038 187.469C77.216 187.356 76.673 187.288 76.742 186.462C76.838 185.276 74.897 184.837 76.082 184.923C78.008 185.061 80.479 185.261 81.251 185.741C82.372 186.439 83.93 188.415 84.815 188.826Z" fill="#986148"/>
</g>
<defs>
<filter id="filter0_d_2713_116" x="72.754" y="0.181999" width="389.492" height="464.492" filterUnits="userSpaceOnUse" color-interpolation-filters="sRGB">
<feFlood flood-opacity="0" result="BackgroundImageFix"/>
<feColorMatrix in="SourceAlpha" type="matrix" values="0 0 0 0 0 0 0 0 0 0 0 0 0 0 0 0 0 0 127 0" result="hardAlpha"/>
<feOffset dy="38.613"/>
<feGaussianBlur stdDeviation="42.123"/>
<feComposite in2="hardAlpha" operator="out"/>
<feColorMatrix type="matrix" values="0 0 0 0 0.0980392 0 0 0 0 0.34902 0 0 0 0 0.529412 0 0 0 0.16 0"/>
<feBlend mode="normal" in2="BackgroundImageFix" result="effect1_dropShadow_2713_116"/>
<feBlend mode="normal" in="SourceGraphic" in2="effect1_dropShadow_2713_116" result="shape"/>
</filter>
<filter id="filter1_d_2713_116" x="66" y="83.815" width="169" height="153" filterUnits="userSpaceOnUse" color-interpolation-filters="sRGB">
<feFlood flood-opacity="0" result="BackgroundImageFix"/>
<feColorMatrix in="SourceAlpha" type="matrix" values="0 0 0 0 0 0 0 0 0 0 0 0 0 0 0 0 0 0 127 0" result="hardAlpha"/>
<feOffset dy="11"/>
<feGaussianBlur stdDeviation="11"/>
<feComposite in2="hardAlpha" operator="out"/>
<feColorMatrix type="matrix" values="0 0 0 0 0.0980392 0 0 0 0 0.34902 0 0 0 0 0.529412 0 0 0 0.12 0"/>
<feBlend mode="normal" in2="BackgroundImageFix" result="effect1_dropShadow_2713_116"/>
<feBlend mode="normal" in="SourceGraphic" in2="effect1_dropShadow_2713_116" result="shape"/>
</filter>
<linearGradient id="paint0_linear_2713_116" x1="41.8789" y1="159.766" x2="73.1319" y2="159.766" gradientUnits="userSpaceOnUse">
<stop stop-color="#BFD1DA"/>
<stop offset="1" stop-color="#D5E3EA"/>
</linearGradient>
<radialGradient id="paint1_radial_2713_116" cx="0" cy="0" r="1" gradientUnits="userSpaceOnUse" gradientTransform="translate(31.8241 145.971) scale(20.7616 20.7616)">
<stop stop-color="#C3D4DD"/>
<stop offset="1" stop-color="#D5E3EA"/>
</radialGradient>
<clipPath id="clip0_2713_116">
<rect width="463" height="465" fill="white"/>
</clipPath>
</defs>
</svg>
