<svg width="650" height="650" viewBox="0 0 650 650" fill="none" xmlns="http://www.w3.org/2000/svg">
<g clip-path="url(#clip0_1695_818)">
<path d="M649.365 191.102C647.842 156.565 642.257 132.821 634.257 112.247C626.003 90.4073 613.305 70.8547 596.669 54.6005C580.415 38.0934 560.733 25.2666 539.147 17.142C518.454 9.14142 494.834 3.55637 460.297 2.03363C425.502 0.381926 414.456 0 326.206 0C237.956 0 226.91 0.381926 192.244 1.90467C157.707 3.42741 133.963 9.01742 113.394 17.0131C91.5499 25.2666 71.9973 37.9644 55.7431 54.6005C39.236 70.8547 26.4142 90.5363 18.2846 112.123C10.284 132.821 4.69895 156.436 3.17621 190.973C1.5245 225.768 1.14258 236.814 1.14258 325.064C1.14258 413.313 1.5245 424.359 3.04725 459.025C4.56999 493.562 10.16 517.306 18.1606 537.881C26.4142 559.72 39.236 579.272 55.7431 595.527C71.9973 612.034 91.6788 624.86 113.265 632.985C133.963 640.986 157.578 646.571 192.12 648.093C226.781 649.621 237.832 649.998 326.082 649.998C414.332 649.998 425.378 649.621 460.044 648.093C494.581 646.571 518.325 640.986 538.894 632.985C582.578 616.096 617.115 581.559 634.004 537.881C641.999 517.182 647.589 493.562 649.112 459.025C650.635 424.359 651.017 413.313 651.017 325.064C651.017 236.814 650.888 225.768 649.365 191.102ZM590.831 456.486C589.432 488.23 584.1 505.372 579.656 516.8C568.734 545.117 546.26 567.591 517.943 578.513C506.515 582.958 489.249 588.29 457.628 589.684C423.344 591.211 413.062 591.588 326.335 591.588C239.608 591.588 229.197 591.211 195.037 589.684C163.292 588.29 146.15 582.958 134.722 578.513C120.631 573.305 107.804 565.052 97.3928 554.259C86.5997 543.719 78.3462 531.021 73.1381 516.929C68.6938 505.501 63.3618 488.23 61.968 456.615C60.4403 422.331 60.0633 412.043 60.0633 325.316C60.0633 238.59 60.4403 228.178 61.968 194.023C63.3618 162.279 68.6938 145.137 73.1381 133.709C78.3462 119.612 86.5997 106.79 97.5218 96.3743C108.057 85.5811 120.755 77.3276 134.851 72.1245C146.279 67.6802 163.55 62.3481 195.166 60.9494C229.45 59.4267 239.737 59.0447 326.459 59.0447C413.315 59.0447 423.597 59.4267 457.757 60.9494C489.502 62.3481 506.644 67.6802 518.072 72.1245C532.163 77.3276 544.99 85.5811 555.401 96.3743C566.194 106.914 574.448 119.612 579.656 133.709C584.1 145.137 589.432 162.403 590.831 194.023C592.354 228.307 592.736 238.59 592.736 325.316C592.736 412.043 592.354 422.202 590.831 456.486Z" fill="white"/>
<path d="M326.204 158.087C234.021 158.087 159.229 232.875 159.229 325.063C159.229 417.251 234.021 492.039 326.204 492.039C418.392 492.039 493.18 417.251 493.18 325.063C493.18 232.875 418.392 158.087 326.204 158.087ZM326.204 433.377C266.401 433.377 217.891 384.872 217.891 325.063C217.891 265.255 266.401 216.75 326.204 216.75C386.013 216.75 434.518 265.255 434.518 325.063C434.518 384.872 386.013 433.377 326.204 433.377Z" fill="white"/>
<path d="M538.77 151.486C538.77 173.012 521.316 190.467 499.784 190.467C478.257 190.467 460.803 173.012 460.803 151.486C460.803 129.954 478.257 112.504 499.784 112.504C521.316 112.504 538.77 129.954 538.77 151.486Z" fill="white"/>
</g>
<defs>
<clipPath id="clip0_1695_818">
<rect width="650" height="650" fill="white"/>
</clipPath>
</defs>
</svg>
