<svg width="125" height="30" fill="none" xmlns="http://www.w3.org/2000/svg"><path d="M7.265 29.437h.93V13.51c0-.453.242-.87.635-1.094l6.762-3.856 6.746 3.856c.392.224.634.641.634 1.093v7.151c0 .787-.64 1.423-1.427 1.417l-4.952-.04a.993.993 0 0 0-1.001.994v6.406h13.785a.993.993 0 0 0 .993-.993V9.01a.993.993 0 0 0-.501-.862L15.592 0 1.312 8.147a.993.993 0 0 0-.5.862v19.38c0 .544.438.987.983.993l5.47.055Zm40.441-10.49c3.163 0 5.28-2.067 5.28-5.156 0-3.09-2.117-5.156-5.28-5.156h-4.397a1.889 1.889 0 0 0-1.889 1.888v13.559h3.394v-5.135h2.892Zm-.755-7.306c1.635 0 2.452.71 2.452 2.15s-.817 2.15-2.452 2.15h-2.137v-3.4a.9.9 0 0 1 .9-.9h1.237Zm14.672 2.003a5.376 5.376 0 0 0-1.236-.146c-1.404 0-2.325.69-2.765 1.712l-.168-1.545h-1.149a1.889 1.889 0 0 0-1.889 1.89v8.527h3.227v-4.53c0-2.067 1.11-2.88 2.954-2.88h1.026v-3.028Zm.445 5.198c0 3.298 2.43 5.49 5.782 5.49 3.332 0 5.762-2.192 5.762-5.49s-2.43-5.51-5.762-5.51c-3.352 0-5.782 2.212-5.782 5.51Zm3.247-.02c0-1.566 1.027-2.61 2.535-2.61 1.488 0 2.515 1.044 2.515 2.61 0 1.586-1.027 2.63-2.515 2.63-1.508 0-2.535-1.044-2.535-2.63Zm9.853 10.612h3.227v-6.396c.607.793 1.948 1.336 3.394 1.336 3.121 0 4.923-2.38 4.923-5.678 0-3.36-2.032-5.386-4.944-5.386-1.488 0-2.808.647-3.394 1.608l-.168-1.274h-1.15a1.889 1.889 0 0 0-1.888 1.89v13.9Zm3.247-10.57c0-1.567 1.048-2.61 2.556-2.61 1.53 0 2.494 1.064 2.494 2.61 0 1.544-.964 2.608-2.493 2.608-1.509 0-2.556-1.043-2.556-2.609Zm10.155 10.57h3.226v-6.396c.607.793 1.948 1.336 3.394 1.336 3.121 0 4.923-2.38 4.923-5.678 0-3.36-2.032-5.386-4.944-5.386-1.488 0-2.808.647-3.394 1.608l-.168-1.274h-1.149a1.889 1.889 0 0 0-1.889 1.89v13.9Zm3.247-10.57c0-1.567 1.047-2.61 2.556-2.61 1.53 0 2.493 1.064 2.493 2.61 0 1.544-.964 2.608-2.493 2.608-1.509 0-2.556-1.043-2.556-2.609Zm15.014 5.489c2.87 0 4.945-1.482 5.322-3.8h-2.954c-.231.752-1.09 1.19-2.305 1.19-1.425 0-2.2-.646-2.388-2.024l7.605-.042v-.814c0-3.402-2.053-5.553-5.343-5.553-3.163 0-5.363 2.276-5.363 5.532 0 3.215 2.263 5.511 5.426 5.511Zm-.042-8.433c1.299 0 2.116.71 2.116 1.816h-4.358c.252-1.253.964-1.816 2.242-1.816Zm11.632 8.433c1.508 0 2.807-.647 3.373-1.607l.069.548a.9.9 0 0 0 .893.788H125V8.342h-1.427a1.8 1.8 0 0 0-1.8 1.8v4.463c-.607-.773-1.844-1.295-3.142-1.295-3.185 0-5.175 2.297-5.175 5.616 0 3.298 1.948 5.427 4.965 5.427Zm.775-2.943c-1.529 0-2.493-1.065-2.493-2.61 0-1.544.964-2.609 2.493-2.609 1.509 0 2.556 1.044 2.556 2.61 0 1.565-1.047 2.609-2.556 2.609Z" fill="#fff"/></svg>