<?xml version="1.0" standalone="no"?>
<!DOCTYPE svg PUBLIC "-//W3C//DTD SVG 20010904//EN"
 "http://www.w3.org/TR/2001/REC-SVG-20010904/DTD/svg10.dtd">
<svg version="1.0" xmlns="http://www.w3.org/2000/svg"
 width="89.000000pt" height="89.000000pt" viewBox="0 0 89.000000 89.000000"
 preserveAspectRatio="xMidYMid meet">
<metadata>
Created by potrace 1.14, written by Peter Selinger 2001-2017
</metadata>
<g transform="translate(0.000000,89.000000) scale(0.100000,-0.100000)"
fill="#000000" stroke="none">
<path d="M250 757 c-97 -56 -192 -112 -213 -124 l-37 -22 0 -306 0 -305 110 0
110 0 1 178 c0 97 0 205 -1 239 l-1 62 40 25 c22 15 42 26 45 26 2 0 34 18 70
40 l67 41 97 -56 c53 -30 103 -59 111 -64 11 -7 15 -38 16 -132 2 -155 1 -157
-113 -154 -45 1 -87 -2 -94 -6 -8 -5 -13 -38 -14 -103 l-1 -96 221 0 222 0 -2
303 c0 166 -2 305 -3 308 0 4 -83 53 -183 110 -101 56 -190 108 -199 116 -41
35 -67 27 -249 -80z"/>
</g>
</svg>
