<svg width="650" height="650" viewBox="0 0 650 650" fill="none" xmlns="http://www.w3.org/2000/svg">
<g clip-path="url(#clip0_1695_832)">
<path d="M573.828 0H76.1719C34.1707 0 0 34.1707 0 76.1719V573.828C0 615.829 34.1707 650 76.1719 650H573.828C615.829 650 650 615.829 650 573.828V76.1719C650 34.1707 615.829 0 573.828 0ZM599.219 573.828C599.219 587.829 587.829 599.219 573.828 599.219H429.102V392.285H507.546L520.508 313.574H429.102V258.984C429.102 237.434 445.637 220.898 467.188 220.898H519.238V142.188H467.188C402.539 142.188 350.419 194.556 350.419 259.205V313.574H274.219V392.285H350.419V599.219H76.1719C62.1715 599.219 50.7812 587.829 50.7812 573.828V76.1719C50.7812 62.1715 62.1715 50.7812 76.1719 50.7812H573.828C587.829 50.7812 599.219 62.1715 599.219 76.1719V573.828Z" fill="white"/>
</g>
<defs>
<clipPath id="clip0_1695_832">
<rect width="650" height="650" fill="white"/>
</clipPath>
</defs>
</svg>
