<?xml version="1.0" standalone="no"?>
<!DOCTYPE svg PUBLIC "-//W3C//DTD SVG 1.1//EN" "http://www.w3.org/Graphics/SVG/1.1/DTD/svg11.dtd" >
<svg xmlns="http://www.w3.org/2000/svg">
<metadata>Generated by IcoMoon</metadata>
<defs>
<font id="icomoon" horiz-adv-x="1024">
<font-face units-per-em="1024" ascent="960" descent="-64" />
<missing-glyph horiz-adv-x="1024" />
<glyph unicode="&#x20;" horiz-adv-x="512" d="" />
<glyph unicode="&#xe900;" glyph-name="star" d="M460.815 900.411c16.111 49.584 86.259 49.584 102.373-0.001l83.966-258.435c7.207-22.174 27.874-37.189 51.19-37.189h271.736c52.132 0 73.81-66.715 31.633-97.361l-219.839-159.724c-18.862-13.701-26.753-37.994-19.552-60.173l83.971-258.431c16.116-49.586-40.638-90.816-82.823-60.173l-219.836 159.719c-18.863 13.707-44.406 13.707-63.268 0l-219.839-159.719c-42.179-30.65-98.932 10.587-82.82 60.173l83.971 258.431c7.205 22.177-0.688 46.471-19.551 60.173l-219.838 159.724c-42.179 30.646-20.502 97.361 31.635 97.361h271.735c23.316 0 43.981 15.014 51.185 37.189l83.971 258.436z" />
<glyph unicode="&#xe901;" glyph-name="location-pin" d="M190.188 43.27c-29.622 0-53.635-24.013-53.635-53.635v0c0-29.622 24.013-53.635 53.635-53.635v0h643.62c29.622 0 53.635 24.013 53.635 53.635v0c0 29.622-24.013 53.635-53.635 53.635v0zM511.998 745.46c-101.009 0-183.719-82.712-183.719-183.719s82.71-183.719 183.719-183.719 183.719 82.71 183.719 183.719c0 101.007-82.708 183.719-183.719 183.719zM511.998 664.075c56.977 0 102.334-45.36 102.334-102.334 0-56.978-45.356-102.334-102.334-102.334s-102.334 45.356-102.334 102.334c0 56.975 45.357 102.334 102.334 102.334zM511.998 960c-105.621 0-206.991-41.896-281.676-116.581s-116.581-176.056-116.581-281.676c0-351.985 374.886-605.442 374.886-605.442 6.513-4.611 14.62-7.37 23.373-7.37s16.859 2.76 23.5 7.456l-0.127-0.086c0 0 374.886 253.457 374.886 605.442 0 105.622-41.898 206.992-116.581 281.676s-176.057 116.581-281.676 116.581zM511.998 878.615c84.043 0 164.611-33.41 224.038-92.837s92.837-139.995 92.837-224.038c0-271.606-276.35-486.079-316.874-516.795-40.525 30.716-316.874 245.189-316.874 516.795 0 84.044 33.409 164.61 92.837 224.038s139.995 92.837 224.038 92.837z" />
<glyph unicode="&#xe902;" glyph-name="map" d="M995.556 960l-9.102-1.707-303.787-117.76-341.333 119.467-320.853-108.089c-11.947-3.982-20.48-14.222-20.48-27.307v-860.16c0-15.929 12.516-28.444 28.444-28.444l9.102 1.707 303.787 117.76 341.333-119.467 320.853 108.089c11.947 3.982 20.48 14.222 20.48 27.307v860.16c0 15.929-12.516 28.444-28.444 28.444zM398.222 819.484l227.556-79.644v-663.324l-227.556 79.644v663.324zM113.778 763.164l170.667 57.458v-665.6l-170.667-65.991v674.133zM910.222 132.836l-170.667-57.458v665.031l170.667 65.991v-673.564z" />
<glyph unicode="&#xe903;" glyph-name="phone" d="M201.387 846.222c3.413-50.631 11.947-100.124 25.6-147.342l-68.267-68.267c-23.324 68.267-38.116 140.516-43.236 215.609h85.902zM762.311 162.418c48.356-13.653 97.849-22.187 147.911-25.6v-84.764c-75.093 5.12-147.342 19.911-216.178 42.667l68.267 67.698zM256 960h-199.111c-31.289 0-56.889-25.6-56.889-56.889 0-534.187 432.924-967.111 967.111-967.111 31.289 0 56.889 25.6 56.889 56.889v198.542c0 31.289-25.6 56.889-56.889 56.889-70.542 0-139.378 11.378-203.093 32.427-5.689 2.276-11.947 2.844-17.636 2.844-14.791 0-29.013-5.689-40.391-16.498l-125.156-125.156c-160.996 82.489-292.978 213.902-374.898 374.898l125.156 125.156c15.929 15.929 20.48 38.116 14.222 58.027-21.049 63.716-32.427 131.982-32.427 203.093 0 31.289-25.6 56.889-56.889 56.889z" />
<glyph unicode="&#xe904;" glyph-name="search" d="M731.847 315.975h-46.252l-16.393 15.808c57.377 66.744 91.92 153.395 91.92 247.657 0 210.186-170.374 380.56-380.56 380.56s-380.56-170.374-380.56-380.56c0-210.186 170.374-380.56 380.56-380.56 94.262 0 180.913 34.543 247.657 91.92l15.808-16.393v-46.252l292.738-292.154 87.236 87.236-292.154 292.738zM380.561 315.975c-145.783 0-263.465 117.681-263.465 263.465s117.681 263.465 263.465 263.465c145.783 0 263.465-117.681 263.465-263.465s-117.681-263.465-263.465-263.465z" />
<glyph unicode="&#xe905;" glyph-name="pricing-circle" d="M512 960c-282.665 0-512-229.335-512-512s229.335-512 512-512c282.665 0 512 229.335 512 512s-229.335 512-512 512zM512 942.895c273.428 0 494.924-221.466 494.924-494.895s-221.496-494.895-494.924-494.895c-273.428 0-494.895 221.466-494.895 494.895s221.466 494.895 494.895 494.895zM300.291 640.939c-0.006 0-0.013 0-0.021 0-9.945 0-18.005-8.061-18.005-18.005 0-0.007 0-0.015 0-0.022v0.001-360.072c0-0.006 0-0.012 0-0.019 0-9.945 8.062-18.007 18.007-18.007 0.007 0 0.013 0 0.020 0h427.304c0.006 0 0.013 0 0.021 0 9.945 0 18.005 8.061 18.005 18.005 0 0.007 0 0.015 0 0.022v-0.001c-0.005 9.941-8.064 17.995-18.005 17.995-0.007 0-0.015 0-0.022 0h-409.308v46.594l124.429 125.855 58.413-59.067c3.266-3.307 7.801-5.356 12.814-5.356s9.548 2.049 12.812 5.354l0.002 0.002 147.236 148.869v-46.208c0.005-9.936 8.059-17.991 17.995-17.995v0c0.006 0 0.013 0 0.021 0 9.942 0 18.001 8.056 18.005 17.995v0 90.040c0 0.004 0 0.009 0 0.014s0 0.010 0 0.015v-0.001c0 0.009 0 0.019 0 0.029s0 0.020 0 0.031v-0.002c-0.030 1.48-0.234 2.897-0.593 4.254l0.028-0.126c-0.077 0.381-0.138 0.639-0.206 0.897l0.027-0.125c-0.412 1.397-0.928 2.608-1.562 3.744l0.047-0.091c-0.206 0.362-0.372 0.634-0.547 0.9l0.042-0.070c-0.752 1.235-1.586 2.305-2.528 3.27l0.003-0.004c-0.010 0.010-0.019 0.019-0.029 0.029v0c-0.010 0.010-0.019 0.019-0.029 0.029v0c0.029-0.015-0.018 0.014-0.068 0.044l-0.081 0.045c-1.435 1.344-3.104 2.46-4.934 3.281l-0.114 0.046c-0.359 0.175-0.84 0.373-1.329 0.554l-0.125 0.040c-1.784 0.705-3.848 1.137-6.007 1.187h-89.022c-0.006 0-0.013 0-0.021 0-9.942 0-18.001-8.056-18.005-17.995v0c0-0.006 0-0.013 0-0.021 0-9.945 8.061-18.005 18.005-18.005 0.007 0 0.015 0 0.022 0h45.85l-134.912-136.426-58.413 59.067c-3.265 3.299-7.794 5.341-12.799 5.341s-9.535-2.043-12.797-5.34l-111.631-112.879v244.255c0 0.006 0 0.013 0 0.021 0 9.942-8.056 18.001-17.995 18.005v0z" />
<glyph unicode="&#xe906;" glyph-name="management-circle" d="M512 960c-282.674 0-512-229.326-512-512s229.326-512 512-512c282.674 0 512 229.326 512 512s-229.326 512-512 512zM512 943.579c273.806 0 495.607-221.772 495.607-495.579s-221.801-495.607-495.607-495.607c-273.806 0-495.607 221.801-495.607 495.607s221.801 495.579 495.607 495.579zM511.973 678.071c-126.866 0-230.071-103.205-230.071-230.071 0-126.864 103.205-230.098 230.071-230.098s230.098 103.234 230.098 230.098c0 126.866-103.233 230.071-230.098 230.071zM511.973 642.321c107.538 0 194.349-86.782 194.349-194.319s-86.811-194.349-194.349-194.349-194.319 86.813-194.319 194.349c0 107.538 86.782 194.319 194.319 194.319zM512 589.664c-0.006 0-0.014 0-0.021 0-9.873 0-17.878-8.002-17.881-17.874v0-123.787c0-0.006 0-0.012 0-0.019 0-9.877 8.007-17.883 17.883-17.883 0.007 0 0.014 0 0.020 0h123.786c9.873 0.004 17.875 8.008 17.875 17.881 0 0.007 0 0.015 0 0.022v-0.001c-0.004 9.87-8.004 17.871-17.874 17.875h-105.913v105.912c-0.004 9.87-8.004 17.871-17.874 17.875v0z" />
<glyph unicode="&#xe907;" glyph-name="leasing-circle" d="M512 960c-282.665 0-512-229.335-512-512s229.335-512 512-512c282.665 0 512 229.335 512 512s-229.335 512-512 512zM512 942.895c273.428 0 494.895-221.467 494.895-494.895s-221.467-494.895-494.895-494.895c-273.428 0-494.895 221.467-494.895 494.895s221.467 494.895 494.895 494.895zM510.665 605.54c-2.872-0.040-5.759-0.465-8.553-1.277-0.145-0.043-0.175-0.055-0.204-0.065l-98.21-29.039-45.228 22.866c0.022-0.011-0.026 0.018-0.075 0.047l-0.074 0.041c-7.643 3.767-16.504 4.364-24.589 1.663-8.087-2.698-14.766-8.489-18.65-16.036l-49.712-96.217c-2.017-3.839-3.248-8.055-3.623-12.384-0.375-4.323 0.135-8.675 1.455-12.799 1.32-4.112 3.445-7.959 6.266-11.255 2.817-3.287 6.278-5.997 10.156-7.929 0.020-0.010 0.039-0.019 0.060-0.029l48.405-24.56 109.135-86.15c3.458-2.84 7.479-4.955 11.819-6.177 0.022-0.012 0.161-0.053 0.301-0.092l0.115-0.027 117.361-29.667c0.055-0.019 0.225-0.060 0.396-0.098l0.109-0.020c5.323-1.162 10.846-0.992 16.095 0.476 5.246 1.466 10.062 4.187 14.016 7.929 0.132 0.128 0.258 0.253 0.382 0.382l0.004 0.004 74.48 75.281c0.287 0.301 0.568 0.62 0.838 0.95l0.023 0.029 30.261 35.903 46.95 23.639c3.898 1.965 7.342 4.702 10.156 8.018 2.821 3.322 4.954 7.154 6.266 11.284 1.312 4.133 1.774 8.499 1.395 12.829-0.378 4.32-1.607 8.532-3.623 12.384l-49.712 96.247c-3.901 7.604-10.64 13.389-18.798 16.036s-17.086 1.912-24.708-2.019l-46.98-23.757h-32.963l-66.788 30.647c-4.404 2.012-9.172 3.008-13.958 2.94zM511.11 572.785l15.621-7.157c-1.32-0.979-2.584-2.042-3.742-3.207-0.004 0-0.010 0-0.015 0s-0.010 0-0.015 0h0.001l-79.29-80.003c-0.061-0.060-0.118-0.118-0.176-0.176l-0.002-0.002c-3.224-3.348-5.704-7.332-7.276-11.7-1.572-4.369-2.21-9.008-1.871-13.631 0.339-4.625 1.658-9.147 3.861-13.245 2.198-4.089 5.226-7.682 8.909-10.513 0.004 0 0.010 0 0.015 0s0.010 0 0.015 0h-0.001l10.929-8.374c0.030-0.030 0.059-0.060 0.088-0.088l0.001-0.001c14.045-10.6 31.137-16.333 48.702-16.333s34.688 5.733 48.733 16.333c0.010 0.010 0.020 0.019 0.029 0.029v0l16.155 12.235 63.907-46.98-60.73-61.442c-0.1-0.096-0.217-0.178-0.327-0.208-0.087-0.024-0.181-0.011-0.268 0h-0.060l-116.351 29.429c-0.048 0.042-0.116 0.101-0.184 0.159l-0.024 0.020-100.107 78.993 55.176 106.819 98.296 29.044zM344.126 568.598l35.428-17.907-49.712-96.306-35.428 17.997 49.712 96.217zM685.905 566.4l49.623-96.069c0.020-0.020 0.039-0.039 0.059-0.059l0.001-0.001c0.004-0.008-0.002-0.032 0-0.060 0.002-0.018 0.008-0.035 0-0.060l-35.458-17.878-49.742 96.158 35.517 17.966zM546.063 539.227h72.252l55.147-106.641-15.472-18.382-76.677 56.365c-2.68 1.991-6.053 3.188-9.705 3.188-3.723 0-7.155-1.243-9.905-3.336l0.040 0.029-25.895-19.66c-8.392-6.324-18.562-9.711-28.984-9.711-10.435 0-20.586 3.403-28.984 9.74l-10.839 8.345c-0.014 0.026-0.025 0.094-0.029 0.148-0.004 0.058-0.015 0.104 0 0.148l0.060 0.089 78.993 79.676zM368.21 344.625c-4.492-0.309-8.445-2.387-11.21-5.535l-0.016-0.018c-2.515-2.863-4.050-6.642-4.050-10.778 0-4.891 2.146-9.281 5.546-12.281l0.018-0.015 45.555-39.942c3.942-3.559 8.718-6.075 13.898-7.276l60.581-15.472c1.22-0.325 2.62-0.513 4.064-0.513 7.606 0 14 5.188 15.837 12.218l0.025 0.114c0.321 1.212 0.506 2.602 0.506 4.037 0 7.603-5.185 13.995-12.211 15.835l-0.114 0.025-60.908 15.561c-0.009 0-0.019 0-0.029 0s-0.021 0-0.031 0h0.002l-45.584 40.002c-2.868 2.529-6.656 4.074-10.806 4.074-0.378 0-0.752-0.013-1.123-0.038l0.050 0.003z" />
<glyph unicode="&#xe908;" glyph-name="rent-circle" d="M512 960c-282.665 0-512-229.335-512-512s229.335-512 512-512c282.665 0 512 229.335 512 512s-229.335 512-512 512zM512 942.895c273.428 0 494.894-221.467 494.894-494.894s-221.467-494.894-494.894-494.894c-273.428 0-494.894 221.467-494.894 494.894s221.467 494.894 494.894 494.894zM348.758 640.939c-14.266 0-27.951-5.775-37.982-15.917-10.032-10.144-15.62-23.837-15.62-38.1v-288.087c0-14.265 5.587-27.987 15.62-38.13 10.029-10.142 23.714-15.887 37.982-15.887h356.122c9.546 0 18.699 3.864 25.391 10.632 6.693 6.766 10.394 15.899 10.394 25.391v252.065c0 9.491-3.706 18.626-10.394 25.391-6.693 6.77-15.85 10.602-25.391 10.602h-356.122c-4.623 0-9.058 1.864-12.384 5.226s-5.226 7.964-5.226 12.8 1.901 9.436 5.226 12.8c3.326 3.363 7.759 5.196 12.384 5.196h302.698c9.937 0.005 17.992 8.059 17.996 17.996v0c0 0.006 0 0.013 0 0.022 0 9.941-8.056 18-17.996 18.004h-302.699zM331.147 536.437c5.65-1.999 11.506-3.534 17.61-3.534h355.914v-252.065h-355.914c-4.623 0-9.058 1.834-12.384 5.196-3.325 3.361-5.226 7.964-5.226 12.8v237.603zM624.729 433.864c-14.75 0-26.697-12.078-26.697-26.994s11.947-27.024 26.697-27.024c14.75 0 26.727 12.108 26.727 27.024s-11.977 26.994-26.727 26.994z" />
<glyph unicode="&#xe909;" glyph-name="tenants-circle" d="M512 960c-282.665 0-512-229.335-512-512s229.335-512 512-512c282.665 0 512 229.335 512 512s-229.335 512-512 512zM512 942.896c273.428 0 494.895-221.466 494.895-494.895s-221.466-494.895-494.895-494.895c-273.428 0-494.895 221.466-494.895 494.895s221.466 494.895 494.895 494.895zM358.796 633.842c-8.325-0.265-16.621-1.703-24.618-4.306-15.993-5.203-30.179-14.861-40.893-27.825s-17.503-28.719-19.599-45.407c-2.098-16.686 0.607-33.609 7.78-48.821 4.921-10.436 11.858-19.729 20.283-27.47-2.495-1.082-4.956-2.226-7.394-3.444-20.913-10.456-39.1-25.668-53.097-44.396-2.214-2.943-3.545-6.659-3.545-10.687 0-5.836 2.797-11.021 7.122-14.284l0.045-0.032c2.949-2.23 6.679-3.57 10.721-3.57 5.834 0 11.017 2.795 14.281 7.118l0.032 0.045c10.661 14.266 24.486 25.86 40.417 33.824s33.505 12.085 51.316 12.057c0.019 0 0.040 0 0.060 0 1.554 0.008 3.057 0.213 4.491 0.593l-0.125-0.027c0.275 0.067 0.423 0.108 0.571 0.149l-0.126-0.030c1.549 0.436 2.9 1.013 4.155 1.738l-0.086-0.046c0.122 0.057 0.141 0.067 0.16 0.077l-0.101-0.047c1.388 0.819 2.588 1.753 3.652 2.82v0c0.020 0.020 0.040 0.039 0.059 0.059l0.001 0.001c1.056 1.057 1.98 2.246 2.746 3.54l0.045 0.083c0.010 0.010 0.019 0.019 0.029 0.029v0c0 0.004 0 0.009 0 0.014s0 0.010 0 0.015v-0.001c0.684 1.185 1.262 2.557 1.662 4.002l0.029 0.126c-0.007-0.037 0.023 0.052 0.052 0.141l0.037 0.126c0.369 1.344 0.586 2.887 0.595 4.48v0.005c0 0.004 0 0.009 0 0.014s0 0.010 0 0.015v-0.001c0 0.004 0 0.009 0 0.014s0 0.010 0 0.015v-0.001c0 0.004 0 0.009 0 0.014s0 0.010 0 0.015v-0.001c-0.009 1.967-0.334 3.855-0.928 5.619l0.037-0.126c-0.010 0.010-0.019 0.019-0.029 0.029v0c-0.616 1.893-1.463 3.537-2.531 5.012l0.036-0.052c-0.029 0.029-0.060 0.060-0.088 0.088l-0.001 0.001c-1.064 1.424-2.287 2.649-3.666 3.679l-0.047 0.033c-0.050 0.041-0.137 0.11-0.225 0.177l-0.042 0.030c-1.398 1.013-3.012 1.849-4.743 2.429l-0.126 0.037c-0.009 0-0.019 0-0.029 0s-0.020 0-0.031 0h0.002c-1.62 0.55-3.486 0.875-5.427 0.891h-0.007c-0.004 0-0.009 0-0.014 0s-0.010 0-0.015 0h0.001c-10.033-0.010-19.883 2.827-28.36 8.196s-15.232 13.019-19.511 22.094c-4.279 9.072-5.884 19.178-4.633 29.133s5.311 19.351 11.7 27.084c6.392 7.735 14.842 13.497 24.381 16.6 9.541 3.105 19.767 3.413 29.489 0.921 9.717-2.491 18.518-7.683 25.391-14.998 6.869-7.311 11.512-16.424 13.393-26.282 1.628-8.336 8.874-14.539 17.566-14.539 1.181 0 2.336 0.115 3.453 0.333l-0.113-0.018c8.338 1.626 14.544 8.873 14.544 17.567 0 1.191-0.117 2.355-0.339 3.481l0.018-0.114c-3.153 16.52-10.934 31.813-22.451 44.069s-26.294 20.976-42.584 25.153c-8.146 2.088-16.502 2.997-24.826 2.732zM665.205 633.842c-8.318 0.265-16.681-0.643-24.826-2.732-16.294-4.177-31.070-12.897-42.584-25.153s-19.299-27.547-22.451-44.069c-0.204-1.014-0.321-2.18-0.321-3.373 0-8.685 6.193-15.924 14.403-17.544l0.114-0.018c1.012-0.204 2.177-0.32 3.368-0.32 8.695 0 15.941 6.207 17.549 14.431l0.018 0.113c1.88 9.855 6.524 18.971 13.393 26.282s15.671 12.505 25.391 14.998c9.718 2.491 19.951 2.184 29.489-0.921 9.54-3.103 17.988-8.866 24.381-16.6 6.39-7.732 10.449-17.128 11.7-27.084s-0.354-20.060-4.633-29.133c-4.28-9.075-11.064-16.726-19.54-22.094s-18.297-8.206-28.331-8.196h-0.029c-1.811-0.026-3.544-0.318-5.175-0.837l0.127 0.035c-0.666-0.234-1.196-0.455-1.712-0.7l0.109 0.046c-1.231-0.482-2.287-1.032-3.276-1.676l0.069 0.042c-0.516-0.366-0.961-0.718-1.388-1.088l0.022 0.018c-0.896-0.734-1.694-1.521-2.412-2.378l-0.022-0.027c-0.384-0.455-0.764-0.958-1.117-1.482l-0.040-0.064c-0.616-0.938-1.174-2.013-1.621-3.145l-0.042-0.121c-0.162-0.332-0.351-0.782-0.524-1.243l-0.040-0.124c-0.47-1.457-0.76-3.137-0.801-4.878v-0.021c-0.001 0.011-0.011-0.070-0.021-0.151l-0.008-0.086c0-0.004 0-0.009 0-0.014s0-0.010 0-0.015v0.001c0-0.004 0-0.009 0-0.014s0-0.010 0-0.015v0.001c0.026-1.811 0.318-3.544 0.837-5.175l-0.035 0.127c0.227-0.635 0.438-1.136 0.67-1.623l-0.046 0.109c0.489-1.254 1.048-2.33 1.705-3.335l-0.042 0.069c0.366-0.516 0.718-0.961 1.088-1.388l-0.018 0.022c0.734-0.896 1.521-1.694 2.378-2.412l0.027-0.022c0.455-0.384 0.958-0.764 1.482-1.117l0.064-0.040c0.955-0.629 2.050-1.199 3.205-1.65l0.122-0.042c0.296-0.147 0.707-0.328 1.125-0.493l0.122-0.042c1.56-0.511 3.354-0.814 5.218-0.832h0.009c17.812 0.028 35.385-4.092 51.316-12.057s29.783-19.558 40.446-33.824c3.297-4.369 8.479-7.164 14.314-7.164 4.042 0 7.771 1.341 10.766 3.603l-0.045-0.032c4.372 3.297 7.169 8.48 7.169 14.317 0 4.027-1.331 7.744-3.578 10.733l0.032-0.046c-13.998 18.727-32.184 33.94-53.097 44.396-2.439 1.219-4.901 2.363-7.394 3.444 8.425 7.74 15.362 17.033 20.283 27.47 7.174 15.213 9.876 32.135 7.78 48.821-2.098 16.686-8.915 32.442-19.629 45.407-10.713 12.965-24.898 22.622-40.893 27.825-7.996 2.603-16.27 4.041-24.589 4.306zM512 527.766c-58.496 0-106.313-47.788-106.313-106.284 0-34.234 16.384-64.804 41.694-84.279-6.861-3.036-13.517-6.54-19.926-10.542-25.35-15.833-45.745-38.475-58.859-65.333-1.142-2.289-1.809-4.985-1.809-7.838 0-7.020 4.045-13.095 9.93-16.022l0.104-0.047c2.289-1.142 4.985-1.809 7.838-1.809 7.020 0 13.095 4.045 16.022 9.93l0.047 0.104c10.176 20.84 26.003 38.376 45.674 50.662 19.672 12.286 42.407 18.798 65.6 18.798s45.9-6.512 65.57-18.798c19.672-12.286 35.497-29.823 45.674-50.662 2.974-5.991 9.048-10.035 16.069-10.035 2.853 0 5.549 0.668 7.941 1.855l-0.105-0.047c5.991 2.974 10.035 9.048 10.035 16.069 0 2.853-0.668 5.549-1.855 7.941l0.047-0.105c-13.114 26.857-33.507 49.5-58.859 65.333-6.402 3.999-13.047 7.508-19.896 10.542 25.311 19.475 41.694 50.046 41.694 84.279 0 58.496-47.817 106.284-106.313 106.284zM512 492.011c39.169 0 70.53-31.361 70.53-70.53s-31.361-70.53-70.53-70.53c-39.169 0-70.53 31.361-70.53 70.53s31.361 70.53 70.53 70.53z" />
<glyph unicode="&#xe90a;" glyph-name="check" d="M951.606 813.457c-0.002 0-0.004 0-0.007 0-19.962 0-38.035-8.085-51.124-21.159l-535.010-535.010-241.94 241.94c-13.089 13.077-31.166 21.164-51.131 21.164s-38.042-8.087-51.132-21.164l0.001 0.001c-13.135-13.099-21.263-31.215-21.263-51.228s8.127-38.129 21.261-51.227l293.072-293.072c13.090-13.076 31.166-21.161 51.131-21.161s38.041 8.086 51.132 21.162l586.141 586.141c13.135 13.099 21.263 31.215 21.263 51.228s-8.127 38.129-21.261 51.227l-0.002 0.002c-13.089 13.073-31.162 21.158-51.124 21.158-0.002 0-0.004 0-0.007 0h0.001z" />
<glyph unicode="&#xe90b;" glyph-name="home" d="M512 745.472l256.001-230.4v-399.873h-102.401v307.2h-307.2v-307.2h-102.4v399.873l256 230.4zM512 883.201l-512-460.801h153.6v-409.602h307.201v307.2h102.398v-307.2h307.2v409.602h153.6l-512 460.801z" />
<glyph unicode="&#xe90c;" glyph-name="chevron-down" d="M903.68 768l-391.68-395.574-391.68 395.574-120.32-121.781 512-518.219 512 518.219-120.32 121.781z" />
<glyph unicode="&#xe90d;" glyph-name="twitter" d="M914.287 959.999h-804.572c-60.571 0-109.714-49.142-109.714-109.714v-804.572c0-60.57 49.142-109.713 109.714-109.713h804.572c60.57 0 109.713 49.143 109.713 109.713v804.572c0 60.571-49.143 109.714-109.713 109.714zM802.514 597.029c0.456-6.4 0.456-13.030 0.456-19.429 0-198.17-150.856-426.513-426.512-426.513-85.028 0-163.885 24.682-230.171 67.2 12.115-1.374 23.771-1.83 36.115-1.83 70.171 0 134.629 23.774 186.057 64-65.828 1.374-121.143 44.573-140.113 104 23.085-3.426 43.885-3.426 67.658 2.744-68.571 13.944-120 74.286-120 147.2v1.83c19.885-11.2 43.199-18.060 67.658-18.974-20.561 13.68-37.418 32.23-49.063 54.008s-17.719 46.097-17.679 70.792c0 27.886 7.315 53.486 20.342 75.657 73.829-90.971 184.686-150.4 309.030-156.799-21.256 101.714 54.856 184.229 146.282 184.229 43.199 0 82.060-18.057 109.486-47.314 33.83 6.4 66.287 18.97 95.087 36.115-11.2-34.743-34.744-64-65.83-82.514 30.174 3.2 59.43 11.658 86.4 23.314-20.343-29.943-45.943-56.457-75.2-77.714z" />
<glyph unicode="&#xe90e;" glyph-name="linkedin" d="M931.37 960h-838.741c-51.157 0-92.629-41.472-92.629-92.629v-838.737c0-51.161 41.472-92.634 92.629-92.634h838.737c51.161 0 92.634 41.472 92.634 92.634v838.737c0 51.157-41.472 92.629-92.629 92.629zM316.868 75.812c0-14.886-12.069-26.957-26.956-26.957h-114.747c-14.888 0-26.957 12.071-26.957 26.957v481.016c0 14.888 12.069 26.956 26.957 26.956h114.747c14.888 0 26.956-12.069 26.956-26.956v-481.016zM232.539 629.126c-60.204 0-109.010 48.806-109.010 109.010s48.806 109.010 109.010 109.010c60.204 0 109.010-48.806 109.010-109.010s-48.803-109.010-109.010-109.010zM916.534 73.64c0-13.688-11.098-24.785-24.785-24.785h-123.131c-13.688 0-24.785 11.098-24.785 24.785v225.626c0 33.655 9.869 147.491-87.961 147.491-75.886 0-91.277-77.917-94.37-112.883v-260.232c0-13.688-11.094-24.785-24.785-24.785h-119.089c-13.688 0-24.785 11.098-24.785 24.785v485.358c0 13.688 11.098 24.785 24.785 24.785h119.089c13.688 0 24.785-11.098 24.785-24.785v-41.967c28.139 42.23 69.957 74.822 158.993 74.822 197.166 0 196.040-184.203 196.040-285.412v-232.802z" />
<glyph unicode="&#xe90f;" glyph-name="arrow-left" d="M255.36 384h768.64v128h-768.64v192l-255.36-256 255.36-256v192z" />
<glyph unicode="&#xe910;" glyph-name="arrow-right" d="M768.64 512h-768.64v-128h768.64v-192l255.36 256-255.36 256v-192z" />
<glyph unicode="&#xe911;" glyph-name="cooling" d="M548.502 959.995v-137.556l146.965 79.359 36.502-59.155-183.467-99.020v-236.473l219.022 118.236v198.078h73.008v-158.653l127.433 68.746 36.506-59.12-127.433-68.775 146.962-79.327-36.502-59.155-183.467 99.091-219.022-118.239 219.059-118.272 183.431 99.056 36.502-59.12-146.962-79.323 127.433-68.813-36.506-59.12-127.433 68.78v-158.686h-73.008v198.111l-219.022 118.272v-236.511l183.467-99.053-36.502-59.117-146.965 79.359v-137.592h-73.004v137.592l-146.965-79.359-36.502 59.117 183.467 99.053v236.511l-219.022-118.239v-198.143h-73.008v158.72l-127.397-68.813-36.506 59.12 127.359 68.813-146.926 79.323 36.502 59.12 183.431-99.020 219.022 118.236-218.986 118.239-183.467-99.091-36.502 59.155 146.962 79.327-127.397 68.775 36.506 59.12 127.397-68.746v158.653h73.008v-198.078l219.022-118.236v236.473l-183.467 99.020 36.502 59.155 146.965-79.359v137.556h73.004z" />
<glyph unicode="&#xe912;" glyph-name="pets" d="M358.363 921.22c-69.916 0-127.982-59.413-127.982-132.574s58.064-132.574 127.982-132.574c69.916 0 127.982 59.413 127.982 132.574s-58.068 132.574-127.982 132.574zM665.636 921.22c-69.916 0-127.982-59.414-127.982-132.574s58.064-132.574 127.982-132.574c69.918 0 127.982 59.413 127.982 132.574s-58.066 132.574-127.982 132.574zM358.363 842.873c25.615 0 49.633-21.616 49.633-54.225s-24.021-54.225-49.633-54.225c-25.618 0-49.633 21.616-49.633 54.225s24.013 54.225 49.633 54.225zM665.636 842.873c25.62 0 49.633-21.616 49.633-54.225s-24.014-54.225-49.633-54.225c-25.618 0-49.633 21.615-49.633 54.225s24.013 54.225 49.633 54.225zM127.982 709.061c-69.916 0-127.982-59.343-127.982-132.5s58.066-132.574 127.982-132.574c69.916 0 127.982 59.413 127.982 132.574s-58.066 132.5-127.982 132.5zM896.017 709.061c-69.916 0-127.982-59.341-127.982-132.5s58.066-132.574 127.982-132.574c69.915 0 127.982 59.413 127.982 132.574s-58.068 132.5-127.982 132.5zM127.982 630.711c25.62 0 49.633-21.545 49.633-54.151s-24.013-54.225-49.633-54.225c-25.62 0-49.633 21.615-49.633 54.225s24.013 54.151 49.633 54.151zM896.017 630.711c25.615 0 49.633-21.545 49.633-54.151s-24.018-54.225-49.633-54.225c-25.62 0-49.633 21.616-49.633 54.225s24.013 54.151 49.633 54.151zM518.049 591.5l-46.498-8.746c-0.168-0.031-0.339-0.112-0.511-0.145-5.438-1.057-10.925-2.598-16.399-4.665-36.871-13.112-64.436-40.105-89.427-69.822l-0.145-0.145-0.073-0.145c-15.848-19.241-30.854-37.576-45.624-55.61-26.556-32.419-52.419-63.912-81.263-98.537v-0.073c-4.084-4.231-8.149-8.394-12.244-12.608-30.446-31.338-61.237-62.668-85.71-100.067-26.378-40.301-43.035-87.114-36.588-138.259l0.364-2.988 0.875-2.988c15.508-53.604 54.816-105.26 117.925-119.964l0.801-0.145 0.801-0.219c14.802-2.79 21.163-1.461 41.179 0.511 16.194 1.595 34.371 4.135 55.391 6.997 3.425 0.467 6.974 0.969 10.569 1.457 50.173 6.799 112.262 14.649 175.429 14.649h9.257c63.18 0 125.247-7.768 175.429-14.504 4.095-0.549 8.051-1.077 11.952-1.604 20.429-2.76 38.176-5.2 54.006-6.778 19.58-1.954 27.14-2.919 40.376-0.801l1.457 0.219 1.385 0.364c63.016 14.877 101.965 66.714 117.487 119.892l0.875 2.916 0.364 2.988c6.703 51.391-9.844 98.418-36.15 138.768-24.445 37.502-55.225 68.764-85.71 100.141-4.074 4.198-8.121 8.415-12.171 12.608-16.089 19.537-31.209 37.917-46.061 56.047-9.194 11.221-19.029 23.005-28.206 34.182l-52.694 64.064h-0.073c-24.441 29.708-52.537 56.824-89.5 69.967h-0.073c-0.052 0.019-0.093 0.051-0.145 0.073-5.328 1.998-10.708 3.549-16.035 4.592l-0.656 0.145-0.729 0.073c-11.293 1.803-21.886 1.733-33.234 1.749v6.414zM511.998 507.030c13.215 0 21.583-0.336 26.238-1.020 0.834-0.191 1.746-0.406 2.988-0.875h0.073l0.801-0.292 0.511-0.219c14.481-5.143 35.638-22.029 55.244-45.843l0.073-0.073 0.219-0.292 0.073-0.073c28.673-34.417 54.134-65.509 80.536-97.735 14.851-18.125 30.033-36.628 46.208-56.266l1.968-2.332 2.113-2.26c4.16-4.306 8.263-8.578 12.318-12.755h0.073c30.481-31.373 57.632-59.682 76.308-88.334 19.475-29.873 26.617-54.44 23.395-83.597-10.044-31.118-27.8-53.277-56.411-60.929-1.144 0.086-7.968-0.192-19.386 0.948-13.665 1.363-30.878 3.726-51.309 6.486-3.897 0.527-7.889 1.048-12.026 1.604-50.728 6.81-116.35 15.16-185.85 15.16h-9.257c-69.596 0-135.261-8.513-185.924-15.379-3.619-0.493-7.186-0.987-10.64-1.457-21.029-2.863-38.673-5.265-52.549-6.633-11.217-1.090-18.617-0.68-19.823-0.801-28.708 7.765-46 29.568-55.974 60.711-3.061 28.86 4.116 53.406 23.687 83.305 18.739 28.636 45.935 56.924 76.381 88.26 4.084 4.203 8.221 8.51 12.389 12.827l0.073 0.073 1.968 2.041 1.823 2.186 0.073 0.073c29.064 34.889 55.090 66.653 81.629 99.047 14.683 17.926 29.521 36.077 45.187 55.099l0.145 0.145c0.045 0.056 0.101 0.089 0.145 0.145 20.684 24.506 41.113 40.976 55.318 46.061l0.145 0.073 0.582 0.219 0.801 0.292c1.573 0.593 2.818 0.91 3.79 1.093l0.729 0.145c3.761 0.749 11.392 1.167 25.144 1.167z" />
<glyph unicode="&#xe913;" glyph-name="type" d="M950.856 756.572h-292.57v102.857c-0.037 18.172-7.751 35.622-21.467 48.479-13.68 12.823-32.294 20.057-51.676 20.091h-512.001c-19.382-0.034-37.996-7.234-51.711-20.091s-21.394-30.309-21.431-48.479v-822.855c0.037-18.172 7.753-35.622 21.431-48.446 13.715-12.857 32.329-20.091 51.711-20.126h877.712c19.385 0.034 37.961 7.269 51.676 20.126s21.431 30.274 21.47 48.446v651.427c-0.037 18.172-7.756 35.622-21.47 48.479-13.677 12.823-32.291 20.057-51.676 20.091zM402.284 36.573h-146.283v171.429h146.283v-171.429zM585.145 36.573h-109.715v171.429c-0.037 18.172-7.756 35.622-21.47 48.446-13.677 12.857-32.291 20.091-51.676 20.126h-146.283c-19.385-0.034-37.999-7.269-51.713-20.126-13.677-12.823-21.394-30.274-21.431-48.446v-171.429h-109.715l-0.034 822.855h512.036v-822.855zM950.856 36.573h-292.57v651.427h292.57v-651.427zM841.141 448.001c0-6.789-2.157-13.405-6.178-19.062-3.987-5.623-9.73-10.011-16.385-12.618-6.692-2.605-14.043-3.258-21.137-1.954-7.097 1.337-13.604 4.595-18.726 9.394-5.119 4.801-8.592 10.903-10.019 17.555-1.392 6.652-0.696 13.543 2.084 19.818 2.777 6.241 7.46 11.623 13.457 15.359 6.035 3.772 13.093 5.794 20.335 5.794 9.689 0 19.014-3.6 25.854-10.046 6.874-6.411 10.715-15.154 10.715-24.24zM768 585.143c0 6.789 2.157 13.405 6.181 19.062 3.984 5.623 9.726 10.011 16.382 12.618 6.692 2.605 14.043 3.258 21.14 1.954 7.094-1.337 13.604-4.595 18.723-9.394s8.595-10.903 10.022-17.555c1.389-6.652 0.693-13.543-2.084-19.818-2.78-6.241-7.46-11.623-13.46-15.359-6.035-3.772-13.090-5.794-20.332-5.794-9.693 0-19.019 3.6-25.859 10.046-6.874 6.411-10.715 15.154-10.715 24.24zM475.43 448.001c0-6.789-2.16-13.405-6.181-19.062-3.987-5.623-9.726-10.011-16.385-12.618-6.692-2.605-14.043-3.258-21.137-1.954-7.094 1.337-13.604 4.595-18.723 9.394-5.122 4.801-8.595 10.903-10.022 17.555-1.389 6.652-0.696 13.543 2.084 19.818 2.78 6.241 7.46 11.623 13.457 15.359 6.035 3.772 13.093 5.794 20.335 5.794 9.693 0 19.019-3.6 25.854-10.046 6.877-6.411 10.718-15.154 10.718-24.24zM475.43 585.143c0-6.789-2.16-13.405-6.181-19.062-3.987-5.623-9.726-10.011-16.385-12.618-6.692-2.605-14.043-3.258-21.137-1.954-7.094 1.337-13.604 4.595-18.723 9.394-5.122 4.801-8.595 10.903-10.022 17.555-1.389 6.652-0.696 13.543 2.084 19.818 2.78 6.241 7.46 11.623 13.457 15.359 6.035 3.772 13.093 5.794 20.335 5.794 9.693 0 19.019-3.6 25.854-10.046 6.877-6.411 10.718-15.154 10.718-24.24zM475.43 722.287c0-6.789-2.16-13.405-6.181-19.062-3.987-5.623-9.726-10.011-16.385-12.618-6.692-2.605-14.043-3.258-21.137-1.954-7.094 1.337-13.604 4.595-18.723 9.394-5.122 4.801-8.595 10.903-10.022 17.555-1.389 6.652-0.696 13.543 2.084 19.818 2.78 6.241 7.46 11.623 13.457 15.359 6.035 3.772 13.093 5.794 20.335 5.794 9.693 0 19.019-3.6 25.854-10.046 6.877-6.411 10.718-15.154 10.718-24.24zM256.003 448.001c0-6.789-2.16-13.405-6.181-19.062-3.987-5.623-9.726-10.011-16.385-12.618-6.692-2.605-14.043-3.258-21.137-1.954-7.094 1.337-13.604 4.595-18.723 9.394-5.122 4.801-8.595 10.903-10.022 17.555-1.389 6.652-0.696 13.543 2.084 19.818 2.78 6.241 7.46 11.623 13.457 15.359 6.035 3.772 13.093 5.794 20.335 5.794 9.693 0 19.019-3.6 25.854-10.046 6.877-6.411 10.718-15.154 10.718-24.24zM256.003 585.143c0-6.789-2.16-13.405-6.181-19.062-3.987-5.623-9.726-10.011-16.385-12.618-6.692-2.605-14.043-3.258-21.137-1.954-7.094 1.337-13.604 4.595-18.723 9.394-5.122 4.801-8.595 10.903-10.022 17.555-1.389 6.652-0.696 13.543 2.084 19.818 2.78 6.241 7.46 11.623 13.457 15.359 6.035 3.772 13.093 5.794 20.335 5.794 9.693 0 19.019-3.6 25.854-10.046 6.877-6.411 10.718-15.154 10.718-24.24zM256.003 722.287c0-6.789-2.16-13.405-6.181-19.062-3.987-5.623-9.726-10.011-16.385-12.618-6.692-2.605-14.043-3.258-21.137-1.954-7.094 1.337-13.604 4.595-18.723 9.394-5.122 4.801-8.595 10.903-10.022 17.555-1.389 6.652-0.696 13.543 2.084 19.818 2.78 6.241 7.46 11.623 13.457 15.359 6.035 3.772 13.093 5.794 20.335 5.794 9.693 0 19.019-3.6 25.854-10.046 6.877-6.411 10.718-15.154 10.718-24.24z" />
<glyph unicode="&#xe914;" glyph-name="parking" d="M262.461 840.59c-13.721-0.059-27.131-4.12-38.624-11.683-11.478-7.548-20.482-18.262-25.978-30.857l-116.97-262.804h-43.915c-0.008 0-0.018 0-0.028 0-20.405 0-36.947-16.542-36.947-36.947 0-0.010 0-0.020 0-0.030v0.002c0-0.008 0-0.018 0-0.028 0-20.405 16.542-36.947 36.947-36.947 0.010 0 0.020 0 0.030 0h30.925v-200.539c0.267-2.443 0.727-4.658 1.374-6.791l-0.068 0.262v-129.202c0-18.452 7.294-36.227 20.342-49.276 13.043-13.035 30.824-20.342 49.276-20.342h101.781c18.452 0 36.165 7.307 49.207 20.342 13.048 13.048 20.411 30.824 20.411 49.276v98.758h403.621v-98.758c0-18.452 7.294-36.227 20.342-49.276 13.043-13.035 30.824-20.342 49.276-20.342h101.781c18.452 0 36.158 7.294 49.207 20.342s20.411 30.824 20.411 49.276v126.385c0.795 2.794 1.268 6.007 1.306 9.326v200.56h30.857c0.008 0 0.018 0 0.028 0 20.405 0 36.947 16.542 36.947 36.947 0 0.010 0 0.020 0 0.030v-0.002c0 0.008 0 0.018 0 0.028 0 20.405-16.542 36.947-36.947 36.947-0.010 0-0.020 0-0.030 0h-43.844l-116.97 262.942c-5.502 12.535-14.543 23.2-25.978 30.72-11.493 7.564-24.903 11.625-38.624 11.683-0.031 0-0.068 0-0.102 0s-0.073 0-0.109 0h-498.732c-0.031 0-0.068 0-0.102 0s-0.073 0-0.109 0h0.005zM264.729 766.642h494.614l102.951-231.398h-700.513l102.951 231.398zM141.848 461.297h740.443v-163.634h-740.443v163.634zM140.542 223.784h98.276v-97.039h-98.276v97.039zM785.182 223.784h98.276v-97.039h-98.276v97.039z" />
<glyph unicode="&#xe915;" glyph-name="heating" d="M0 932.57v-73.143h1023.998v73.143h-1023.998zM0 796v-73.143h65.858v-750.928h209.643v546.142h473v-546.142h209.713v750.928h65.786v73.143h-1023.998zM139.001 722.857h746.070v-677.785h-63.429v475.427c0 38.628-32.086 70.714-70.714 70.714h-477.857c-38.628 0-70.714-32.086-70.714-70.714v-475.427h-63.357v677.785zM511.928 423.072l-23.858-20.643c-95.362-82.344-149.215-167.912-149.215-257.285 0-70.87 43.755-132.879 105.857-159.428 18.857-13.997 42.153-22.286 67.214-22.286 24.914 0 48.060 8.225 66.857 22.071 62.266 26.307 106.286 88.13 106.286 159.643 0 89.372-53.853 174.941-149.215 257.285l-23.928 20.643zM512 320.072c64.946-63.756 99.929-122.888 99.929-174.929 0-4.596-0.413-9.077-0.999-13.5-19.452 34.798-56.657 58.572-99 58.572-42.285 0-79.455-23.707-98.928-58.428-0.6 4.394-0.999 8.818-0.999 13.358 0 52.049 35.028 111.158 99.999 174.929zM511.928 117.072c22.678 0 40.214-17.611 40.214-40.286 0-10.61-3.878-20.052-10.286-27.142l-0.072-0.072c-9.42-2.901-19.426-4.428-29.858-4.428-10.536 0-20.691 1.666-30.214 4.714-6.269 7.061-9.999 16.449-9.999 26.928 0 22.673 17.541 40.286 40.214 40.286z" />
<glyph unicode="&#xe916;" glyph-name="bath" d="M291.47 875.181c-32.297 0-63.331-12.825-86.169-35.662s-35.662-53.872-35.662-86.169v-183.518h-98.699c-18.8 0-36.827-7.527-50.121-20.819s-20.819-31.321-20.819-50.121v-135.711c0-63.79 25.351-125.013 70.458-170.121 44.38-44.38 104.36-69.558 167.036-70.362v-64.868c0-20.441 16.571-37.012 37.012-37.012v0c20.441 0 37.012 16.571 37.012 37.012v0 64.771h400.964v-64.771c0-20.441 16.571-37.012 37.012-37.012v0c20.441 0 37.012 16.571 37.012 37.012v0 64.868c62.676 0.804 122.656 25.981 167.036 70.362 45.107 45.108 70.458 106.331 70.458 170.121v135.711c0 18.796-7.517 36.824-20.819 50.121-13.296 13.3-31.321 20.819-50.121 20.819h-99.085c-1.636 18.981-17.381 33.788-36.612 33.928h-271.435c-19.247-0.14-34.99-14.946-36.616-33.79l-0.010-0.138h-265.638v183.518c0 12.693 5 24.855 13.976 33.831s21.138 13.976 33.831 13.976c12.693 0 24.855-5 33.831-13.976s13.976-21.138 13.976-33.831c0-20.441 16.571-37.012 37.012-37.012v0c20.441 0 37.012 16.571 37.012 37.012v0c0 32.297-12.825 63.331-35.662 86.169s-53.872 35.662-86.169 35.662zM582.94 529.735h197.398v-129.542h-197.398v129.542zM74.024 495.807h434.892v-132.627c0.002-20.44 16.572-37.010 37.012-37.012h271.422c20.44 0.002 37.010 16.572 37.012 37.012v0 132.627h95.615v-132.627c0-44.186-17.526-86.537-48.771-117.783s-73.598-48.771-117.783-48.771h-542.843c-44.187 0-86.538 17.526-117.783 48.771s-48.771 73.598-48.771 117.783v132.627z" />
<glyph unicode="&#xe917;" glyph-name="bedroom" d="M168.956 929.582c-43.252 0-79.164-35.912-79.164-79.164v-184.717l-88.545-487.252c-8.693-47.81 29.23-93.286 77.824-93.286h23.914v-79.164c0-21.86 17.722-39.582 39.582-39.582s39.582 17.722 39.582 39.582v79.164h659.703v-79.164c0-21.86 17.722-39.582 39.582-39.582s39.582 17.722 39.582 39.582v79.164h23.914c48.595 0 86.516 45.475 77.824 93.286l-88.545 487.252v184.717c0 43.253-35.912 79.164-79.164 79.164h-686.092zM168.956 850.418h686.092v-184.717h-79.164v26.388c0 43.253-35.912 79.164-79.164 79.164h-369.433c-43.252 0-79.164-35.912-79.164-79.164v-26.388h-79.164v184.717zM327.284 692.089h369.433v-26.388h-369.433v26.388zM151.020 560.149h721.963l40.716-224.299h-803.394l40.716 224.299zM95.873 256.686h832.257l16.802-92.359h-865.86l16.802 92.359z" />
<glyph unicode="&#xe918;" glyph-name="gallery" d="M910.222 846.222v-796.444h-796.444v796.444h796.444zM910.222 960h-796.444c-62.578 0-113.778-51.2-113.778-113.778v-796.444c0-62.578 51.2-113.778 113.778-113.778h796.444c62.578 0 113.778 51.2 113.778 113.778v796.444c0 62.578-51.2 113.778-113.778 113.778zM633.742 455.964l-170.667-220.16-121.742 147.342-170.667-219.591h682.667l-219.591 292.409z" />
<glyph unicode="&#xe919;" glyph-name="washing" d="M242.319 737.364v-578.727h578.727v578.727h-578.727zM170.87 748.080c0 33.535 27.2 60.731 60.731 60.731h600.161c33.535 0 60.731-27.196 60.731-60.731v-600.161c0-33.535-27.196-60.731-60.731-60.731h-600.161c-33.53 0-60.731 27.196-60.731 60.731v600.161zM531.682 612.329c-90.75 0-164.329-73.58-164.329-164.329s73.58-164.329 164.329-164.329c90.752 0 164.329 73.58 164.329 164.329s-73.577 164.329-164.329 164.329zM295.904 448c0 130.21 105.57 235.777 235.777 235.777 130.21 0 235.777-105.567 235.777-235.777s-105.567-235.777-235.777-235.777c-130.206 0-235.777 105.567-235.777 235.777zM306.609 698.045c13.803 0 25.006-11.203 25.006-25.006s-11.203-25.006-25.006-25.006c-13.8 0-25.004 11.203-25.004 25.006s11.203 25.006 25.004 25.006zM77.033 403.144c-10.039-9.721-19.795-19.163-29.564-27.846l-47.469 53.4c6.943 6.172 14.656 13.768 23.261 22.245 50.476 49.717 131.65 129.674 268.401 129.674 34.827 0 66.393-11.625 94.671-26.379 23.889-12.464 47.748-28.476 70.319-43.625 3.744-2.512 7.452-4.999 11.117-7.442 53.904-35.938 103.774-65.45 163.269-65.45 52.089 0 82.172 18.701 125.57 45.677 5.998 3.729 12.249 7.617 18.847 11.631 55.29 33.655 124.186 67.726 248.546 67.726v-71.448c-107.846 0-163.983-28.447-211.399-57.308-5.762-3.508-11.543-7.142-17.397-10.824-43.265-27.193-90.525-56.902-164.165-56.902-83.401 0-149.633 41.936-202.9 77.446-4.022 2.683-7.959 5.323-11.817 7.909-22.806 15.282-42.937 28.775-63.038 39.263-23.074 12.038-42.862 18.276-61.62 18.276-105.081 0-163.528-56.568-214.63-106.024z" />
<glyph unicode="&#xe91a;" glyph-name="angle-down" d="M546.044 143.104l475.648 608.979c1.251 1.591 2.031 3.503 2.246 5.518s-0.141 4.047-1.035 5.868c-0.888 1.819-2.273 3.352-3.988 4.421-1.721 1.070-3.712 1.631-5.736 1.622h-104.423c-6.617 0-12.964-3.108-17.020-8.241l-379.732-486.312-379.731 486.312c-4.053 5.268-10.402 8.241-17.021 8.241h-104.423c-9.051 0-14.049-10.402-8.511-17.426l475.644-608.979c4.038-5.171 9.202-9.36 15.101-12.239 5.899-2.885 12.377-4.377 18.941-4.377s13.042 1.493 18.941 4.377c5.899 2.878 11.064 7.067 15.099 12.239z" />
<glyph unicode="&#xe91b;" glyph-name="cat" d="M354.462 408.636c0-11.687-3.466-23.11-9.957-32.822-6.491-9.717-15.716-17.287-26.513-21.758-10.796-4.474-22.673-5.642-34.133-3.365-11.46 2.281-21.986 7.906-30.249 16.17s-13.888 18.786-16.169 30.247c-2.279 11.461-1.109 23.34 3.361 34.133 4.471 10.796 12.043 20.022 21.759 26.513s21.137 9.957 32.821 9.957c15.668 0 30.695-6.222 41.772-17.305 11.078-11.078 17.305-26.105 17.305-41.771zM728.613 467.71c-11.682 0-23.105-3.466-32.818-9.957-9.717-6.491-17.287-15.716-21.761-26.513-4.47-10.793-5.638-22.673-3.361-34.133 2.281-11.461 7.906-21.984 16.17-30.247 8.26-8.263 18.786-13.888 30.247-16.17 11.461-2.277 23.337-1.109 34.133 3.365 10.796 4.47 20.022 12.041 26.513 21.758 6.491 9.713 9.957 21.135 9.957 32.822 0 15.665-6.226 30.693-17.305 41.771-11.078 11.082-26.105 17.305-41.775 17.305zM1024 861.556v-433.231c0-260.577-229.662-472.615-512-472.615s-512 212.038-512 472.615v433.231c0.007 15.574 4.631 30.796 13.286 43.743s20.955 23.038 35.344 28.997c14.389 5.958 30.22 7.519 45.495 4.482s29.307-10.533 40.322-21.541c0.689-0.689 1.28-1.329 1.871-2.018l85.218-97.969c87.136 54.593 187.881 83.547 290.709 83.547 102.825 0 203.569-28.954 290.706-83.547l84.726 97.969c0.588 0.689 1.18 1.329 1.87 2.018 11.015 11.009 25.046 18.505 40.321 21.541s31.109 1.477 45.497-4.482c14.389-5.959 26.689-16.049 35.343-28.997 8.658-12.946 13.28-28.169 13.287-43.743zM945.231 861.556l-106.143-122.092c-6.491-7.511-15.582-12.293-25.45-13.388s-19.787 1.577-27.769 7.481c-24.026 17.767-49.807 33.026-76.946 45.538v-114.462c0-10.444-4.15-20.463-11.536-27.849s-17.404-11.536-27.849-11.536c-10.444 0-20.463 4.15-27.849 11.536s-11.536 17.404-11.536 27.849v142.523c-25.836 6.646-52.185 11.126-78.769 13.391v-155.914c0-10.444-4.15-20.463-11.536-27.849s-17.404-11.536-27.849-11.536c-10.444 0-20.463 4.15-27.849 11.536s-11.536 17.404-11.536 27.849v155.914c-26.585-2.265-52.933-6.745-78.769-13.391v-142.523c0-10.444-4.15-20.463-11.536-27.849s-17.404-11.536-27.849-11.536c-10.444 0-20.463 4.15-27.849 11.536s-11.536 17.404-11.536 27.849v114.462c-27.137-12.512-52.921-27.77-76.948-45.538-7.964-5.922-17.871-8.619-27.738-7.551s-18.967 5.822-25.481 13.311l-106.142 122.24v-433.231c0-205.094 173.342-374.151 393.846-392.22v100.233l-67.25 67.25c-3.655 3.659-6.554 8.002-8.532 12.784s-2.996 9.902-2.991 15.073c0 5.172 1.025 10.297 3.004 15.073 1.983 4.777 4.886 9.12 8.545 12.775 7.39 7.381 17.409 11.527 27.857 11.524 5.172 0 10.297-1.025 15.073-3.004 4.777-1.983 9.12-4.886 12.775-8.545l50.903-50.903 50.903 50.903c3.655 3.659 7.999 6.562 12.775 8.545 4.777 1.979 9.902 3.004 15.073 3.004 5.172 0.004 10.293-1.013 15.073-2.991s9.125-4.878 12.784-8.532c3.659-3.655 6.562-7.999 8.545-12.775 1.979-4.777 3.004-9.902 3.004-15.073 0.004-5.172-1.013-10.293-2.991-15.073s-4.878-9.125-8.532-12.784l-67.25-67.25v-100.233c220.503 18.165 393.846 187.076 393.846 392.22v433.231z" />
<glyph unicode="&#xe91c;" glyph-name="dog" d="M1022.593 443.296l-75.051 402.227c-1.833 9.804-5.652 19.13-11.226 27.404-5.569 8.273-12.778 15.32-21.172 20.706s-17.805 8.998-27.646 10.612c-9.844 1.615-19.911 1.2-29.589-1.22l-1.419-0.411-240.054-70.801h-208.886l-241.474 70.984c-9.676 2.42-19.746 2.836-29.589 1.222s-19.251-5.227-27.646-10.612c-8.395-5.386-15.6-12.433-21.172-20.706s-9.392-17.6-11.226-27.404l-75.052-401.999c-3.209-16.101-0.827-32.814 6.753-47.374 7.579-14.564 19.903-26.101 34.932-32.708 9.625-4.411 20.082-6.72 30.67-6.764 12.674 0.008 25.113 3.417 36.018 9.872v-192.703c0-48.49 19.262-94.994 53.55-129.282 34.288-34.284 80.791-53.549 129.281-53.549h438.793c48.49 0 94.994 19.264 129.282 53.549 34.289 34.289 53.549 80.793 53.549 129.282v192.66c10.893-6.447 23.317-9.856 35.973-9.876 10.601 0.031 21.070 2.321 30.716 6.72 15.048 6.612 27.385 18.16 34.963 32.744 7.583 14.58 9.954 31.312 6.72 47.429zM73.199 429.583l75.098 402.228 192.293-56.54-267.39-345.688zM731.39 63.921h-182.831v58.003l62.438 62.391c6.861 6.861 10.714 16.167 10.714 25.872s-3.853 19.011-10.714 25.872c-6.861 6.861-16.167 10.714-25.872 10.714s-19.006-3.853-25.872-10.714l-47.261-47.308-47.261 47.308c-6.861 6.861-16.167 10.714-25.872 10.714s-19.006-3.853-25.872-10.714c-6.861-6.861-10.714-16.167-10.714-25.872s3.853-19.011 10.714-25.872l62.438-62.391v-58.003h-182.83c-29.094 0-56.996 11.557-77.568 32.131-20.573 20.571-32.13 48.474-32.13 77.567v278.317l237.315 306.744h183.518l237.358-306.744v-278.317c0-29.093-11.557-56.996-32.128-77.567-20.574-20.574-48.478-32.131-77.571-32.131zM950.787 429.583l-267.388 345.688 192.289 56.54 75.098-402.228zM402.294 374.736c0-10.851-3.214-21.456-9.244-30.473-6.027-9.022-14.591-16.050-24.616-20.201-10.020-4.154-21.051-5.238-31.69-3.124-10.641 2.117-20.412 7.341-28.083 15.013s-12.894 17.442-15.012 28.083c-2.116 10.641-1.031 21.667 3.121 31.69s11.181 18.589 20.202 24.616c9.022 6.027 19.622 9.244 30.473 9.244 14.544 0 28.496-5.781 38.782-16.066 10.289-10.285 16.066-24.237 16.066-38.782zM731.39 374.736c0-10.851-3.218-21.456-9.244-30.473-6.027-9.022-14.591-16.050-24.616-20.201-10.020-4.154-21.051-5.238-31.69-3.124-10.641 2.117-20.411 7.341-28.083 15.013s-12.894 17.442-15.013 28.083c-2.114 10.641-1.030 21.667 3.124 31.69 4.15 10.024 11.179 18.589 20.201 24.616s19.622 9.244 30.473 9.244c14.544 0 28.496-5.781 38.782-16.066 10.289-10.285 16.066-24.237 16.066-38.782z" />
<glyph unicode="&#xe91d;" glyph-name="bedroom-alt" d="M171.599 831.9h680.774v-203.087h-78.534v45.984c0 43.382-35.17 78.551-78.551 78.551h-366.571c-43.385 0-78.552-35.169-78.552-78.551v-45.984h-78.565v203.087zM250.164 543.88v0h-96.627l-41.73-222.559h800.388l-41.729 222.559h-620.301zM926.925 242.769h-829.846l-18.503-98.684h866.852l-18.503 98.684zM695.288 674.797v-45.984h-366.571v45.984h366.571zM93.048 628.813v203.087c0 43.382 35.169 78.551 78.551 78.551h680.774c43.385 0 78.551-35.169 78.551-78.551v-203.087h3.536l88.17-470.254c9.064-48.342-28.020-93.025-77.203-93.025h-27.593v-40.707c0-21.694-17.587-39.278-39.278-39.278s-39.273 17.583-39.273 39.278v40.707h-654.565v-40.707c0-21.694-17.584-39.278-39.275-39.278s-39.275 17.583-39.275 39.278v40.707h-27.593c-49.183 0-86.27 44.683-77.206 93.025l88.172 470.254h3.506z" />
<glyph unicode="&#xe91e;" glyph-name="washing-alt" d="M296.392 790.403c14 0 25.363-11.362 25.363-25.363s-11.362-25.363-25.363-25.363c-14 0-25.363 11.362-25.363 25.363s11.362 25.363 25.363 25.363zM225.086 568.332v225.694h619.58v-270.582c-27.449-11.116-50.617-24.077-71.813-36.979-4.561-2.779-8.964-5.496-13.239-8.149-16.464 114.992-115.372 203.389-234.914 203.389-85.835 0-161.033-45.577-202.712-113.851-13.065 3.25-26.651 5.153-40.759 5.153-19.852 0-38.541-1.667-56.143-4.674zM156.245 548.277c-66.262-27.808-112.534-73.368-145.883-106.198-12.93-12.729-13.974-33.693-1.919-47.255l1.041-1.171c12.63-14.207 34.31-15.399 47.98-2.189l4.71 4.558c27.235 26.37 56.682 54.882 94.071 76.005v-377.991c0-33.627 27.273-60.9 60.899-60.9h635.465c33.627 0 60.9 27.272 60.9 60.9v379.632c21.942 5.547 46.922 9.576 76.056 11.359 18.975 1.163 34.435 16.428 34.435 35.439s-15.431 34.54-34.414 33.515c-28.28-1.529-53.432-4.924-76.078-9.675v257.659c0 33.626-27.272 60.899-60.9 60.899h-635.465c-33.625 0-60.899-27.273-60.899-60.899v-253.691zM844.667 447.906v-345.925h-619.58v396.397c17.19 3.71 35.814 5.786 56.143 5.786 4.437 0 8.922-0.336 13.483-1.003-4.791-18.797-7.337-38.49-7.337-58.781 0-131.065 106.263-237.324 237.324-237.324 114.525 0 210.11 81.132 232.411 189.051 11.747 6.66 22.91 13.674 33.848 20.551 5.942 3.735 11.823 7.427 17.689 11 11.326 6.896 23.145 13.765 36.019 20.247zM524.7 612.863c-57.128 0-107.619-28.439-138.087-71.933 20.704-11.609 41.262-25.406 60.933-38.606 3.801-2.551 7.569-5.079 11.298-7.565 54.654-36.435 105.647-66.683 166.598-66.683 26.703 0 47.791 4.815 67.711 13.059 0.018 1.080 0.029 2.163 0.029 3.246 0 93.042-75.437 168.482-168.482 168.482zM524.7 275.898c63.758 0 119.253 35.425 147.87 87.666-14.493-2.758-30.11-4.33-47.128-4.33-83.984 0-150.742 42.218-204.788 78.248-4.073 2.714-8.058 5.384-11.967 8.007v0c-17.555 11.765-33.602 22.522-49.276 31.697-2.094-10.613-3.192-21.58-3.192-32.805 0-93.042 75.44-168.482 168.482-168.482z" />
<glyph unicode="&#xe91f;" glyph-name="building-type" d="M152.856 791.046h61.917v-56.703h-2.063v-5.214h-59.853v61.917zM152.856 172.528v-61.918h61.917v56.701h-2.063v5.216h-59.853zM809.174 110.612h61.918v61.918h-59.852v-5.216h-2.066v-56.701zM871.091 729.129v61.917h-61.918v-56.703h2.066v-5.214h59.852zM332.414 791.046v-61.917h119.709v61.917h-119.709zM571.827 791.046v-61.917h119.709v61.917h-119.709zM871.091 620.938h-61.918v-113.406h61.918v113.406zM871.091 394.126h-61.918v-113.406h61.918v113.406zM691.535 110.612v61.918h-119.709v-61.918h119.709zM452.123 110.612v61.918h-119.709v-61.918h119.709zM152.856 280.719h61.917v113.406h-61.917v-113.406zM152.856 507.532h61.917v113.406h-61.917v-113.406zM286.015 239.67v-218.926h-218.926v218.926h218.926zM0 306.758v-353.107h353.105v353.107h-353.105zM956.912 239.67v-218.926h-218.926v218.926h218.926zM670.898 306.758v-353.107h353.103v353.107h-353.103zM286.015 875.26v-218.926h-218.926v218.926h218.926zM0 942.35v-353.107h353.105v353.107h-353.105zM956.912 875.26v-218.926h-218.926v218.926h218.926zM670.898 942.35v-353.107h353.103v353.107h-353.103z" />
</font>
</defs>
</svg>
