<svg width="650" height="650" viewBox="0 0 650 650" fill="none" xmlns="http://www.w3.org/2000/svg">
<g clip-path="url(#clip0_1695_836)">
<path d="M203.135 537.012H114.268V250.098H203.135V537.012ZM212.002 158.686C212.002 129.958 188.694 106.641 159.981 106.641C131.158 106.641 107.91 129.958 107.91 158.686C107.91 187.424 131.158 210.742 159.981 210.742C188.694 210.742 212.002 187.424 212.002 158.686ZM535.742 379.163C535.742 302.143 519.471 245.02 429.498 245.02C386.265 245.02 357.244 266.641 345.397 289.126H345.312V250.098H258.984V537.012H345.312V394.556C345.312 357.249 354.809 321.107 401.053 321.107C446.667 321.107 448.145 363.77 448.145 396.927V537.012H535.742V379.163ZM650 573.828V76.1719C650 34.1682 615.832 0 573.828 0H76.1719C34.1682 0 0 34.1682 0 76.1719V573.828C0 615.832 34.1682 650 76.1719 650H573.828C615.832 650 650 615.832 650 573.828ZM573.828 50.7812C587.828 50.7812 599.219 62.1723 599.219 76.1719V573.828C599.219 587.828 587.828 599.219 573.828 599.219H76.1719C62.1723 599.219 50.7812 587.828 50.7812 573.828V76.1719C50.7812 62.1723 62.1723 50.7812 76.1719 50.7812H573.828Z" fill="white"/>
</g>
<defs>
<clipPath id="clip0_1695_836">
<rect width="650" height="650" fill="white"/>
</clipPath>
</defs>
</svg>
