<svg width="125" height="31" fill="none" xmlns="http://www.w3.org/2000/svg"><path d="M6.453 30.22h.93V14.294c0-.452.243-.87.635-1.094l6.762-3.856 6.747 3.856c.392.224.634.641.634 1.093v7.151c0 .787-.641 1.423-1.428 1.417l-4.952-.04a.993.993 0 0 0-1 .994v6.407h13.784a.993.993 0 0 0 .993-.994V9.792a.993.993 0 0 0-.5-.862L14.78.783.501 8.93A.993.993 0 0 0 0 9.793v19.379c0 .544.438.987.983.993l5.47.056Z" fill="#ED0831"/><path d="M46.894 19.73c3.164 0 5.28-2.067 5.28-5.157 0-3.089-2.116-5.156-5.28-5.156h-4.396a1.889 1.889 0 0 0-1.889 1.89v13.558h3.394V19.73h2.891Zm-.754-7.307c1.634 0 2.451.71 2.451 2.15s-.817 2.15-2.45 2.15h-2.138v-3.4a.9.9 0 0 1 .9-.9h1.237Zm14.672 2.004a5.37 5.37 0 0 0-1.236-.146c-1.404 0-2.326.69-2.766 1.712l-.167-1.545h-1.15a1.889 1.889 0 0 0-1.888 1.89v8.527h3.226v-4.53c0-2.067 1.11-2.88 2.954-2.88h1.027v-3.028Zm.445 5.198c0 3.298 2.43 5.49 5.782 5.49 3.331 0 5.762-2.192 5.762-5.49s-2.43-5.51-5.762-5.51c-3.352 0-5.782 2.212-5.782 5.51Zm3.247-.02c0-1.566 1.027-2.61 2.535-2.61 1.488 0 2.514 1.044 2.514 2.61 0 1.586-1.026 2.63-2.514 2.63-1.508 0-2.535-1.044-2.535-2.63Zm9.853 10.612h3.226V23.82c.608.793 1.949 1.336 3.394 1.336 3.122 0 4.924-2.38 4.924-5.678 0-3.36-2.032-5.386-4.945-5.386-1.487 0-2.807.648-3.394 1.608l-.167-1.274h-1.15a1.889 1.889 0 0 0-1.888 1.89v13.9Zm3.247-10.571c0-1.566 1.048-2.61 2.556-2.61 1.53 0 2.493 1.065 2.493 2.61s-.963 2.61-2.493 2.61c-1.508 0-2.556-1.044-2.556-2.61Zm10.154 10.571h3.227V23.82c.607.793 1.948 1.336 3.394 1.336 3.121 0 4.923-2.38 4.923-5.678 0-3.36-2.032-5.386-4.944-5.386-1.488 0-2.808.648-3.395 1.608l-.167-1.274h-1.15a1.889 1.889 0 0 0-1.888 1.89v13.9Zm3.247-10.571c0-1.566 1.048-2.61 2.556-2.61 1.53 0 2.494 1.065 2.494 2.61s-.964 2.61-2.494 2.61c-1.508 0-2.556-1.044-2.556-2.61Zm15.015 5.49c2.87 0 4.944-1.482 5.321-3.8h-2.954c-.23.752-1.089 1.19-2.304 1.19-1.425 0-2.2-.646-2.389-2.024l7.605-.042v-.814c0-3.402-2.053-5.553-5.342-5.553-3.164 0-5.363 2.276-5.363 5.532 0 3.215 2.262 5.511 5.426 5.511Zm-.042-8.433c1.299 0 2.116.71 2.116 1.816h-4.358c.252-1.253.964-1.816 2.242-1.816Zm11.632 8.433c1.508 0 2.807-.647 3.373-1.607l.069.548a.9.9 0 0 0 .893.788h2.243V9.125h-1.426a1.8 1.8 0 0 0-1.8 1.8v4.463c-.608-.773-1.844-1.295-3.143-1.295-3.184 0-5.175 2.297-5.175 5.616 0 3.298 1.949 5.427 4.966 5.427Zm.775-2.943c-1.529 0-2.493-1.065-2.493-2.61 0-1.544.964-2.609 2.493-2.609 1.508 0 2.556 1.044 2.556 2.61 0 1.565-1.048 2.609-2.556 2.609Z" fill="#101828"/></svg>